{
.appVersion = "85";
DisplayStrings = (
"Räk "
);
date = "2018-11-02 13:59:05 +0000";
familyName = "New Font";
featurePrefixes = (
{
automatic = 1;
code = "languagesystem DFLT dflt;\012";
name = Languagesystems;
}
);
fontMaster = (
{
alignmentZones = (
"{800, 16}",
"{700, 5}",
"{500, 16}",
"{0, -15}",
"{-200, -15}"
);
ascender = 800;
capHeight = 700;
descender = -200;
iconName = Regular;
id = "05094513-8B3E-496E-80F7-D1F3E9D5BA68";
xHeight = 500;
}
);
glyphs = (
{
glyphname = A;
lastChange = "2018-11-30 11:43:12 +0000";
layers = (
{
layerId = "05094513-8B3E-496E-80F7-D1F3E9D5BA68";
paths = (
{
closed = 1;
nodes = (
"258 237 OFFCURVE",
"242 224 OFFCURVE",
"227 209 CURVE",
"176 155 OFFCURVE",
"126 101 OFFCURVE",
"74 47 CURVE",
"65 36 OFFCURVE",
"54 26 OFFCURVE",
"44 17 CURVE",
"37 10 OFFCURVE",
"31 10 OFFCURVE",
"23 19 CURVE",
"6 39 OFFCURVE",
"6 64 OFFCURVE",
"0 87 CURVE",
"-1 92 OFFCURVE",
"6 100 OFFCURVE",
"9 106 CURVE",
"34 161 OFFCURVE",
"60 216 OFFCURVE",
"84 272 CURVE",
"123 358 OFFCURVE",
"161 443 OFFCURVE",
"197 530 CURVE",
"212 567 OFFCURVE",
"220 607 OFFCURVE",
"227 647 CURVE",
"230 662 OFFCURVE",
"240 663 OFFCURVE",
"250 665 CURVE",
"261 667 OFFCURVE",
"264 660 OFFCURVE",
"265 651 CURVE",
"265 649 OFFCURVE",
"266 645 OFFCURVE",
"269 644 CURVE",
"299 625 OFFCURVE",
"306 596 OFFCURVE",
"309 564 CURVE",
"315 511 OFFCURVE",
"320 457 OFFCURVE",
"326 403 CURVE",
"327 395 OFFCURVE",
"333 387 OFFCURVE",
"335 379 CURVE",
"337 369 OFFCURVE",
"337 358 OFFCURVE",
"337 348 CURVE",
"337 310 OFFCURVE",
"337 272 OFFCURVE",
"338 235 CURVE",
"338 213 OFFCURVE",
"339 191 OFFCURVE",
"341 170 CURVE",
"341 161 OFFCURVE",
"341 151 OFFCURVE",
"344 142 CURVE",
"357 112 OFFCURVE",
"344 85 OFFCURVE",
"337 58 CURVE",
"335 46 OFFCURVE",
"325 44 OFFCURVE",
"316 55 CURVE",
"295 81 OFFCURVE",
"287 113 OFFCURVE",
"284 146 CURVE",
"282 173 OFFCURVE",
"282 200 OFFCURVE",
"280 228 CURVE",
"280 234 OFFCURVE",
"280 241 OFFCURVE",
"279 246 CURVE",
"278 248 OFFCURVE",
"276 249 OFFCURVE",
"274 250 CURVE"
);
},
{
closed = 1;
nodes = (
"221 429 OFFCURVE",
"183 338 OFFCURVE",
"144 245 CURVE",
"149 248 OFFCURVE",
"151 248 OFFCURVE",
"153 250 CURVE",
"191 284 OFFCURVE",
"228 317 OFFCURVE",
"266 351 CURVE",
"270 354 OFFCURVE",
"274 361 OFFCURVE",
"273 366 CURVE",
"270 417 OFFCURVE",
"265 467 OFFCURVE",
"261 522 CURVE"
);
}
);
width = 370;
}
);
unicode = 0041;
},
{
glyphname = Adieresis;
lastChange = "2018-11-02 14:54:06 +0000";
layers = (
{
layerId = "05094513-8B3E-496E-80F7-D1F3E9D5BA68";
paths = (
{
closed = 1;
nodes = (
"275 -13 OFFCURVE",
"268 13 OFFCURVE",
"263 37 CURVE",
"247 110 OFFCURVE",
"235 184 OFFCURVE",
"221 257 CURVE",
"220 260 OFFCURVE",
"219 263 OFFCURVE",
"218 267 CURVE",
"205 233 OFFCURVE",
"183 206 OFFCURVE",
"163 179 CURVE",
"124 127 OFFCURVE",
"88 73 OFFCURVE",
"51 21 CURVE",
"45 14 OFFCURVE",
"35 5 OFFCURVE",
"28 6 CURVE",
"21 6 OFFCURVE",
"13 17 OFFCURVE",
"8 24 CURVE",
"-8 49 OFFCURVE",
"3 72 OFFCURVE",
"16 93 CURVE",
"23 103 OFFCURVE",
"28 112 OFFCURVE",
"22 125 CURVE",
"20 129 OFFCURVE",
"22 136 OFFCURVE",
"23 141 CURVE",
"50 244 OFFCURVE",
"77 347 OFFCURVE",
"103 451 CURVE",
"120 517 OFFCURVE",
"133 584 OFFCURVE",
"148 650 CURVE",
"151 665 OFFCURVE",
"174 673 OFFCURVE",
"183 661 CURVE",
"190 651 OFFCURVE",
"197 639 OFFCURVE",
"200 627 CURVE",
"230 483 OFFCURVE",
"259 339 OFFCURVE",
"288 195 CURVE",
"296 156 OFFCURVE",
"301 117 OFFCURVE",
"311 79 CURVE",
"318 49 OFFCURVE",
"317 20 OFFCURVE",
"311 -8 CURVE",
"310 -15 OFFCURVE",
"306 -21 OFFCURVE",
"302 -29 CURVE"
);
},
{
closed = 1;
nodes = (
"116 247 OFFCURVE",
"117 246 OFFCURVE",
"119 245 CURVE",
"132 261 OFFCURVE",
"145 277 OFFCURVE",
"157 293 CURVE",
"170 310 OFFCURVE",
"186 321 OFFCURVE",
"209 320 CURVE",
"197 385 OFFCURVE",
"185 450 OFFCURVE",
"174 515 CURVE",
"172 515 OFFCURVE",
"171 514 OFFCURVE",
"170 514 CURVE",
"151 425 OFFCURVE",
"133 336 OFFCURVE",
"115 247 CURVE"
);
},
{
closed = 1;
nodes = (
"185 727 OFFCURVE",
"187 760 OFFCURVE",
"185 790 CURVE",
"181 842 OFFCURVE",
"198 890 OFFCURVE",
"216 937 CURVE",
"220 949 OFFCURVE",
"229 952 OFFCURVE",
"238 949 CURVE",
"243 947 OFFCURVE",
"250 939 OFFCURVE",
"251 933 CURVE",
"252 918 OFFCURVE",
"252 902 OFFCURVE",
"249 887 CURVE",
"237 843 OFFCURVE",
"230 799 OFFCURVE",
"232 753 CURVE",
"232 739 OFFCURVE",
"225 725 OFFCURVE",
"221 709 CURVE"
);
},
{
closed = 1;
nodes = (
"83 751 OFFCURVE",
"74 758 OFFCURVE",
"73 765 CURVE",
"71 806 OFFCURVE",
"70 846 OFFCURVE",
"71 887 CURVE",
"71 891 OFFCURVE",
"80 897 OFFCURVE",
"86 899 CURVE",
"90 900 OFFCURVE",
"100 896 OFFCURVE",
"101 892 CURVE",
"115 843 OFFCURVE",
"119 794 OFFCURVE",
"95 747 CURVE",
"93 746 OFFCURVE",
"91 745 OFFCURVE",
"88 743 CURVE"
);
}
);
width = 346;
}
);
unicode = 00C4;
},
{
glyphname = Aring;
lastChange = "2018-11-02 14:53:30 +0000";
layers = (
{
layerId = "05094513-8B3E-496E-80F7-D1F3E9D5BA68";
paths = (
{
closed = 1;
nodes = (
"287 12 OFFCURVE",
"272 35 OFFCURVE",
"265 61 CURVE",
"246 120 OFFCURVE",
"231 181 OFFCURVE",
"215 241 CURVE",
"214 247 OFFCURVE",
"212 253 OFFCURVE",
"209 263 CURVE",
"202 254 OFFCURVE",
"195 248 OFFCURVE",
"191 240 CURVE",
"156 179 OFFCURVE",
"122 118 OFFCURVE",
"88 57 CURVE",
"75 33 OFFCURVE",
"63 8 OFFCURVE",
"48 -14 CURVE",
"37 -31 OFFCURVE",
"26 -31 OFFCURVE",
"17 -14 CURVE",
"9 2 OFFCURVE",
"3 22 OFFCURVE",
"1 41 CURVE",
"-5 89 OFFCURVE",
"21 130 OFFCURVE",
"35 173 CURVE",
"76 296 OFFCURVE",
"110 421 OFFCURVE",
"137 547 CURVE",
"144 579 OFFCURVE",
"151 611 OFFCURVE",
"159 643 CURVE",
"160 650 OFFCURVE",
"166 656 OFFCURVE",
"170 662 CURVE",
"176 657 OFFCURVE",
"186 653 OFFCURVE",
"188 647 CURVE",
"196 620 OFFCURVE",
"204 593 OFFCURVE",
"207 566 CURVE",
"226 428 OFFCURVE",
"257 292 OFFCURVE",
"296 159 CURVE",
"303 135 OFFCURVE",
"313 112 OFFCURVE",
"318 88 CURVE",
"322 69 OFFCURVE",
"320 49 OFFCURVE",
"320 29 CURVE",
"320 22 OFFCURVE",
"319 14 OFFCURVE",
"317 7 CURVE",
"315 0 OFFCURVE",
"311 -6 OFFCURVE",
"308 -12 CURVE",
"304 -12 OFFCURVE",
"301 -12 OFFCURVE",
"298 -12 CURVE"
);
},
{
closed = 1;
nodes = (
"173 450 OFFCURVE",
"172 449 OFFCURVE",
"170 449 CURVE",
"161 404 OFFCURVE",
"152 358 OFFCURVE",
"142 312 CURVE",
"144 311 OFFCURVE",
"146 311 OFFCURVE",
"147 310 CURVE",
"158 325 OFFCURVE",
"169 340 OFFCURVE",
"179 355 CURVE",
"183 361 OFFCURVE",
"188 369 OFFCURVE",
"187 375 CURVE",
"184 400 OFFCURVE",
"179 425 OFFCURVE",
"175 450 CURVE"
);
},
{
closed = 1;
nodes = (
"118 841 OFFCURVE",
"119 853 OFFCURVE",
"123 863 CURVE",
"134 885 OFFCURVE",
"139 907 OFFCURVE",
"141 932 CURVE",
"144 971 OFFCURVE",
"173 980 OFFCURVE",
"205 969 CURVE",
"244 957 OFFCURVE",
"259 926 OFFCURVE",
"262 891 CURVE",
"267 843 OFFCURVE",
"252 798 OFFCURVE",
"220 762 CURVE",
"210 750 OFFCURVE",
"193 741 OFFCURVE",
"177 735 CURVE",
"158 727 OFFCURVE",
"137 737 OFFCURVE",
"130 757 CURVE",
"123 780 OFFCURVE",
"119 804 OFFCURVE",
"114 826 CURVE"
);
},
{
closed = 1;
nodes = (
"181 837 OFFCURVE",
"184 834 OFFCURVE",
"188 832 CURVE",
"194 839 OFFCURVE",
"200 847 OFFCURVE",
"206 854 CURVE",
"203 856 OFFCURVE",
"198 860 OFFCURVE",
"198 860 CURVE",
"191 853 OFFCURVE",
"185 846 OFFCURVE",
"178 839 CURVE"
);
}
);
width = 370;
}
);
unicode = 00C5;
},
{
glyphname = B;
lastChange = "2018-11-09 11:29:56 +0000";
layers = (
{
layerId = "05094513-8B3E-496E-80F7-D1F3E9D5BA68";
paths = (
{
closed = 1;
nodes = (
"54 124 OFFCURVE",
"52 133 OFFCURVE",
"48 142 CURVE",
"37 168 OFFCURVE",
"41 194 OFFCURVE",
"45 220 CURVE",
"62 329 OFFCURVE",
"74 438 OFFCURVE",
"78 548 CURVE",
"78 553 OFFCURVE",
"78 557 OFFCURVE",
"77 566 CURVE",
"57 553 OFFCURVE",
"41 541 OFFCURVE",
"33 521 CURVE",
"31 516 OFFCURVE",
"24 511 OFFCURVE",
"20 506 CURVE",
"15 512 OFFCURVE",
"8 516 OFFCURVE",
"7 522 CURVE",
"-7 567 OFFCURVE",
"1 607 OFFCURVE",
"36 641 CURVE",
"64 669 OFFCURVE",
"97 688 OFFCURVE",
"138 693 CURVE",
"198 701 OFFCURVE",
"248 675 OFFCURVE",
"278 618 CURVE",
"301 575 OFFCURVE",
"304 529 OFFCURVE",
"292 483 CURVE",
"288 467 OFFCURVE",
"293 465 OFFCURVE",
"307 463 CURVE",
"330 459 OFFCURVE",
"352 455 OFFCURVE",
"374 448 CURVE",
"426 433 OFFCURVE",
"472 371 OFFCURVE",
"473 318 CURVE",
"473 259 OFFCURVE",
"456 205 OFFCURVE",
"418 157 CURVE",
"385 114 OFFCURVE",
"348 74 OFFCURVE",
"305 39 CURVE",
"287.357 12.308 OFFCURVE",
"243.225 -2.13 OFFCURVE",
"195.693 0.253 CURVE",
"148.758 2.607 OFFCURVE",
"102.072 11.738 OFFCURVE",
"55.549 19.526 CURVE",
"40.073 22.117 OFFCURVE",
"25 29 OFFCURVE",
"22 45 CURVE",
"17 60 OFFCURVE",
"12 77 OFFCURVE",
"10 93 CURVE",
"8 107 OFFCURVE",
"42 121 OFFCURVE",
"58 113 CURVE"
);
},
{
closed = 1;
nodes = (
"109 251 OFFCURVE",
"98 175 OFFCURVE",
"87 97 CURVE",
"159 76 OFFCURVE",
"229 77 OFFCURVE",
"292 132 CURVE",
"340 174 OFFCURVE",
"380 222 OFFCURVE",
"413 275 CURVE",
"420 287 OFFCURVE",
"421 298 OFFCURVE",
"413 309 CURVE",
"396 332 OFFCURVE",
"374 350 OFFCURVE",
"345 356 CURVE",
"312 363 OFFCURVE",
"279 367 OFFCURVE",
"245 371 CURVE",
"239 372 OFFCURVE",
"231 367 OFFCURVE",
"224 363 CURVE",
"205 355 OFFCURVE",
"187 343 OFFCURVE",
"168 337 CURVE",
"153 332 OFFCURVE",
"136 332 OFFCURVE",
"120 330 CURVE"
);
},
{
closed = 1;
nodes = (
"137 416 OFFCURVE",
"145 417 OFFCURVE",
"154 417 CURVE",
"173 418 OFFCURVE",
"192 434 OFFCURVE",
"198 453 CURVE",
"199 457 OFFCURVE",
"205 464 OFFCURVE",
"210 465 CURVE",
"225 469 OFFCURVE",
"230 479 OFFCURVE",
"237 492 CURVE",
"247 511 OFFCURVE",
"255 531 OFFCURVE",
"238 549 CURVE",
"224 564 OFFCURVE",
"207 577 OFFCURVE",
"188 588 CURVE",
"177 593 OFFCURVE",
"161 590 OFFCURVE",
"147 589 CURVE",
"125 587 OFFCURVE",
"123 583 OFFCURVE",
"124 561 CURVE",
"125 557 OFFCURVE",
"124 552 OFFCURVE",
"124 547 CURVE",
"125 504 OFFCURVE",
"125 460 OFFCURVE",
"126 416 CURVE"
);
}
);
width = 483;
}
);
unicode = 0042;
},
{
glyphname = C;
lastChange = "2018-11-09 11:27:04 +0000";
layers = (
{
layerId = "05094513-8B3E-496E-80F7-D1F3E9D5BA68";
paths = (
{
closed = 1;
nodes = (
"9 387 OFFCURVE",
"29 470 OFFCURVE",
"78 542 CURVE",
"112 591 OFFCURVE",
"145 642 OFFCURVE",
"195 679 CURVE",
"216 694 OFFCURVE",
"240 700 OFFCURVE",
"264 689 CURVE",
"287 677 OFFCURVE",
"302 657 OFFCURVE",
"298 629 CURVE",
"295 610 OFFCURVE",
"293 591 OFFCURVE",
"288 572 CURVE",
"287 566 OFFCURVE",
"279 560 OFFCURVE",
"273 557 CURVE",
"272 556 OFFCURVE",
"265 562 OFFCURVE",
"261 567 CURVE",
"250 580 OFFCURVE",
"231 579 OFFCURVE",
"213 566 CURVE",
"157 526 OFFCURVE",
"125 467 OFFCURVE",
"91 409 CURVE",
"60 355 OFFCURVE",
"57 296 OFFCURVE",
"58 237 CURVE",
"59 180 OFFCURVE",
"86 140 OFFCURVE",
"140 118 CURVE",
"201 92 OFFCURVE",
"262 77 OFFCURVE",
"327 99 CURVE",
"340 104 OFFCURVE",
"352 113 OFFCURVE",
"365 116 CURVE",
"374 119 OFFCURVE",
"387 121 OFFCURVE",
"395 117 CURVE",
"403 113 OFFCURVE",
"416 107 OFFCURVE",
"407 89 CURVE",
"401 76 OFFCURVE",
"402 60 OFFCURVE",
"400 45 CURVE",
"399 28 OFFCURVE",
"392 16 OFFCURVE",
"375 9 CURVE",
"335 -9 OFFCURVE",
"292 -17 OFFCURVE",
"248 -14 CURVE",
"202 -12 OFFCURVE",
"159 1 OFFCURVE",
"116 17 CURVE",
"69 35 OFFCURVE",
"45 71 OFFCURVE",
"29 115 CURVE",
"7 175 OFFCURVE",
"-7 236 OFFCURVE",
"4 297 CURVE"
);
}
);
width = 430;
}
);
unicode = 0043;
},
{
glyphname = D;
lastChange = "2018-11-09 11:07:11 +0000";
layers = (
{
layerId = "05094513-8B3E-496E-80F7-D1F3E9D5BA68";
paths = (
{
closed = 1;
nodes = (
"431 235 OFFCURVE",
"416 185 OFFCURVE",
"385 142 CURVE",
"362 110 OFFCURVE",
"341 75 OFFCURVE",
"301 59 CURVE",
"246 36 OFFCURVE",
"195 0 OFFCURVE",
"133 0 CURVE",
"101 0 OFFCURVE",
"69 1 OFFCURVE",
"37 6 CURVE",
"28 8 OFFCURVE",
"20 24 OFFCURVE",
"15 35 CURVE",
"8 48 OFFCURVE",
"5 62 OFFCURVE",
"0 77 CURVE",
"-1 81 OFFCURVE",
"0 86 OFFCURVE",
"1 90 CURVE",
"5 104 OFFCURVE",
"12 117 OFFCURVE",
"14 131 CURVE",
"26 251 OFFCURVE",
"37 371 OFFCURVE",
"47 492 CURVE",
"51 535 OFFCURVE",
"48 578 OFFCURVE",
"50 621 CURVE",
"50 628 OFFCURVE",
"58 635 OFFCURVE",
"64 642 CURVE",
"67 647 OFFCURVE",
"72 650 OFFCURVE",
"76 654 CURVE",
"83 661 OFFCURVE",
"88 672 OFFCURVE",
"94 673 CURVE",
"182 679 OFFCURVE",
"266 670 OFFCURVE",
"331 604 CURVE",
"393 543 OFFCURVE",
"424 466 OFFCURVE",
"430 379 CURVE",
"432 349 OFFCURVE",
"433 319 OFFCURVE",
"434 289 CURVE"
);
},
{
closed = 1;
nodes = (
"94 402 OFFCURVE",
"84 253 OFFCURVE",
"74 98 CURVE",
"108 103 OFFCURVE",
"141 103 OFFCURVE",
"172 112 CURVE",
"229 130 OFFCURVE",
"285 152 OFFCURVE",
"322 203 CURVE",
"335 219 OFFCURVE",
"345 236 OFFCURVE",
"356 254 CURVE",
"395 318 OFFCURVE",
"396 382 OFFCURVE",
"354 446 CURVE",
"293 541 OFFCURVE",
"205 566 OFFCURVE",
"104 552 CURVE"
);
}
);
width = 449;
}
);
unicode = 0044;
},
{
glyphname = E;
lastChange = "2018-11-09 10:54:46 +0000";
layers = (
{
layerId = "05094513-8B3E-496E-80F7-D1F3E9D5BA68";
paths = (
{
closed = 1;
nodes = (
"79 676 OFFCURVE",
"79 675 OFFCURVE",
"125 675 CURVE",
"167 675 OFFCURVE",
"208 679 OFFCURVE",
"249 681 CURVE",
"258 682 OFFCURVE",
"267 682 OFFCURVE",
"277 682 CURVE",
"293 681 OFFCURVE",
"306 668 OFFCURVE",
"305 652 CURVE",
"304 640 OFFCURVE",
"300 627 OFFCURVE",
"298 615 CURVE",
"297 611 OFFCURVE",
"296 608 OFFCURVE",
"295 604 CURVE",
"287 568 OFFCURVE",
"287 568 OFFCURVE",
"249 566 CURVE",
"198 562 OFFCURVE",
"148 559 OFFCURVE",
"95 555 CURVE",
"95 533 OFFCURVE",
"96 509 OFFCURVE",
"96 485 CURVE",
"95 464 OFFCURVE",
"94 442 OFFCURVE",
"94 421 CURVE",
"93 399 OFFCURVE",
"99 392 OFFCURVE",
"121 392 CURVE",
"128 391 OFFCURVE",
"136 393 OFFCURVE",
"142 396 CURVE",
"166 405 OFFCURVE",
"183 394 OFFCURVE",
"180 368 CURVE",
"178 349 OFFCURVE",
"174 329 OFFCURVE",
"167 311 CURVE",
"164 302 OFFCURVE",
"151 294 OFFCURVE",
"141 292 CURVE",
"126 289 OFFCURVE",
"110 292 OFFCURVE",
"94 290 CURVE",
"88 290 OFFCURVE",
"79 285 OFFCURVE",
"79 282 CURVE",
"71 230 OFFCURVE",
"65 178 OFFCURVE",
"58 126 CURVE",
"58 125 OFFCURVE",
"59 124 OFFCURVE",
"60 121 CURVE",
"68 122 OFFCURVE",
"75 122 OFFCURVE",
"83 124 CURVE",
"113 129 OFFCURVE",
"144 135 OFFCURVE",
"174 140 CURVE",
"190 143 OFFCURVE",
"206 143 OFFCURVE",
"219 157 CURVE",
"226 163 OFFCURVE",
"237 164 OFFCURVE",
"245 154 CURVE",
"249 148 OFFCURVE",
"255 145 OFFCURVE",
"260 140 CURVE",
"263 137 OFFCURVE",
"267 132 OFFCURVE",
"267 129 CURVE",
"261 106 OFFCURVE",
"256 82 OFFCURVE",
"249 59 CURVE",
"248 55 OFFCURVE",
"241 52 OFFCURVE",
"236 52 CURVE",
"169 42 OFFCURVE",
"102 35 OFFCURVE",
"40 3 CURVE",
"30 -2 OFFCURVE",
"22 0 OFFCURVE",
"16 9 CURVE",
"-1 34 OFFCURVE",
"-14 60 OFFCURVE",
"-9 92 CURVE",
"6 197 OFFCURVE",
"21 302 OFFCURVE",
"35 407 CURVE",
"41 449 OFFCURVE",
"41 493 OFFCURVE",
"44 536 CURVE",
"47 566 OFFCURVE",
"48 597 OFFCURVE",
"51 628 CURVE",
"52 632 OFFCURVE",
"56 637 OFFCURVE",
"59 641 CURVE",
"63 638 OFFCURVE",
"67 636 OFFCURVE",
"73 632 CURVE"
);
}
);
width = 310;
}
);
unicode = 0045;
},
{
glyphname = F;
lastChange = "2018-11-09 11:22:17 +0000";
layers = (
{
layerId = "05094513-8B3E-496E-80F7-D1F3E9D5BA68";
paths = (
{
closed = 1;
nodes = (
"130 371 OFFCURVE",
"158 375 OFFCURVE",
"186 379 CURVE",
"206 381 OFFCURVE",
"218 371 OFFCURVE",
"216 351 CURVE",
"214 331 OFFCURVE",
"213 311 OFFCURVE",
"209 292 CURVE",
"208 286 OFFCURVE",
"200 279 OFFCURVE",
"195 278 CURVE",
"160 273 OFFCURVE",
"125 268 OFFCURVE",
"90 265 CURVE",
"80 264 OFFCURVE",
"78 260 OFFCURVE",
"77 250 CURVE",
"71 186 OFFCURVE",
"64 122 OFFCURVE",
"58 57 CURVE",
"56 43 OFFCURVE",
"54 29 OFFCURVE",
"51 15 CURVE",
"47 -2 OFFCURVE",
"37 -5 OFFCURVE",
"27 8 CURVE",
"10 31 OFFCURVE",
"-3 54 OFFCURVE",
"1 86 CURVE",
"11 192 OFFCURVE",
"19 299 OFFCURVE",
"26 406 CURVE",
"29 457 OFFCURVE",
"27 509 OFFCURVE",
"27 561 CURVE",
"27 578 OFFCURVE",
"25 596 OFFCURVE",
"24 614 CURVE",
"22 630 OFFCURVE",
"32 635 OFFCURVE",
"46 637 CURVE",
"95 645 OFFCURVE",
"143 653 OFFCURVE",
"192 662 CURVE",
"222 668 OFFCURVE",
"252 675 OFFCURVE",
"282 682 CURVE",
"289 683 OFFCURVE",
"297 685 OFFCURVE",
"305 684 CURVE",
"322 682 OFFCURVE",
"327 671 OFFCURVE",
"323 655 CURVE",
"318 637 OFFCURVE",
"314 620 OFFCURVE",
"310 602 CURVE",
"308 590 OFFCURVE",
"303 584 OFFCURVE",
"290 582 CURVE",
"230 569 OFFCURVE",
"172 556 OFFCURVE",
"113 542 CURVE",
"104 540 OFFCURVE",
"95 538 OFFCURVE",
"88 533 CURVE",
"83 530 OFFCURVE",
"78 523 OFFCURVE",
"78 517 CURVE",
"78 475 OFFCURVE",
"81 432 OFFCURVE",
"81 389 CURVE",
"81 373 OFFCURVE",
"86 367 OFFCURVE",
"101 368 CURVE"
);
}
);
width = 271;
}
);
unicode = 0046;
},
{
glyphname = G;
lastChange = "2018-11-02 14:27:20 +0000";
layers = (
{
layerId = "05094513-8B3E-496E-80F7-D1F3E9D5BA68";
paths = (
{
closed = 1;
nodes = (
"262 235 OFFCURVE",
"245 230 OFFCURVE",
"228 222 CURVE",
"213 214 OFFCURVE",
"205 218 OFFCURVE",
"198 233 CURVE",
"176 276 OFFCURVE",
"180 294 OFFCURVE",
"223 316 CURVE",
"248 329 OFFCURVE",
"274 338 OFFCURVE",
"300 347 CURVE",
"328 356 OFFCURVE",
"343 343 OFFCURVE",
"341 314 CURVE",
"333 203 OFFCURVE",
"324 92 OFFCURVE",
"315 -19 CURVE",
"313 -53 OFFCURVE",
"310 -86 OFFCURVE",
"308 -120 CURVE",
"307 -126 OFFCURVE",
"307 -132 OFFCURVE",
"304 -138 CURVE",
"300 -147 OFFCURVE",
"294 -151 OFFCURVE",
"285 -140 CURVE",
"262 -109 OFFCURVE",
"249 -74 OFFCURVE",
"253 -34 CURVE",
"255 -11 OFFCURVE",
"258 11 OFFCURVE",
"261 34 CURVE",
"262 40 OFFCURVE",
"262 46 OFFCURVE",
"262 55 CURVE",
"243 45 OFFCURVE",
"227 37 OFFCURVE",
"211 27 CURVE",
"181 9 OFFCURVE",
"146 1 OFFCURVE",
"113 5 CURVE",
"71 9 OFFCURVE",
"44 37 OFFCURVE",
"28 75 CURVE",
"-4 147 OFFCURVE",
"-5 222 OFFCURVE",
"8 297 CURVE",
"19 359 OFFCURVE",
"32 422 OFFCURVE",
"55 480 CURVE",
"83 551 OFFCURVE",
"123 616 OFFCURVE",
"188 660 CURVE",
"257 705 OFFCURVE",
"308 670 OFFCURVE",
"328 601 CURVE",
"338 567 OFFCURVE",
"332 532 OFFCURVE",
"318 500 CURVE",
"315 493 OFFCURVE",
"307 488 OFFCURVE",
"301 482 CURVE",
"296 488 OFFCURVE",
"288 494 OFFCURVE",
"286 501 CURVE",
"282 512 OFFCURVE",
"281 525 OFFCURVE",
"279 537 CURVE",
"276 560 OFFCURVE",
"259 574 OFFCURVE",
"237 566 CURVE",
"215 557 OFFCURVE",
"192 545 OFFCURVE",
"175 529 CURVE",
"77 433 OFFCURVE",
"55 310 OFFCURVE",
"55 180 CURVE",
"56 120 OFFCURVE",
"111 93 OFFCURVE",
"154 104 CURVE",
"186 112 OFFCURVE",
"217 130 OFFCURVE",
"248 144 CURVE",
"292 163 OFFCURVE",
"277 204 OFFCURVE",
"284 236 CURVE",
"282 238 OFFCURVE",
"281 240 OFFCURVE",
"279 241 CURVE"
);
}
);
width = 391;
}
);
unicode = 0047;
},
{
glyphname = H;
lastChange = "2018-11-30 11:32:23 +0000";
layers = (
{
layerId = "05094513-8B3E-496E-80F7-D1F3E9D5BA68";
paths = (
{
closed = 1;
nodes = (
"30 22 OFFCURVE",
"23 45 OFFCURVE",
"14 68 CURVE",
"-4 116 OFFCURVE",
"3 166 OFFCURVE",
"4 215 CURVE",
"6 364 OFFCURVE",
"11 513 OFFCURVE",
"15 662 CURVE",
"15 668 OFFCURVE",
"16 673 OFFCURVE",
"17 679 CURVE",
"52 670 OFFCURVE",
"51 642 OFFCURVE",
"52 617 CURVE",
"54 550 OFFCURVE",
"54 484 OFFCURVE",
"54 418 CURVE",
"54 400 OFFCURVE",
"59 395 OFFCURVE",
"77 397 CURVE",
"111 400 OFFCURVE",
"146 402 OFFCURVE",
"180 403 CURVE",
"190 404 OFFCURVE",
"200 399 OFFCURVE",
"211 396 CURVE",
"211 398 OFFCURVE",
"213 402 OFFCURVE",
"213 407 CURVE",
"213 481 OFFCURVE",
"213 554 OFFCURVE",
"213 628 CURVE",
"213 643 OFFCURVE",
"213 658 OFFCURVE",
"214 673 CURVE",
"215 677 OFFCURVE",
"217 682 OFFCURVE",
"220 688 CURVE",
"236 670 OFFCURVE",
"249 657 OFFCURVE",
"253 633 CURVE",
"269 534 OFFCURVE",
"269 436 OFFCURVE",
"267 336 CURVE",
"265 268 OFFCURVE",
"261 200 OFFCURVE",
"261 132 CURVE",
"261 98 OFFCURVE",
"263 64 OFFCURVE",
"253 31 CURVE",
"251 24 OFFCURVE",
"246 19 OFFCURVE",
"242 13 CURVE",
"237 17 OFFCURVE",
"230 20 OFFCURVE",
"227 26 CURVE",
"204 60 OFFCURVE",
"194 96 OFFCURVE",
"198 137 CURVE",
"202 184 OFFCURVE",
"205 230 OFFCURVE",
"208 277 CURVE",
"208 284 OFFCURVE",
"209 291 OFFCURVE",
"207 299 CURVE",
"200 281 OFFCURVE",
"184 281 OFFCURVE",
"170 280 CURVE",
"139 277 OFFCURVE",
"109 275 OFFCURVE",
"78 273 CURVE",
"62 273 OFFCURVE",
"57 267 OFFCURVE",
"58 250 CURVE",
"60 192 OFFCURVE",
"62 134 OFFCURVE",
"63 75 CURVE",
"63 53 OFFCURVE",
"59 30 OFFCURVE",
"56 3 CURVE"
);
}
);
width = 286;
}
);
unicode = 0048;
},
{
glyphname = I;
lastChange = "2018-11-09 11:00:06 +0000";
layers = (
{
layerId = "05094513-8B3E-496E-80F7-D1F3E9D5BA68";
paths = (
{
closed = 1;
nodes = (
"66 70 OFFCURVE",
"65 49 OFFCURVE",
"63 28 CURVE",
"62 21 OFFCURVE",
"55 15 OFFCURVE",
"51 9 CURVE",
"46 13 OFFCURVE",
"40 17 OFFCURVE",
"36 22 CURVE",
"6 56 OFFCURVE",
"3 97 OFFCURVE",
"3 139 CURVE",
"3 304 OFFCURVE",
"1 468 OFFCURVE",
"1 632 CURVE",
"0 647 OFFCURVE",
"0 662 OFFCURVE",
"1 676 CURVE",
"1 681 OFFCURVE",
"6 687 OFFCURVE",
"10 688 CURVE",
"14 689 OFFCURVE",
"20 684 OFFCURVE",
"23 680 CURVE",
"47 654 OFFCURVE",
"44 621 OFFCURVE",
"46 591 CURVE",
"51 511 OFFCURVE",
"53 430 OFFCURVE",
"56 350 CURVE",
"59 273 OFFCURVE",
"61 197 OFFCURVE",
"63 121 CURVE",
"63 111 OFFCURVE",
"66 102 OFFCURVE",
"67 90 CURVE"
);
}
);
width = 97;
}
);
unicode = 0049;
},
{
glyphname = J;
lastChange = "2018-11-09 10:42:23 +0000";
layers = (
{
layerId = "05094513-8B3E-496E-80F7-D1F3E9D5BA68";
paths = (
{
closed = 1;
nodes = (
"75 251 OFFCURVE",
"91 242 OFFCURVE",
"85 222 CURVE",
"80 206 OFFCURVE",
"78 188 OFFCURVE",
"71 172 CURVE",
"59 147 OFFCURVE",
"58 142 OFFCURVE",
"78 122 CURVE",
"104 95 OFFCURVE",
"133 72 OFFCURVE",
"172 70 CURVE",
"217 67 OFFCURVE",
"243 90 OFFCURVE",
"249 135 CURVE",
"256 180 OFFCURVE",
"252 224 OFFCURVE",
"244 269 CURVE",
"226 372 OFFCURVE",
"210 476 OFFCURVE",
"207 581 CURVE",
"207 585 OFFCURVE",
"206 590 OFFCURVE",
"205 598 CURVE",
"172 591 OFFCURVE",
"141 586 OFFCURVE",
"110 579 CURVE",
"56 566 OFFCURVE",
"48 570 OFFCURVE",
"38 623 CURVE",
"35 638 OFFCURVE",
"34 653 OFFCURVE",
"34 667 CURVE",
"33 682 OFFCURVE",
"41 692 OFFCURVE",
"57 692 CURVE",
"118 692 OFFCURVE",
"177 706 OFFCURVE",
"236 721 CURVE",
"256 726 OFFCURVE",
"271 715 OFFCURVE",
"269 694 CURVE",
"268 667 OFFCURVE",
"262 641 OFFCURVE",
"261 615 CURVE",
"258 526 OFFCURVE",
"274 439 OFFCURVE",
"286 352 CURVE",
"295 289 OFFCURVE",
"306 227 OFFCURVE",
"310 164 CURVE",
"313 126 OFFCURVE",
"307 87 OFFCURVE",
"297 51 CURVE",
"284 2 OFFCURVE",
"256 -22 OFFCURVE",
"198 -21 CURVE",
"111 -20 OFFCURVE",
"33 52 OFFCURVE",
"17 106 CURVE",
"11 126 OFFCURVE",
"6 145 OFFCURVE",
"1 165 CURVE",
"0 170 OFFCURVE",
"0 176 OFFCURVE",
"1 181 CURVE",
"7 221 OFFCURVE",
"32 247 OFFCURVE",
"66 267 CURVE"
);
}
);
width = 331;
}
);
unicode = 004A;
},
{
glyphname = K;
lastChange = "2018-11-09 11:25:11 +0000";
layers = (
{
layerId = "05094513-8B3E-496E-80F7-D1F3E9D5BA68";
paths = (
{
closed = 1;
nodes = (
"117 434 OFFCURVE",
"144 468 OFFCURVE",
"168 503 CURVE",
"213 572 OFFCURVE",
"255 642 OFFCURVE",
"284 719 CURVE",
"288 732 OFFCURVE",
"298 740 OFFCURVE",
"310 737 CURVE",
"317 736 OFFCURVE",
"323 725 OFFCURVE",
"326 718 CURVE",
"338 680 OFFCURVE",
"329 644 OFFCURVE",
"314 609 CURVE",
"294 566 OFFCURVE",
"272 523 OFFCURVE",
"248 481 CURVE",
"232 452 OFFCURVE",
"211 425 OFFCURVE",
"191 398 CURVE",
"182 386 OFFCURVE",
"184 380 OFFCURVE",
"196 374 CURVE",
"289 327 OFFCURVE",
"339 248 OFFCURVE",
"360 148 CURVE",
"370 99 OFFCURVE",
"381 51 OFFCURVE",
"376 1 CURVE",
"375 -7 OFFCURVE",
"370 -14 OFFCURVE",
"367 -22 CURVE",
"361 -18 OFFCURVE",
"353 -16 OFFCURVE",
"348 -10 CURVE",
"330 14 OFFCURVE",
"318 41 OFFCURVE",
"315 73 CURVE",
"311 112 OFFCURVE",
"305 152 OFFCURVE",
"290 188 CURVE",
"273 227 OFFCURVE",
"236 251 OFFCURVE",
"195 266 CURVE",
"164 277 OFFCURVE",
"134 264 OFFCURVE",
"104 256 CURVE",
"100 255 OFFCURVE",
"97 243 OFFCURVE",
"97 237 CURVE",
"97 178 OFFCURVE",
"98 119 OFFCURVE",
"98 60 CURVE",
"98 44 OFFCURVE",
"96 28 OFFCURVE",
"93 12 CURVE",
"92 1 OFFCURVE",
"85 -5 OFFCURVE",
"75 6 CURVE",
"53 30 OFFCURVE",
"38 56 OFFCURVE",
"38 92 CURVE",
"38 173 OFFCURVE",
"38 255 OFFCURVE",
"34 337 CURVE",
"30 419 OFFCURVE",
"21 501 OFFCURVE",
"13 583 CURVE",
"9 620 OFFCURVE",
"3 656 OFFCURVE",
"0 693 CURVE",
"-1 699 OFFCURVE",
"6 706 OFFCURVE",
"10 713 CURVE",
"14 708 OFFCURVE",
"20 704 OFFCURVE",
"23 699 CURVE",
"65 638 OFFCURVE",
"61 565 OFFCURVE",
"73 497 CURVE",
"78 466 OFFCURVE",
"81 434 OFFCURVE",
"85 402 CURVE",
"87 401 OFFCURVE",
"90 401 OFFCURVE",
"92 400 CURVE"
);
}
);
width = 397;
}
);
unicode = 004B;
},
{
glyphname = L;
lastChange = "2018-11-09 11:25:46 +0000";
layers = (
{
layerId = "05094513-8B3E-496E-80F7-D1F3E9D5BA68";
paths = (
{
closed = 1;
nodes = (
"19 721 OFFCURVE",
"30 713 OFFCURVE",
"34 695 CURVE",
"53 583 OFFCURVE",
"59 471 OFFCURVE",
"62 358 CURVE",
"63 284 OFFCURVE",
"65 209 OFFCURVE",
"67 135 CURVE",
"67 134 OFFCURVE",
"68 132 OFFCURVE",
"69 128 CURVE",
"74 129 OFFCURVE",
"79 129 OFFCURVE",
"82 131 CURVE",
"136 153 OFFCURVE",
"194 151 OFFCURVE",
"252 152 CURVE",
"270 153 OFFCURVE",
"274 147 OFFCURVE",
"274 128 CURVE",
"273 108 OFFCURVE",
"274 89 OFFCURVE",
"274 69 CURVE",
"274 57 OFFCURVE",
"271 52 OFFCURVE",
"256 53 CURVE",
"188 54 OFFCURVE",
"121 54 OFFCURVE",
"65 7 CURVE",
"53 -3 OFFCURVE",
"44 -3 OFFCURVE",
"37 11 CURVE",
"33 17 OFFCURVE",
"27 23 OFFCURVE",
"24 29 CURVE",
"7 53 OFFCURVE",
"6 78 OFFCURVE",
"8 107 CURVE",
"12 162 OFFCURVE",
"11 217 OFFCURVE",
"11 271 CURVE",
"11 372 OFFCURVE",
"9 473 OFFCURVE",
"6 574 CURVE",
"5 619 OFFCURVE",
"2 664 OFFCURVE",
"0 709 CURVE",
"-1 714 OFFCURVE",
"1 721 OFFCURVE",
"1 729 CURVE"
);
}
);
width = 304;
}
);
unicode = 004C;
},
{
glyphname = M;
lastChange = "2018-11-09 11:31:01 +0000";
layers = (
{
layerId = "05094513-8B3E-496E-80F7-D1F3E9D5BA68";
paths = (
{
closed = 1;
nodes = (
"182 430 OFFCURVE",
"184 435 OFFCURVE",
"186 441 CURVE",
"204 496 OFFCURVE",
"221 552 OFFCURVE",
"239 607 CURVE",
"246 630 OFFCURVE",
"253 652 OFFCURVE",
"262 674 CURVE",
"265 681 OFFCURVE",
"276 689 OFFCURVE",
"282 688 CURVE",
"291 686 OFFCURVE",
"305 678 OFFCURVE",
"306 671 CURVE",
"319 608 OFFCURVE",
"333 545 OFFCURVE",
"339 482 CURVE",
"348 391 OFFCURVE",
"351 300 OFFCURVE",
"357 209 CURVE",
"360 169 OFFCURVE",
"367 129 OFFCURVE",
"370 89 CURVE",
"371 75 OFFCURVE",
"368 60 OFFCURVE",
"365 46 CURVE",
"364 40 OFFCURVE",
"359 33 OFFCURVE",
"354 30 CURVE",
"352 29 OFFCURVE",
"343 35 OFFCURVE",
"340 39 CURVE",
"319 66 OFFCURVE",
"307 97 OFFCURVE",
"305 131 CURVE",
"298 244 OFFCURVE",
"291 358 OFFCURVE",
"284 472 CURVE",
"284 481 OFFCURVE",
"283 490 OFFCURVE",
"283 498 CURVE",
"281 499 OFFCURVE",
"279 499 OFFCURVE",
"278 499 CURVE",
"274 489 OFFCURVE",
"270 479 OFFCURVE",
"267 469 CURVE",
"253 425 OFFCURVE",
"239 381 OFFCURVE",
"227 337 CURVE",
"220 313 OFFCURVE",
"217 287 OFFCURVE",
"212 262 CURVE",
"210 252 OFFCURVE",
"210 241 OFFCURVE",
"195 239 CURVE",
"180 236 OFFCURVE",
"175 245 OFFCURVE",
"171 256 CURVE",
"155 302 OFFCURVE",
"139 349 OFFCURVE",
"123 395 CURVE",
"111 427 OFFCURVE",
"99 458 OFFCURVE",
"86 490 CURVE",
"84 497 OFFCURVE",
"80 503 OFFCURVE",
"76 509 CURVE",
"75 509 OFFCURVE",
"73 508 OFFCURVE",
"71 508 CURVE",
"73 478 OFFCURVE",
"75 447 OFFCURVE",
"77 417 CURVE",
"84 319 OFFCURVE",
"91 221 OFFCURVE",
"79 123 CURVE",
"77 99 OFFCURVE",
"73 74 OFFCURVE",
"68 50 CURVE",
"64 34 OFFCURVE",
"55 31 OFFCURVE",
"45 43 CURVE",
"25 69 OFFCURVE",
"10 96 OFFCURVE",
"13 132 CURVE",
"18 195 OFFCURVE",
"24 259 OFFCURVE",
"23 322 CURVE",
"22 412 OFFCURVE",
"16 501 OFFCURVE",
"10 590 CURVE",
"9 615 OFFCURVE",
"3 640 OFFCURVE",
"0 665 CURVE",
"-3 691 OFFCURVE",
"8 695 OFFCURVE",
"34 690 CURVE",
"62 684 OFFCURVE",
"69 666 OFFCURVE",
"78 644 CURVE",
"87 618 OFFCURVE",
"103 594 OFFCURVE",
"114 568 CURVE",
"132 526 OFFCURVE",
"148 484 OFFCURVE",
"165 442 CURVE",
"168 436 OFFCURVE",
"171 430 OFFCURVE",
"174 424 CURVE",
"176 424 OFFCURVE",
"177 424 OFFCURVE",
"179 424 CURVE"
);
}
);
width = 380;
}
);
unicode = 004D;
},
{
glyphname = N;
lastChange = "2018-11-09 11:30:35 +0000";
layers = (
{
layerId = "05094513-8B3E-496E-80F7-D1F3E9D5BA68";
paths = (
{
closed = 1;
nodes = (
"12 663 OFFCURVE",
"19 667 OFFCURVE",
"27 668 CURVE",
"39 669 OFFCURVE",
"48 667 OFFCURVE",
"53 652 CURVE",
"81 579 OFFCURVE",
"92 500 OFFCURVE",
"120 427 CURVE",
"139 380 OFFCURVE",
"154 332 OFFCURVE",
"171 284 CURVE",
"173 279 OFFCURVE",
"175 276 OFFCURVE",
"182 273 CURVE",
"185 298 OFFCURVE",
"188 323 OFFCURVE",
"189 348 CURVE",
"194 440 OFFCURVE",
"199 533 OFFCURVE",
"228 622 CURVE",
"235 642 OFFCURVE",
"240 662 OFFCURVE",
"252 676 CURVE",
"265 694 OFFCURVE",
"285 706 OFFCURVE",
"303 718 CURVE",
"306 720 OFFCURVE",
"322 712 OFFCURVE",
"325 707 CURVE",
"334 685 OFFCURVE",
"338 662 OFFCURVE",
"332 637 CURVE",
"328 618 OFFCURVE",
"320 602 OFFCURVE",
"302 589 CURVE",
"272 569 OFFCURVE",
"264 532 OFFCURVE",
"256 497 CURVE",
"240 416 OFFCURVE",
"242 336 OFFCURVE",
"243 254 CURVE",
"245 165 OFFCURVE",
"245 75 OFFCURVE",
"245 -14 CURVE",
"245 -21 OFFCURVE",
"241 -29 OFFCURVE",
"237 -33 CURVE",
"233 -35 OFFCURVE",
"223 -33 OFFCURVE",
"218 -28 CURVE",
"195 -10 OFFCURVE",
"179 14 OFFCURVE",
"171 43 CURVE",
"154 114 OFFCURVE",
"138 186 OFFCURVE",
"118 256 CURVE",
"105 303 OFFCURVE",
"88 349 OFFCURVE",
"73 395 CURVE",
"71 397 OFFCURVE",
"70 399 OFFCURVE",
"65 401 CURVE",
"68 369 OFFCURVE",
"74 337 OFFCURVE",
"76 306 CURVE",
"82 214 OFFCURVE",
"87 124 OFFCURVE",
"91 33 CURVE",
"92 29 OFFCURVE",
"91 26 OFFCURVE",
"91 23 CURVE",
"88 4 OFFCURVE",
"79 0 OFFCURVE",
"66 13 CURVE",
"46 34 OFFCURVE",
"30 57 OFFCURVE",
"28 86 CURVE",
"19 210 OFFCURVE",
"8 334 OFFCURVE",
"2 457 CURVE",
"-2 522 OFFCURVE",
"1 587 OFFCURVE",
"1 651 CURVE",
"1 656 OFFCURVE",
"2 660 OFFCURVE",
"2 661 CURVE"
);
}
);
width = 285;
}
);
unicode = 004E;
},
{
glyphname = O;
lastChange = "2018-11-09 11:00:36 +0000";
layers = (
{
layerId = "05094513-8B3E-496E-80F7-D1F3E9D5BA68";
paths = (
{
closed = 1;
nodes = (
"10 369 OFFCURVE",
"36 441 OFFCURVE",
"68 511 CURVE",
"93 567 OFFCURVE",
"123 619 OFFCURVE",
"174 654 CURVE",
"200 672 OFFCURVE",
"227 688 OFFCURVE",
"256 699 CURVE",
"284 711 OFFCURVE",
"312 699 OFFCURVE",
"338 689 CURVE",
"416 659 OFFCURVE",
"461 600 OFFCURVE",
"488 524 CURVE",
"515 446 OFFCURVE",
"504 370 OFFCURVE",
"483 294 CURVE",
"462 222 OFFCURVE",
"437 153 OFFCURVE",
"392 93 CURVE",
"354 41 OFFCURVE",
"301 21 OFFCURVE",
"239 18 CURVE",
"120 13 OFFCURVE",
"54 98 OFFCURVE",
"19 190 CURVE",
"11 212 OFFCURVE",
"6 235 OFFCURVE",
"2 258 CURVE",
"-1 269 OFFCURVE",
"1 280 OFFCURVE",
"1 291 CURVE"
);
},
{
closed = 1;
nodes = (
"452 437 OFFCURVE",
"453 448 OFFCURVE",
"449 457 CURVE",
"425 518 OFFCURVE",
"390 568 OFFCURVE",
"322 586 CURVE",
"310 589 OFFCURVE",
"301 591 OFFCURVE",
"297 575 CURVE",
"295 567 OFFCURVE",
"287 561 OFFCURVE",
"279 571 CURVE",
"270 582 OFFCURVE",
"259 580 OFFCURVE",
"247 577 CURVE",
"196 562 OFFCURVE",
"162 525 OFFCURVE",
"134 482 CURVE",
"93 420 OFFCURVE",
"74 349 OFFCURVE",
"60 277 CURVE",
"58 263 OFFCURVE",
"54 245 OFFCURVE",
"60 234 CURVE",
"95 166 OFFCURVE",
"147 121 OFFCURVE",
"228 123 CURVE",
"269 124 OFFCURVE",
"311 127 OFFCURVE",
"340 159 CURVE",
"362 183 OFFCURVE",
"378 212 OFFCURVE",
"392 241 CURVE",
"422 300 OFFCURVE",
"443 361 OFFCURVE",
"452 429 CURVE"
);
}
);
width = 514;
}
);
unicode = 004F;
},
{
glyphname = Odieresis;
lastChange = "2018-11-02 14:56:29 +0000";
layers = (
{
layerId = "05094513-8B3E-496E-80F7-D1F3E9D5BA68";
paths = (
{
closed = 1;
nodes = (
"17 402 OFFCURVE",
"76 530 OFFCURVE",
"198 623 CURVE",
"217 637 OFFCURVE",
"233 657 OFFCURVE",
"261 653 CURVE",
"263 653 OFFCURVE",
"268 658 OFFCURVE",
"269 661 CURVE",
"270 676 OFFCURVE",
"281 679 OFFCURVE",
"291 678 CURVE",
"326 677 OFFCURVE",
"358 668 OFFCURVE",
"380 638 CURVE",
"401 612 OFFCURVE",
"421 586 OFFCURVE",
"442 560 CURVE",
"470 524 OFFCURVE",
"475 480 OFFCURVE",
"486 439 CURVE",
"495 398 OFFCURVE",
"485 359 OFFCURVE",
"475 320 CURVE",
"463 273 OFFCURVE",
"453 225 OFFCURVE",
"440 178 CURVE",
"421 116 OFFCURVE",
"393 60 OFFCURVE",
"346 15 CURVE",
"315 -15 OFFCURVE",
"278 -28 OFFCURVE",
"236 -27 CURVE",
"203 -26 OFFCURVE",
"172 -24 OFFCURVE",
"140 -19 CURVE",
"86 -12 OFFCURVE",
"52 24 OFFCURVE",
"33 73 CURVE",
"11 130 OFFCURVE",
"-4 189 OFFCURVE",
"2 268 CURVE"
);
},
{
closed = 1;
nodes = (
"426 430 OFFCURVE",
"371 531 OFFCURVE",
"323 555 CURVE",
"312 560 OFFCURVE",
"301 566 OFFCURVE",
"291 549 CURVE",
"289 544 OFFCURVE",
"281 542 OFFCURVE",
"275 539 CURVE",
"264 534 OFFCURVE",
"250 530 OFFCURVE",
"240 522 CURVE",
"165 467 OFFCURVE",
"102 402 OFFCURVE",
"76 307 CURVE",
"63 259 OFFCURVE",
"55 211 OFFCURVE",
"68 162 CURVE",
"76 139 OFFCURVE",
"83 115 OFFCURVE",
"109 105 CURVE",
"150 88 OFFCURVE",
"191 73 OFFCURVE",
"236 75 CURVE",
"280 78 OFFCURVE",
"316 97 OFFCURVE",
"341 134 CURVE",
"393 207 OFFCURVE",
"398 295 OFFCURVE",
"421 365 CURVE"
);
},
{
closed = 1;
nodes = (
"363 871 OFFCURVE",
"370 833 OFFCURVE",
"371 794 CURVE",
"372 780 OFFCURVE",
"364 764 OFFCURVE",
"359 749 CURVE",
"357 745 OFFCURVE",
"347 742 OFFCURVE",
"340 742 CURVE",
"336 743 OFFCURVE",
"330 749 OFFCURVE",
"328 755 CURVE",
"313 803 OFFCURVE",
"311 852 OFFCURVE",
"326 901 CURVE",
"329 913 OFFCURVE",
"331 923 OFFCURVE",
"336 934 CURVE",
"340 941 OFFCURVE",
"348 946 OFFCURVE",
"353 952 CURVE",
"360 946 OFFCURVE",
"370 940 OFFCURVE",
"375 931 CURVE",
"379 925 OFFCURVE",
"377 916 OFFCURVE",
"378 907 CURVE"
);
},
{
closed = 1;
nodes = (
"250 769 OFFCURVE",
"254 746 OFFCURVE",
"233 739 CURVE",
"222 735 OFFCURVE",
"216 737 OFFCURVE",
"214 748 CURVE",
"205 794 OFFCURVE",
"197 841 OFFCURVE",
"207 888 CURVE",
"210 895 OFFCURVE",
"216 903 OFFCURVE",
"221 904 CURVE",
"227 905 OFFCURVE",
"237 901 OFFCURVE",
"243 897 CURVE",
"247 894 OFFCURVE",
"250 885 OFFCURVE",
"251 880 CURVE",
"255 848 OFFCURVE",
"257 816 OFFCURVE",
"260 784 CURVE"
);
}
);
width = 540;
}
);
unicode = 00D6;
},
{
glyphname = P;
lastChange = "2018-11-09 11:01:15 +0000";
layers = (
{
layerId = "05094513-8B3E-496E-80F7-D1F3E9D5BA68";
paths = (
{
closed = 1;
nodes = (
"91 201 OFFCURVE",
"96 164 OFFCURVE",
"100 127 CURVE",
"103 94 OFFCURVE",
"105 60 OFFCURVE",
"107 26 CURVE",
"107 20 OFFCURVE",
"106 14 OFFCURVE",
"103 9 CURVE",
"100 2 OFFCURVE",
"93 -4 OFFCURVE",
"86 4 CURVE",
"64 28 OFFCURVE",
"45 54 OFFCURVE",
"43 89 CURVE",
"39 151 OFFCURVE",
"32 212 OFFCURVE",
"28 273 CURVE",
"24 355 OFFCURVE",
"22 437 OFFCURVE",
"19 519 CURVE",
"18 532 OFFCURVE",
"17 546 OFFCURVE",
"11 557 CURVE",
"-29 647 OFFCURVE",
"44 706 OFFCURVE",
"113 715 CURVE",
"193 725 OFFCURVE",
"261 701 OFFCURVE",
"319 646 CURVE",
"349 618 OFFCURVE",
"364 581 OFFCURVE",
"378 543 CURVE",
"400 485 OFFCURVE",
"406 424 OFFCURVE",
"403 362 CURVE",
"400 313 OFFCURVE",
"367 251 OFFCURVE",
"300 243 CURVE",
"249 237 OFFCURVE",
"198 232 OFFCURVE",
"147 229 CURVE",
"128 228 OFFCURVE",
"108 234 OFFCURVE",
"87 238 CURVE"
);
},
{
closed = 1;
nodes = (
"133 606 OFFCURVE",
"100 602 OFFCURVE",
"73 580 CURVE",
"65 574 OFFCURVE",
"61 567 OFFCURVE",
"62 555 CURVE",
"67 490 OFFCURVE",
"72 425 OFFCURVE",
"76 360 CURVE",
"77 348 OFFCURVE",
"82 341 OFFCURVE",
"92 338 CURVE",
"100 335 OFFCURVE",
"108 333 OFFCURVE",
"116 332 CURVE",
"179 327 OFFCURVE",
"241 334 OFFCURVE",
"302 350 CURVE",
"313 352 OFFCURVE",
"324 360 OFFCURVE",
"331 369 CURVE",
"362 411 OFFCURVE",
"363 459 OFFCURVE",
"342 503 CURVE",
"308 576 OFFCURVE",
"243 604 OFFCURVE",
"172 608 CURVE"
);
}
);
width = 424;
}
);
unicode = 0050;
},
{
glyphname = Q;
lastChange = "2018-11-09 10:08:05 +0000";
layers = (
{
layerId = "05094513-8B3E-496E-80F7-D1F3E9D5BA68";
paths = (
{
closed = 1;
nodes = (
"465 269 OFFCURVE",
"452 188 OFFCURVE",
"411 113 CURVE",
"406 103 OFFCURVE",
"406 96 OFFCURVE",
"413 87 CURVE",
"428 65 OFFCURVE",
"445 43 OFFCURVE",
"457 19 CURVE",
"464 4 OFFCURVE",
"466 -14 OFFCURVE",
"465 -30 CURVE",
"465 -46 OFFCURVE",
"459 -63 OFFCURVE",
"455 -79 CURVE",
"453 -83 OFFCURVE",
"448 -87 OFFCURVE",
"444 -91 CURVE",
"440 -87 OFFCURVE",
"436 -84 OFFCURVE",
"433 -80 CURVE",
"407 -43 OFFCURVE",
"381 -5 OFFCURVE",
"356 33 CURVE",
"350 41 OFFCURVE",
"345 40 OFFCURVE",
"336 36 CURVE",
"283 12 OFFCURVE",
"229 1 OFFCURVE",
"171 14 CURVE",
"117 27 OFFCURVE",
"80 61 OFFCURVE",
"52 106 CURVE",
"36 134 OFFCURVE",
"22 164 OFFCURVE",
"13 195 CURVE",
"-5 251 OFFCURVE",
"-3 308 OFFCURVE",
"9 365 CURVE",
"22 427 OFFCURVE",
"38 488 OFFCURVE",
"68 545 CURVE",
"98 600 OFFCURVE",
"134 649 OFFCURVE",
"187 684 CURVE",
"210 700 OFFCURVE",
"238 699 OFFCURVE",
"260 683 CURVE",
"264 680 OFFCURVE",
"269 675 OFFCURVE",
"270 671 CURVE",
"271 642 OFFCURVE",
"291 630 OFFCURVE",
"313 617 CURVE",
"359 588 OFFCURVE",
"398 553 OFFCURVE",
"427 507 CURVE",
"458 459 OFFCURVE",
"465 407 OFFCURVE",
"470 352 CURVE"
);
},
{
closed = 1;
nodes = (
"358 172 OFFCURVE",
"360 175 OFFCURVE",
"362 177 CURVE",
"390 224 OFFCURVE",
"405 276 OFFCURVE",
"413 330 CURVE",
"420 371 OFFCURVE",
"414 410 OFFCURVE",
"382 440 CURVE",
"363 458 OFFCURVE",
"344 477 OFFCURVE",
"323 492 CURVE",
"306 505 OFFCURVE",
"286 518 OFFCURVE",
"266 524 CURVE",
"249 528 OFFCURVE",
"247 538 OFFCURVE",
"243 550 CURVE",
"242 553 OFFCURVE",
"243 555 OFFCURVE",
"242 558 CURVE",
"238 581 OFFCURVE",
"231 585 OFFCURVE",
"209 577 CURVE",
"168 562 OFFCURVE",
"142 529 OFFCURVE",
"120 494 CURVE",
"107 472 OFFCURVE",
"98 448 OFFCURVE",
"90 425 CURVE",
"71 376 OFFCURVE",
"60 326 OFFCURVE",
"55 275 CURVE",
"45 189 OFFCURVE",
"112 121 OFFCURVE",
"183 113 CURVE",
"218 109 OFFCURVE",
"253 113 OFFCURVE",
"287 123 CURVE",
"291 124 OFFCURVE",
"294 127 OFFCURVE",
"297 129 CURVE",
"279 162 OFFCURVE",
"282 196 OFFCURVE",
"282 230 CURVE",
"282 239 OFFCURVE",
"293 247 OFFCURVE",
"299 256 CURVE",
"304 250 OFFCURVE",
"310 245 OFFCURVE",
"314 238 CURVE",
"327 216 OFFCURVE",
"340 193 OFFCURVE",
"354 167 CURVE"
);
}
);
width = 500;
}
);
unicode = 0051;
},
{
glyphname = R;
lastChange = "2018-11-30 11:36:03 +0000";
layers = (
{
layerId = "05094513-8B3E-496E-80F7-D1F3E9D5BA68";
paths = (
{
closed = 1;
nodes = (
"264 339 OFFCURVE",
"276 353 OFFCURVE",
"286 370 CURVE",
"311 408 OFFCURVE",
"331 449 OFFCURVE",
"337 495 CURVE",
"341 516 OFFCURVE",
"337 531 OFFCURVE",
"318 542 CURVE",
"306 551 OFFCURVE",
"299 569 OFFCURVE",
"281 570 CURVE",
"263 571 OFFCURVE",
"244 572 OFFCURVE",
"225 569 CURVE",
"117 556 OFFCURVE",
"36 499 OFFCURVE",
"-23 410 CURVE",
"-32 396 OFFCURVE",
"-31 376 OFFCURVE",
"-36 359 CURVE",
"-37 356 OFFCURVE",
"-37 352 OFFCURVE",
"-39 348 CURVE",
"-43 350 OFFCURVE",
"-47 351 OFFCURVE",
"-51 353 CURVE",
"-53 355 OFFCURVE",
"-57 358 OFFCURVE",
"-57 361 CURVE",
"-68 401 OFFCURVE",
"-76 442 OFFCURVE",
"-63 483 CURVE",
"-56 505 OFFCURVE",
"-37 525 OFFCURVE",
"-20 544 CURVE",
"33 603 OFFCURVE",
"98 643 OFFCURVE",
"176 663 CURVE",
"203 670 OFFCURVE",
"233 672 OFFCURVE",
"262 671 CURVE",
"291 671 OFFCURVE",
"316 656 OFFCURVE",
"336 636 CURVE",
"390 583 OFFCURVE",
"397 517 OFFCURVE",
"382 449 CURVE",
"374 410 OFFCURVE",
"359 373 OFFCURVE",
"348 335 CURVE",
"347 333 OFFCURVE",
"346 330 OFFCURVE",
"345 327 CURVE",
"330 302 OFFCURVE",
"330 302 OFFCURVE",
"348 281 CURVE",
"382 237 OFFCURVE",
"400 186 OFFCURVE",
"410 134 CURVE",
"427 60 OFFCURVE",
"425 -14 OFFCURVE",
"421 -88 CURVE",
"421 -100 OFFCURVE",
"421 -113 OFFCURVE",
"420 -124 CURVE",
"420 -130 OFFCURVE",
"417 -136 OFFCURVE",
"412 -138 CURVE",
"410 -140 OFFCURVE",
"402 -136 OFFCURVE",
"400 -133 CURVE",
"377 -106 OFFCURVE",
"357 -79 OFFCURVE",
"361 -39 CURVE",
"368 19 OFFCURVE",
"368 78 OFFCURVE",
"358 136 CURVE",
"357 142 OFFCURVE",
"355 147 OFFCURVE",
"354 152 CURVE",
"341 209 OFFCURVE",
"298 217 OFFCURVE",
"254 206 CURVE",
"239 202 OFFCURVE",
"233 194 OFFCURVE",
"232 179 CURVE",
"229 144 OFFCURVE",
"224 110 OFFCURVE",
"220 76 CURVE",
"220 71 OFFCURVE",
"214 67 OFFCURVE",
"211 62 CURVE",
"207 66 OFFCURVE",
"202 69 OFFCURVE",
"198 74 CURVE",
"191 84 OFFCURVE",
"184 94 OFFCURVE",
"178 105 CURVE",
"164 131 OFFCURVE",
"161 156 OFFCURVE",
"171 186 CURVE",
"180 215 OFFCURVE",
"178 246 OFFCURVE",
"181 276 CURVE",
"185 311 OFFCURVE",
"192 345 OFFCURVE",
"193 380 CURVE",
"196 415 OFFCURVE",
"196 451 OFFCURVE",
"196 487 CURVE",
"196 505 OFFCURVE",
"202 514 OFFCURVE",
"220 514 CURVE",
"233 515 OFFCURVE",
"237 504 OFFCURVE",
"241 492 CURVE",
"254 441 OFFCURVE",
"248 391 OFFCURVE",
"247 339 CURVE",
"247 335 OFFCURVE",
"247 332 OFFCURVE",
"247 327 CURVE",
"247 326 OFFCURVE",
"248 325 OFFCURVE",
"251 321 CURVE"
);
}
);
width = 436;
}
);
unicode = 0052;
},
{
glyphname = S;
lastChange = "2018-11-30 11:49:53 +0000";
layers = (
{
layerId = "05094513-8B3E-496E-80F7-D1F3E9D5BA68";
paths = (
{
closed = 1;
nodes = (
"68 -59 OFFCURVE",
"88 -69 OFFCURVE",
"107 -72 CURVE",
"133 -76 OFFCURVE",
"159 -77 OFFCURVE",
"185 -76 CURVE",
"209 -75 OFFCURVE",
"221 -63 OFFCURVE",
"222 -40 CURVE",
"222 -4 OFFCURVE",
"222 31 OFFCURVE",
"220 66 CURVE",
"215 127 OFFCURVE",
"208 189 OFFCURVE",
"202 251 CURVE",
"187 240 OFFCURVE",
"173 228 OFFCURVE",
"156 218 CURVE",
"132 201 OFFCURVE",
"97 204 OFFCURVE",
"84 225 CURVE",
"75 238 OFFCURVE",
"67 254 OFFCURVE",
"63 269 CURVE",
"57 299 OFFCURVE",
"50 329 OFFCURVE",
"51 359 CURVE",
"55 468 OFFCURVE",
"89 566 OFFCURVE",
"167 645 CURVE",
"195 675 OFFCURVE",
"230 684 OFFCURVE",
"269 671 CURVE",
"305 658 OFFCURVE",
"327 625 OFFCURVE",
"326 586 CURVE",
"325 545 OFFCURVE",
"313 507 OFFCURVE",
"295 471 CURVE",
"293 466 OFFCURVE",
"287 463 OFFCURVE",
"282 458 CURVE",
"277 463 OFFCURVE",
"273 466 OFFCURVE",
"272 470 CURVE",
"263 495 OFFCURVE",
"255 519 OFFCURVE",
"268 545 CURVE",
"277 562 OFFCURVE",
"273 567 OFFCURVE",
"255 574 CURVE",
"229 582 OFFCURVE",
"207 579 OFFCURVE",
"186 560 CURVE",
"121 498 OFFCURVE",
"87 424 OFFCURVE",
"96 333 CURVE",
"100 298 OFFCURVE",
"126 286 OFFCURVE",
"151 309 CURVE",
"180 335 OFFCURVE",
"206 362 OFFCURVE",
"229 392 CURVE",
"244 409 OFFCURVE",
"263 415 OFFCURVE",
"273 395 CURVE",
"280 386 OFFCURVE",
"274 369 OFFCURVE",
"273 357 CURVE",
"269 328 OFFCURVE",
"263 300 OFFCURVE",
"259 272 CURVE",
"250 218 OFFCURVE",
"261 164 OFFCURVE",
"266 111 CURVE",
"271 67 OFFCURVE",
"276 23 OFFCURVE",
"277 -21 CURVE",
"279 -50 OFFCURVE",
"272 -79 OFFCURVE",
"266 -107 CURVE",
"260 -136 OFFCURVE",
"234 -155 OFFCURVE",
"198 -154 CURVE",
"161 -154 OFFCURVE",
"122 -152 OFFCURVE",
"84 -147 CURVE",
"31 -139 OFFCURVE",
"-2 -91 OFFCURVE",
"-6 -43 CURVE",
"-7 -34 OFFCURVE",
"-8 -24 OFFCURVE",
"-8 -13 CURVE",
"-8 4 OFFCURVE",
"-6 22 OFFCURVE",
"10 34 CURVE",
"22 44 OFFCURVE",
"34 55 OFFCURVE",
"47 66 CURVE",
"54 72 OFFCURVE",
"57 70 OFFCURVE",
"64 63 CURVE",
"90 34 OFFCURVE",
"75 6 OFFCURVE",
"63 -21 CURVE",
"60 -30 OFFCURVE",
"55 -38 OFFCURVE",
"48 -52 CURVE"
);
}
);
width = 296;
}
);
unicode = 0053;
},
{
glyphname = T;
lastChange = "2018-11-30 11:43:01 +0000";
layers = (
{
layerId = "05094513-8B3E-496E-80F7-D1F3E9D5BA68";
paths = (
{
closed = 1;
nodes = (
"226 559 OFFCURVE",
"228 514 OFFCURVE",
"226 469 CURVE",
"221 375 OFFCURVE",
"213 281 OFFCURVE",
"207 187 CURVE",
"203 138 OFFCURVE",
"201 90 OFFCURVE",
"198 41 CURVE",
"197 25 OFFCURVE",
"195 10 OFFCURVE",
"191 -5 CURVE",
"189 -14 OFFCURVE",
"184 -19 OFFCURVE",
"174 -8 CURVE",
"155 17 OFFCURVE",
"142 43 OFFCURVE",
"145 75 CURVE",
"152 152 OFFCURVE",
"159 229 OFFCURVE",
"165 306 CURVE",
"172 395 OFFCURVE",
"178 484 OFFCURVE",
"184 572 CURVE",
"185 584 OFFCURVE",
"182 591 OFFCURVE",
"170 592 CURVE",
"166 593 OFFCURVE",
"163 586 OFFCURVE",
"159 586 CURVE",
"123 585 OFFCURVE",
"88 576 OFFCURVE",
"52 574 CURVE",
"32 573 OFFCURVE",
"18 585 OFFCURVE",
"12 612 CURVE",
"7 628 OFFCURVE",
"5 646 OFFCURVE",
"8 661 CURVE",
"10 669 OFFCURVE",
"28 675 OFFCURVE",
"40 677 CURVE",
"48 679 OFFCURVE",
"58 673 OFFCURVE",
"68 674 CURVE",
"146 685 OFFCURVE",
"225 697 OFFCURVE",
"304 708 CURVE",
"335 713 OFFCURVE",
"365 719 OFFCURVE",
"396 722 CURVE",
"402 723 OFFCURVE",
"410 716 OFFCURVE",
"415 711 CURVE",
"417 709 OFFCURVE",
"413 702 OFFCURVE",
"412 697 CURVE",
"411 690 OFFCURVE",
"411 684 OFFCURVE",
"409 679 CURVE",
"405 666 OFFCURVE",
"400 652 OFFCURVE",
"394 639 CURVE",
"391 634 OFFCURVE",
"385 629 OFFCURVE",
"381 628 CURVE",
"352 624 OFFCURVE",
"324 622 OFFCURVE",
"295 618 CURVE",
"272 614 OFFCURVE",
"250 609 OFFCURVE",
"225 602 CURVE"
);
}
);
width = 266;
}
);
unicode = 0054;
},
{
glyphname = U;
lastChange = "2018-11-09 10:59:38 +0000";
layers = (
{
layerId = "05094513-8B3E-496E-80F7-D1F3E9D5BA68";
paths = (
{
closed = 1;
nodes = (
"58 359 OFFCURVE",
"54 260 OFFCURVE",
"71 161 CURVE",
"73 150 OFFCURVE",
"76 138 OFFCURVE",
"81 126 CURVE",
"92 98 OFFCURVE",
"114 87 OFFCURVE",
"144 90 CURVE",
"185 93 OFFCURVE",
"208 115 OFFCURVE",
"223 152 CURVE",
"244 203 OFFCURVE",
"250 257 OFFCURVE",
"257 312 CURVE",
"266 403 OFFCURVE",
"276 494 OFFCURVE",
"285 586 CURVE",
"288 623 OFFCURVE",
"288 663 OFFCURVE",
"289 702 CURVE",
"290 713 OFFCURVE",
"295 718 OFFCURVE",
"305 721 CURVE",
"317 724 OFFCURVE",
"326 719 OFFCURVE",
"327 709 CURVE",
"333 681 OFFCURVE",
"339 652 OFFCURVE",
"339 622 CURVE",
"340 543 OFFCURVE",
"331 466 OFFCURVE",
"322 388 CURVE",
"313 325 OFFCURVE",
"308 261 OFFCURVE",
"302 197 CURVE",
"298 153 OFFCURVE",
"285 110 OFFCURVE",
"265 71 CURVE",
"238 19 OFFCURVE",
"174 -21 OFFCURVE",
"108 4 CURVE",
"88 12 OFFCURVE",
"70 27 OFFCURVE",
"58 44 CURVE",
"17 97 OFFCURVE",
"8 161 OFFCURVE",
"3 227 CURVE",
"-6 349 OFFCURVE",
"8 472 OFFCURVE",
"15 594 CURVE",
"17 620 OFFCURVE",
"21 646 OFFCURVE",
"22 671 CURVE",
"23 686 OFFCURVE",
"27 697 OFFCURVE",
"44 698 CURVE",
"54 699 OFFCURVE",
"66 685 OFFCURVE",
"67 671 CURVE",
"68 640 OFFCURVE",
"69 610 OFFCURVE",
"68 579 CURVE",
"67 539 OFFCURVE",
"65 498 OFFCURVE",
"63 458 CURVE"
);
}
);
width = 339;
}
);
unicode = 0055;
},
{
glyphname = V;
lastChange = "2018-11-09 10:43:32 +0000";
layers = (
{
layerId = "05094513-8B3E-496E-80F7-D1F3E9D5BA68";
paths = (
{
closed = 1;
nodes = (
"212.863 301.122 OFFCURVE",
"231.294 373.508 OFFCURVE",
"251.628 445.356 CURVE",
"259.753 474.065 OFFCURVE",
"270.811 502.138 OFFCURVE",
"282.758 529.53 CURVE",
"304.952 580.418 OFFCURVE",
"328.488 630.729 OFFCURVE",
"352.092 680.987 CURVE",
"359.772 697.341 OFFCURVE",
"380.929 703.707 OFFCURVE",
"396.417 694.887 CURVE",
"400.328 692.661 OFFCURVE",
"404.589 686.348 OFFCURVE",
"404.3 682.22 CURVE",
"402.567 657.456 OFFCURVE",
"401.425 632.382 OFFCURVE",
"396.271 608.226 CURVE",
"393.153 593.615 OFFCURVE",
"383.452 580.311 OFFCURVE",
"376.186 566.699 CURVE",
"324.931 470.663 OFFCURVE",
"288.849 369.62 OFFCURVE",
"270.481 261.952 CURVE",
"256.625 180.728 OFFCURVE",
"239.337 100.083 OFFCURVE",
"222.985 19.301 CURVE",
"221.511 12.018 OFFCURVE",
"215.809 0.081 OFFCURVE",
"211.876 0.003 CURVE",
"204.637 -0.142 OFFCURVE",
"195.967 5.6 OFFCURVE",
"190.168 11.231 CURVE",
"171.346 29.507 OFFCURVE",
"159.451 51.901 OFFCURVE",
"155.301 78.063 CURVE",
"129.387 241.401 OFFCURVE",
"69.612 395.263 OFFCURVE",
"22.94 552.809 CURVE",
"13.417 584.951 OFFCURVE",
"8.909 618.547 OFFCURVE",
"0.852 651.167 CURVE",
"-2.931 666.486 OFFCURVE",
"1.154 676.253 OFFCURVE",
"16.138 679.302 CURVE",
"31.869 682.503 OFFCURVE",
"38.618 669.726 OFFCURVE",
"42.559 658.463 CURVE",
"59.468 610.143 OFFCURVE",
"75.036 561.356 OFFCURVE",
"91.273 512.799 CURVE",
"122.15 420.463 OFFCURVE",
"153.142 328.164 OFFCURVE",
"184.153 235.873 CURVE",
"184.901 233.646 OFFCURVE",
"186.441 231.685 OFFCURVE",
"187.611 229.6 CURVE",
"189.63 229.384 OFFCURVE",
"191.649 229.168 OFFCURVE",
"193.668 228.952 CURVE"
);
}
);
width = 334;
}
);
unicode = 0056;
},
{
glyphname = W;
lastChange = "2018-11-09 10:54:13 +0000";
layers = (
{
layerId = "05094513-8B3E-496E-80F7-D1F3E9D5BA68";
paths = (
{
closed = 1;
nodes = (
"116 232 OFFCURVE",
"124 261 OFFCURVE",
"133 289 CURVE",
"141 316 OFFCURVE",
"151 342 OFFCURVE",
"162 368 CURVE",
"169 386 OFFCURVE",
"184 393 OFFCURVE",
"200 389 CURVE",
"212 386 OFFCURVE",
"216 379 OFFCURVE",
"216 367 CURVE",
"219 328 OFFCURVE",
"222 288 OFFCURVE",
"225 249 CURVE",
"226 241 OFFCURVE",
"228 232 OFFCURVE",
"229 224 CURVE",
"231 224 OFFCURVE",
"232 224 OFFCURVE",
"234 224 CURVE",
"240 253 OFFCURVE",
"247 281 OFFCURVE",
"252 310 CURVE",
"260 353 OFFCURVE",
"264 398 OFFCURVE",
"277 439 CURVE",
"295 503 OFFCURVE",
"317 565 OFFCURVE",
"342 626 CURVE",
"357 662 OFFCURVE",
"379 696 OFFCURVE",
"412 719 CURVE",
"419 724 OFFCURVE",
"431 728 OFFCURVE",
"437 726 CURVE",
"443 723 OFFCURVE",
"446 711 OFFCURVE",
"448 703 CURVE",
"451 691 OFFCURVE",
"455 679 OFFCURVE",
"453 668 CURVE",
"452 651 OFFCURVE",
"449 633 OFFCURVE",
"442 618 CURVE",
"438 609 OFFCURVE",
"423 606 OFFCURVE",
"417 598 CURVE",
"397 565 OFFCURVE",
"374 533 OFFCURVE",
"359 498 CURVE",
"328 429 OFFCURVE",
"316 354 OFFCURVE",
"308 279 CURVE",
"301 213 OFFCURVE",
"297 146 OFFCURVE",
"292 79 CURVE",
"291 66 OFFCURVE",
"290 52 OFFCURVE",
"287 39 CURVE",
"286 32 OFFCURVE",
"281 26 OFFCURVE",
"277 20 CURVE",
"271 23 OFFCURVE",
"263 25 OFFCURVE",
"261 30 CURVE",
"235 74 OFFCURVE",
"210 117 OFFCURVE",
"185 161 CURVE",
"182 165 OFFCURVE",
"181 170 OFFCURVE",
"179 174 CURVE",
"178 174 OFFCURVE",
"176 174 OFFCURVE",
"174 174 CURVE",
"172 163 OFFCURVE",
"169 151 OFFCURVE",
"168 139 CURVE",
"166 115 OFFCURVE",
"166 90 OFFCURVE",
"164 66 CURVE",
"162 49 OFFCURVE",
"161 31 OFFCURVE",
"158 14 CURVE",
"156 2 OFFCURVE",
"148 -5 OFFCURVE",
"137 5 CURVE",
"124 19 OFFCURVE",
"110 35 OFFCURVE",
"102 52 CURVE",
"67 126 OFFCURVE",
"33 201 OFFCURVE",
"3 277 CURVE",
"-41 387 OFFCURVE",
"-55 502 OFFCURVE",
"-41 620 CURVE",
"-40 629 OFFCURVE",
"-38 640 OFFCURVE",
"-39 649 CURVE",
"-41 661 OFFCURVE",
"-36 669 OFFCURVE",
"-25 669 CURVE",
"-18 669 OFFCURVE",
"-7 664 OFFCURVE",
"-5 659 CURVE",
"1 644 OFFCURVE",
"4 627 OFFCURVE",
"5 610 CURVE",
"8 561 OFFCURVE",
"8 510 OFFCURVE",
"12 461 CURVE",
"18 389 OFFCURVE",
"45 324 OFFCURVE",
"76 260 CURVE",
"85 240 OFFCURVE",
"94 222 OFFCURVE",
"103 203 CURVE",
"105 203 OFFCURVE",
"107 203 OFFCURVE",
"109 203 CURVE"
);
}
);
width = 384;
}
);
unicode = 0057;
},
{
glyphname = X;
lastChange = "2018-11-02 14:40:44 +0000";
layers = (
{
layerId = "05094513-8B3E-496E-80F7-D1F3E9D5BA68";
paths = (
{
closed = 1;
nodes = (
"108 156 OFFCURVE",
"85 64 OFFCURVE",
"43 -18 CURVE",
"40 -18 OFFCURVE",
"37 -19 OFFCURVE",
"33 -19 CURVE",
"25 -1 OFFCURVE",
"14 17 OFFCURVE",
"7 36 CURVE",
"-2 60 OFFCURVE",
"1 82 OFFCURVE",
"12 109 CURVE",
"47 182 OFFCURVE",
"77 258 OFFCURVE",
"107 333 CURVE",
"111 340 OFFCURVE",
"106 352 OFFCURVE",
"103 360 CURVE",
"70 450 OFFCURVE",
"46 541 OFFCURVE",
"40 636 CURVE",
"39 653 OFFCURVE",
"42 671 OFFCURVE",
"46 688 CURVE",
"48 694 OFFCURVE",
"58 697 OFFCURVE",
"69 707 CURVE",
"78 671 OFFCURVE",
"84 641 OFFCURVE",
"92 612 CURVE",
"107 558 OFFCURVE",
"123 504 OFFCURVE",
"139 450 CURVE",
"140 446 OFFCURVE",
"143 442 OFFCURVE",
"149 432 CURVE",
"160 462 OFFCURVE",
"171 486 OFFCURVE",
"180 512 CURVE",
"199 565 OFFCURVE",
"217 619 OFFCURVE",
"235 673 CURVE",
"241 691 OFFCURVE",
"254 694 OFFCURVE",
"267 692 CURVE",
"280 691 OFFCURVE",
"281 679 OFFCURVE",
"282 667 CURVE",
"284 598 OFFCURVE",
"254 538 OFFCURVE",
"235 475 CURVE",
"224 437 OFFCURVE",
"208 402 OFFCURVE",
"196 363 CURVE",
"192 352 OFFCURVE",
"192 337 OFFCURVE",
"196 327 CURVE",
"223 266 OFFCURVE",
"250 206 OFFCURVE",
"279 147 CURVE",
"289 126 OFFCURVE",
"291 106 OFFCURVE",
"286 83 CURVE",
"283 66 OFFCURVE",
"280 48 OFFCURVE",
"275 31 CURVE",
"274 25 OFFCURVE",
"268 21 OFFCURVE",
"264 16 CURVE",
"260 20 OFFCURVE",
"254 22 OFFCURVE",
"252 27 CURVE",
"236 60 OFFCURVE",
"222 94 OFFCURVE",
"206 128 CURVE",
"191 161 OFFCURVE",
"176 194 OFFCURVE",
"160 227 CURVE",
"158 231 OFFCURVE",
"155 236 OFFCURVE",
"151 241 CURVE"
);
}
);
width = 339;
}
);
unicode = 0058;
},
{
glyphname = Y;
lastChange = "2018-11-09 10:59:22 +0000";
layers = (
{
layerId = "05094513-8B3E-496E-80F7-D1F3E9D5BA68";
paths = (
{
closed = 1;
nodes = (
"19 692 OFFCURVE",
"20 686 OFFCURVE",
"24 684 CURVE",
"46 673 OFFCURVE",
"46 653 OFFCURVE",
"45 633 CURVE",
"44 580 OFFCURVE",
"49 528 OFFCURVE",
"65 477 CURVE",
"73 450 OFFCURVE",
"81 447 OFFCURVE",
"100 468 CURVE",
"159 529 OFFCURVE",
"207 598 OFFCURVE",
"250 671 CURVE",
"262 692 OFFCURVE",
"271 714 OFFCURVE",
"282 736 CURVE",
"288 750 OFFCURVE",
"302 757 OFFCURVE",
"315 752 CURVE",
"328 747 OFFCURVE",
"331 738 OFFCURVE",
"327 723 CURVE",
"322 704 OFFCURVE",
"322 683 OFFCURVE",
"316 664 CURVE",
"310 644 OFFCURVE",
"301 624 OFFCURVE",
"291 606 CURVE",
"241 513 OFFCURVE",
"183 426 OFFCURVE",
"112 347 CURVE",
"109 343 OFFCURVE",
"108 335 OFFCURVE",
"108 329 CURVE",
"103 218 OFFCURVE",
"99 107 OFFCURVE",
"93 -3 CURVE",
"93 -17 OFFCURVE",
"89 -31 OFFCURVE",
"85 -45 CURVE",
"81 -61 OFFCURVE",
"75 -62 OFFCURVE",
"64 -50 CURVE",
"42 -24 OFFCURVE",
"31 5 OFFCURVE",
"34 39 CURVE",
"42 143 OFFCURVE",
"48 246 OFFCURVE",
"55 350 CURVE",
"56 358 OFFCURVE",
"52 367 OFFCURVE",
"49 375 CURVE",
"2 478 OFFCURVE",
"-7 585 OFFCURVE",
"14 698 CURVE"
);
}
);
width = 219;
}
);
unicode = 0059;
},
{
glyphname = Z;
lastChange = "2018-11-09 11:26:13 +0000";
layers = (
{
layerId = "05094513-8B3E-496E-80F7-D1F3E9D5BA68";
paths = (
{
closed = 1;
nodes = (
"174 139 OFFCURVE",
"212 147 OFFCURVE",
"250 156 CURVE",
"274 161 OFFCURVE",
"287 152 OFFCURVE",
"286 129 CURVE",
"285 108 OFFCURVE",
"283 88 OFFCURVE",
"282 69 CURVE",
"282 57 OFFCURVE",
"277 51 OFFCURVE",
"264 49 CURVE",
"231 43 OFFCURVE",
"199 35 OFFCURVE",
"166 27 CURVE",
"122 16 OFFCURVE",
"82 -4 OFFCURVE",
"47 -33 CURVE",
"26 -49 OFFCURVE",
"24 -48 OFFCURVE",
"10 -26 CURVE",
"5 -18 OFFCURVE",
"1 -10 OFFCURVE",
"-3 -2 CURVE",
"-18 23 OFFCURVE",
"-16 41 OFFCURVE",
"0 67 CURVE",
"42 136 OFFCURVE",
"79 207 OFFCURVE",
"115 280 CURVE",
"158 367 OFFCURVE",
"199 455 OFFCURVE",
"241 543 CURVE",
"243 547 OFFCURVE",
"245 552 OFFCURVE",
"248 558 CURVE",
"214 561 OFFCURVE",
"183 564 OFFCURVE",
"150 566 CURVE",
"111 568 OFFCURVE",
"106 571 OFFCURVE",
"97 610 CURVE",
"93 628 OFFCURVE",
"91 646 OFFCURVE",
"90 664 CURVE",
"89 681 OFFCURVE",
"103 692 OFFCURVE",
"119 690 CURVE",
"182 686 OFFCURVE",
"244 681 OFFCURVE",
"307 677 CURVE",
"336 675 OFFCURVE",
"352 653 OFFCURVE",
"347 625 CURVE",
"338 577 OFFCURVE",
"324 532 OFFCURVE",
"300 488 CURVE",
"273 442 OFFCURVE",
"249 394 OFFCURVE",
"226 345 CURVE",
"194 276 OFFCURVE",
"165 205 OFFCURVE",
"131 130 CURVE"
);
}
);
width = 348;
}
);
unicode = 005A;
},
{
glyphname = a;
lastChange = "2018-11-30 11:49:10 +0000";
layers = (
{
layerId = "05094513-8B3E-496E-80F7-D1F3E9D5BA68";
paths = (
{
closed = 1;
nodes = (
"204 34 OFFCURVE",
"195 54 OFFCURVE",
"181 75 CURVE",
"163 63 OFFCURVE",
"147 51 OFFCURVE",
"133 43 CURVE",
"113 30 OFFCURVE",
"93 19 OFFCURVE",
"74 16 CURVE",
"39 7 OFFCURVE",
"19 25 OFFCURVE",
"8 60 CURVE",
"-14 137 OFFCURVE",
"-6 208 OFFCURVE",
"42 270 CURVE",
"74 311 OFFCURVE",
"107 346 OFFCURVE",
"144 379 CURVE",
"158 394 OFFCURVE",
"178 406 OFFCURVE",
"198 412 CURVE",
"231 423 OFFCURVE",
"257 409 OFFCURVE",
"263 373 CURVE",
"266 338 OFFCURVE",
"263 300 OFFCURVE",
"260 264 CURVE",
"254 226 OFFCURVE",
"243 187 OFFCURVE",
"237 146 CURVE",
"237 131 OFFCURVE",
"234 111 OFFCURVE",
"243 98 CURVE",
"271 60 OFFCURVE",
"246 40 OFFCURVE",
"221 7 CURVE"
);
},
{
closed = 1;
nodes = (
"147 90 OFFCURVE",
"209 158 OFFCURVE",
"201 294 CURVE",
"139 270 OFFCURVE",
"74 199 OFFCURVE",
"53 128 CURVE"
);
}
);
width = 269;
}
);
unicode = 0061;
},
{
glyphname = adieresis;
lastChange = "2018-11-30 11:45:02 +0000";
layers = (
{
layerId = "05094513-8B3E-496E-80F7-D1F3E9D5BA68";
paths = (
{
closed = 1;
nodes = (
"276 76 OFFCURVE",
"276 70 OFFCURVE",
"278 63 CURVE",
"287 45 OFFCURVE",
"278 16 OFFCURVE",
"261 4 CURVE",
"249 -6 OFFCURVE",
"223 3 OFFCURVE",
"212 23 CURVE",
"201 47 OFFCURVE",
"191 73 OFFCURVE",
"181 98 CURVE",
"180 101 OFFCURVE",
"178 106 OFFCURVE",
"178 108 CURVE",
"167 93 OFFCURVE",
"158 77 OFFCURVE",
"146 63 CURVE",
"132 48 OFFCURVE",
"116 33 OFFCURVE",
"97 21 CURVE",
"79 9 OFFCURVE",
"52 19 OFFCURVE",
"39 41 CURVE",
"-4 121 OFFCURVE",
"-14 204 OFFCURVE",
"35 285 CURVE",
"55 316 OFFCURVE",
"80 348 OFFCURVE",
"103 380 CURVE",
"120 400 OFFCURVE",
"145 409 OFFCURVE",
"176 406 CURVE",
"184 405 OFFCURVE",
"194 401 OFFCURVE",
"199 397 CURVE",
"224 370 OFFCURVE",
"240 342 OFFCURVE",
"225 308 CURVE",
"201 247 OFFCURVE",
"204 188 OFFCURVE",
"221 127 CURVE",
"224 116 OFFCURVE",
"229 106 OFFCURVE",
"236 97 CURVE",
"240 92 OFFCURVE",
"251 87 OFFCURVE",
"258 84 CURVE",
"264 82 OFFCURVE",
"270 83 OFFCURVE",
"274 83 CURVE"
);
},
{
closed = 1;
nodes = (
"152 297 OFFCURVE",
"139 293 OFFCURVE",
"132 284 CURVE",
"111 260 OFFCURVE",
"88 233 OFFCURVE",
"73 206 CURVE",
"60 183 OFFCURVE",
"50 160 OFFCURVE",
"54 135 CURVE",
"59 113 OFFCURVE",
"75 109 OFFCURVE",
"95 118 CURVE",
"114 128 OFFCURVE",
"131 137 OFFCURVE",
"151 147 CURVE",
"153 144 OFFCURVE",
"155 144 OFFCURVE",
"156 142 CURVE",
"159 138 OFFCURVE",
"164 135 OFFCURVE",
"167 132 CURVE",
"168 136 OFFCURVE",
"169 142 OFFCURVE",
"169 144 CURVE",
"168 160 OFFCURVE",
"165 176 OFFCURVE",
"165 191 CURVE",
"164 227 OFFCURVE",
"165 263 OFFCURVE",
"165 304 CURVE"
);
},
{
closed = 1;
nodes = (
"253 650 OFFCURVE",
"260 649 OFFCURVE",
"269 647 CURVE",
"290 593 OFFCURVE",
"265 548 OFFCURVE",
"233 505 CURVE",
"229 497 OFFCURVE",
"217 495 OFFCURVE",
"209 489 CURVE",
"207 490 OFFCURVE",
"204 490 OFFCURVE",
"203 491 CURVE",
"200 508 OFFCURVE",
"196 527 OFFCURVE",
"193 545 CURVE",
"191 548 OFFCURVE",
"194 552 OFFCURVE",
"196 556 CURVE",
"208 584 OFFCURVE",
"222 614 OFFCURVE",
"236 641 CURVE",
"237 646 OFFCURVE",
"240 649 OFFCURVE",
"243 651 CURVE"
);
},
{
closed = 1;
nodes = (
"106 577 OFFCURVE",
"130 598 OFFCURVE",
"141 620 CURVE",
"143 623 OFFCURVE",
"151 628 OFFCURVE",
"154 627 CURVE",
"157 627 OFFCURVE",
"159 621 OFFCURVE",
"165 618 CURVE",
"187 602 OFFCURVE",
"181 583 OFFCURVE",
"178 564 CURVE",
"174 543 OFFCURVE",
"168 523 OFFCURVE",
"151 507 CURVE",
"141 499 OFFCURVE",
"130 497 OFFCURVE",
"127 509 CURVE",
"120 521 OFFCURVE",
"117 533 OFFCURVE",
"113 548 CURVE"
);
}
);
width = 277;
}
);
unicode = 00E4;
},
{
glyphname = aring;
lastChange = "2018-11-30 11:51:55 +0000";
layers = (
{
layerId = "05094513-8B3E-496E-80F7-D1F3E9D5BA68";
paths = (
{
closed = 1;
nodes = (
"153 69 OFFCURVE",
"141 55 OFFCURVE",
"129 42 CURVE",
"112 23 OFFCURVE",
"89 9 OFFCURVE",
"62 2 CURVE",
"44 -4 OFFCURVE",
"28 4 OFFCURVE",
"19 21 CURVE",
"-3 63 OFFCURVE",
"-10 105 OFFCURVE",
"-2 152 CURVE",
"18 247 OFFCURVE",
"68 327 OFFCURVE",
"136 399 CURVE",
"153 417 OFFCURVE",
"174 430 OFFCURVE",
"201 427 CURVE",
"208 426 OFFCURVE",
"217 422 OFFCURVE",
"220 417 CURVE",
"231 394 OFFCURVE",
"243 370 OFFCURVE",
"231 344 CURVE",
"226 333 OFFCURVE",
"228 322 OFFCURVE",
"231 310 CURVE",
"234 294 OFFCURVE",
"230 277 OFFCURVE",
"229 261 CURVE",
"225 204 OFFCURVE",
"221 147 OFFCURVE",
"216 90 CURVE",
"214 72 OFFCURVE",
"211 54 OFFCURVE",
"208 36 CURVE",
"207 32 OFFCURVE",
"200 27 OFFCURVE",
"197 27 CURVE",
"194 28 OFFCURVE",
"188 32 OFFCURVE",
"186 37 CURVE",
"179 52 OFFCURVE",
"173 67 OFFCURVE",
"166 83 CURVE"
);
},
{
closed = 1;
nodes = (
"56 95 OFFCURVE",
"66 94 OFFCURVE",
"73 97 CURVE",
"102 115 OFFCURVE",
"130 133 OFFCURVE",
"158 152 CURVE",
"162 154 OFFCURVE",
"163 160 OFFCURVE",
"164 165 CURVE",
"169 206 OFFCURVE",
"174 246 OFFCURVE",
"179 287 CURVE",
"180 295 OFFCURVE",
"178 303 OFFCURVE",
"178 311 CURVE",
"127 293 OFFCURVE",
"49 150 OFFCURVE",
"47 94 CURVE"
);
},
{
closed = 1;
nodes = (
"249 544 OFFCURVE",
"235 520 OFFCURVE",
"218 498 CURVE",
"207 485 OFFCURVE",
"191 482 OFFCURVE",
"175 485 CURVE",
"160 487 OFFCURVE",
"155 498 OFFCURVE",
"153 510 CURVE",
"145 540 OFFCURVE",
"142 572 OFFCURVE",
"161 601 CURVE",
"162 602 OFFCURVE",
"162 605 OFFCURVE",
"162 606 CURVE",
"170 631 OFFCURVE",
"195 637 OFFCURVE",
"218 623 CURVE",
"228 616 OFFCURVE",
"228 606 OFFCURVE",
"235 599 CURVE",
"244 590 OFFCURVE",
"244 581 OFFCURVE",
"243 570 CURVE"
);
}
);
width = 239;
}
);
unicode = 00E5;
},
{
glyphname = b;
lastChange = "2018-11-30 11:38:27 +0000";
layers = (
{
layerId = "05094513-8B3E-496E-80F7-D1F3E9D5BA68";
paths = (
{
closed = 1;
nodes = (
"4 128 OFFCURVE",
"-8 136 OFFCURVE",
"-8 145 CURVE",
"-10 178 OFFCURVE",
"-13 214 OFFCURVE",
"-8 245 CURVE",
"10 350 OFFCURVE",
"31 453 OFFCURVE",
"51 556 CURVE",
"58 591 OFFCURVE",
"66 628 OFFCURVE",
"87 657 CURVE",
"110 647 OFFCURVE",
"103 629 OFFCURVE",
"100 614 CURVE",
"91 566 OFFCURVE",
"82 517 OFFCURVE",
"73 470 CURVE",
"70 456 OFFCURVE",
"69 441 OFFCURVE",
"66 425 CURVE",
"109 420 OFFCURVE",
"144 401 OFFCURVE",
"176 369 CURVE",
"215 332 OFFCURVE",
"227 285 OFFCURVE",
"225 225 CURVE",
"219 116 OFFCURVE",
"164 54 OFFCURVE",
"85 18 CURVE",
"72 12 OFFCURVE",
"55 9 OFFCURVE",
"40 8 CURVE",
"20 8 OFFCURVE",
"3 20 OFFCURVE",
"4 46 CURVE",
"4 72 OFFCURVE",
"8 97 OFFCURVE",
"11 122 CURVE",
"25 112 OFFCURVE",
"38 102 OFFCURVE",
"52 91 CURVE",
"101 115 OFFCURVE",
"144 148 OFFCURVE",
"176 198 CURVE",
"188 216 OFFCURVE",
"192 236 OFFCURVE",
"179 252 CURVE",
"156 275 OFFCURVE",
"131 300 OFFCURVE",
"104 313 CURVE",
"61 334 OFFCURVE",
"38 313 OFFCURVE",
"38 260 CURVE",
"38 217 OFFCURVE",
"32 182 OFFCURVE",
"14 147 CURVE",
"13 138 OFFCURVE",
"13 130 OFFCURVE",
"11 121 CURVE"
);
}
);
width = 233;
}
);
unicode = 0062;
},
{
glyphname = c;
lastChange = "2018-11-30 11:35:36 +0000";
layers = (
{
layerId = "05094513-8B3E-496E-80F7-D1F3E9D5BA68";
paths = (
{
closed = 1;
nodes = (
"219 106 OFFCURVE",
"215 93 OFFCURVE",
"208 83 CURVE",
"198 71 OFFCURVE",
"187 62 OFFCURVE",
"175 52 CURVE",
"165 44 OFFCURVE",
"154 40 OFFCURVE",
"143 33 CURVE",
"141 31 OFFCURVE",
"139 26 OFFCURVE",
"139 25 CURVE",
"132 24 OFFCURVE",
"126 23 OFFCURVE",
"120 21 CURVE",
"108 18 OFFCURVE",
"95 11 OFFCURVE",
"82 11 CURVE",
"66 11 OFFCURVE",
"47 15 OFFCURVE",
"31 21 CURVE",
"25 24 OFFCURVE",
"19 33 OFFCURVE",
"16 41 CURVE",
"-4 78 OFFCURVE",
"-6 118 OFFCURVE",
"-4 161 CURVE",
"-1 224 OFFCURVE",
"23 278 OFFCURVE",
"52 334 CURVE",
"72 370 OFFCURVE",
"98 401 OFFCURVE",
"128 428 CURVE",
"153 451 OFFCURVE",
"191 452 OFFCURVE",
"210 415 CURVE",
"226 386 OFFCURVE",
"227 358 OFFCURVE",
"219 328 CURVE",
"216 307 OFFCURVE",
"209 287 OFFCURVE",
"200 268 CURVE",
"197 260 OFFCURVE",
"188 255 OFFCURVE",
"181 250 CURVE",
"180 249 OFFCURVE",
"174 252 OFFCURVE",
"174 254 CURVE",
"171 277 OFFCURVE",
"170 299 OFFCURVE",
"178 323 CURVE",
"181 332 OFFCURVE",
"178 340 OFFCURVE",
"171 345 CURVE",
"165 349 OFFCURVE",
"156 351 OFFCURVE",
"151 350 CURVE",
"143 348 OFFCURVE",
"136 343 OFFCURVE",
"131 338 CURVE",
"77 293 OFFCURVE",
"44 235 OFFCURVE",
"37 165 CURVE",
"34 116 OFFCURVE",
"67 86 OFFCURVE",
"111 100 CURVE",
"141 108 OFFCURVE",
"168 121 OFFCURVE",
"197 132 CURVE",
"206 137 OFFCURVE",
"212 139 OFFCURVE",
"217 126 CURVE SMOOTH",
"218 123 OFFCURVE",
"220 122 OFFCURVE",
"225 118 CURVE"
);
}
);
width = 248;
}
);
unicode = 0063;
},
{
glyphname = d;
lastChange = "2018-11-30 11:49:04 +0000";
layers = (
{
layerId = "05094513-8B3E-496E-80F7-D1F3E9D5BA68";
paths = (
{
closed = 1;
nodes = (
"302 472 OFFCURVE",
"327 584 OFFCURVE",
"395 680 CURVE",
"415 662 OFFCURVE",
"409 642 OFFCURVE",
"402 624 CURVE",
"388 589 OFFCURVE",
"370 554 OFFCURVE",
"359 517 CURVE",
"333 432 OFFCURVE",
"308 347 OFFCURVE",
"286 261 CURVE",
"280 234 OFFCURVE",
"278 205 OFFCURVE",
"280 178 CURVE",
"283 122 OFFCURVE",
"289 106 OFFCURVE",
"258 43 CURVE",
"254 51 OFFCURVE",
"248 57 OFFCURVE",
"246 65 CURVE",
"243 73 OFFCURVE",
"242 83 OFFCURVE",
"234 105 CURVE",
"191 76 OFFCURVE",
"158 53 OFFCURVE",
"118 28 CURVE",
"100 18 OFFCURVE",
"80 9 OFFCURVE",
"61 4 CURVE",
"35 -1 OFFCURVE",
"19 12 OFFCURVE",
"13 41 CURVE",
"-9 127 OFFCURVE",
"9 203 OFFCURVE",
"56 264 CURVE",
"75 287 OFFCURVE",
"93 313 OFFCURVE",
"114 334 CURVE",
"155 376 OFFCURVE",
"201 399 OFFCURVE",
"259 360 CURVE"
);
},
{
closed = 1;
nodes = (
"43 107 OFFCURVE",
"45 102 OFFCURVE",
"47 98 CURVE",
"64 100 OFFCURVE",
"82 100 OFFCURVE",
"98 106 CURVE",
"133 122 OFFCURVE",
"159 136 OFFCURVE",
"194 150 CURVE",
"228 164 OFFCURVE",
"238 192 OFFCURVE",
"240 228 CURVE",
"242 280 OFFCURVE",
"214 300 OFFCURVE",
"172 277 CURVE",
"111 246 OFFCURVE",
"76 178 OFFCURVE",
"41 112 CURVE"
);
}
);
width = 299;
}
);
unicode = 0064;
},
{
glyphname = e;
lastChange = "2018-11-30 11:37:12 +0000";
layers = (
{
layerId = "05094513-8B3E-496E-80F7-D1F3E9D5BA68";
paths = (
{
closed = 1;
nodes = (
"51 242 OFFCURVE",
"38 215 OFFCURVE",
"26 188 CURVE",
"14 154 OFFCURVE",
"45 106 OFFCURVE",
"82 103 CURVE",
"108 103 OFFCURVE",
"134 109 OFFCURVE",
"162 112 CURVE",
"178 114 OFFCURVE",
"195 114 OFFCURVE",
"220 117 CURVE",
"218 103 OFFCURVE",
"218 90 OFFCURVE",
"212 87 CURVE",
"173 67 OFFCURVE",
"145 27 OFFCURVE",
"99 16 CURVE",
"30 3 OFFCURVE",
"-8 32 OFFCURVE",
"-14 109 CURVE",
"-19 204 OFFCURVE",
"1 290 OFFCURVE",
"72 350 CURVE",
"114 387 OFFCURVE",
"160 403 OFFCURVE",
"207 414 CURVE",
"236 419 OFFCURVE",
"262 397 OFFCURVE",
"262 362 CURVE",
"264 302 OFFCURVE",
"243 252 OFFCURVE",
"200 215 CURVE",
"162 180 OFFCURVE",
"118 195 OFFCURVE",
"89 242 CURVE",
"87 247 OFFCURVE",
"84 252 OFFCURVE",
"82 257 CURVE"
);
},
{
closed = 1;
nodes = (
"181 284 OFFCURVE",
"181 284 OFFCURVE",
"210 317 CURVE",
"184 335 OFFCURVE",
"164 327 OFFCURVE",
"145 305 CURVE"
);
}
);
width = 288;
}
);
unicode = 0065;
},
{
glyphname = f;
lastChange = "2018-11-30 11:48:09 +0000";
layers = (
{
layerId = "05094513-8B3E-496E-80F7-D1F3E9D5BA68";
paths = (
{
closed = 1;
nodes = (
"36 229 OFFCURVE",
"32 229 OFFCURVE",
"27 229 CURVE",
"4 230 OFFCURVE",
"1 229 OFFCURVE",
"-1 251 CURVE",
"-5 274 OFFCURVE",
"-3 298 OFFCURVE",
"-2 322 CURVE",
"-2 326 OFFCURVE",
"1 330 OFFCURVE",
"3 333 CURVE",
"19 333 OFFCURVE",
"35 333 OFFCURVE",
"51 333 CURVE",
"52 353 OFFCURVE",
"53 371 OFFCURVE",
"54 390 CURVE",
"55 477 OFFCURVE",
"72 562 OFFCURVE",
"88 647 CURVE",
"95 683 OFFCURVE",
"103 718 OFFCURVE",
"121 749 CURVE",
"129 763 OFFCURVE",
"139 775 OFFCURVE",
"149 788 CURVE",
"152 790 OFFCURVE",
"161 792 OFFCURVE",
"166 790 CURVE",
"190 781 OFFCURVE",
"205 762 OFFCURVE",
"210 736 CURVE",
"212 718 OFFCURVE",
"215 702 OFFCURVE",
"206 684 CURVE",
"201 675 OFFCURVE",
"201 664 OFFCURVE",
"198 655 CURVE",
"196 654 OFFCURVE",
"195 654 OFFCURVE",
"193 654 CURVE",
"188 661 OFFCURVE",
"182 670 OFFCURVE",
"176 678 CURVE",
"158 708 OFFCURVE",
"148 707 OFFCURVE",
"131 675 CURVE",
"129 672 OFFCURVE",
"127 667 OFFCURVE",
"126 662 CURVE",
"104 558 OFFCURVE",
"93 451 OFFCURVE",
"89 343 CURVE",
"89 341 OFFCURVE",
"90 340 OFFCURVE",
"91 334 CURVE",
"114 337 OFFCURVE",
"137 340 OFFCURVE",
"159 343 CURVE",
"166 328 OFFCURVE",
"184 317 OFFCURVE",
"174 293 CURVE",
"165 272 OFFCURVE",
"157 257 OFFCURVE",
"134 248 CURVE",
"140 248 OFFCURVE",
"144 248 OFFCURVE",
"149 248 CURVE",
"148 245 OFFCURVE",
"147 244 OFFCURVE",
"146 243 CURVE",
"131 240 OFFCURVE",
"115 235 OFFCURVE",
"99 231 CURVE",
"88 229 OFFCURVE",
"83 225 OFFCURVE",
"82 213 CURVE",
"75 153 OFFCURVE",
"69 93 OFFCURVE",
"61 33 CURVE",
"58 12 OFFCURVE",
"52 -8 OFFCURVE",
"47 -28 CURVE",
"45 -32 OFFCURVE",
"41 -35 OFFCURVE",
"35 -44 CURVE",
"30 -28 OFFCURVE",
"26 -16 OFFCURVE",
"22 -4 CURVE",
"10 40 OFFCURVE",
"22 82 OFFCURVE",
"28 124 CURVE",
"34 159 OFFCURVE",
"38 193 OFFCURVE",
"43 229 CURVE"
);
}
);
width = 189;
}
);
unicode = 0066;
},
{
glyphname = g;
lastChange = "2018-11-30 11:34:44 +0000";
layers = (
{
layerId = "05094513-8B3E-496E-80F7-D1F3E9D5BA68";
paths = (
{
closed = 1;
nodes = (
"161 99 OFFCURVE",
"153 92 OFFCURVE",
"144 84 CURVE",
"136 77 OFFCURVE",
"128 71 OFFCURVE",
"119 65 CURVE",
"117 63 OFFCURVE",
"114 61 OFFCURVE",
"113 59 CURVE",
"100 40 OFFCURVE",
"70 39 OFFCURVE",
"53 54 CURVE",
"30 74 OFFCURVE",
"23 101 OFFCURVE",
"19 130 CURVE",
"8 206 OFFCURVE",
"18 278 OFFCURVE",
"54 346 CURVE",
"76 387 OFFCURVE",
"108 420 OFFCURVE",
"147 446 CURVE",
"152 449 OFFCURVE",
"157 452 OFFCURVE",
"162 456 CURVE",
"177 469 OFFCURVE",
"189 468 OFFCURVE",
"205 455 CURVE",
"229 435 OFFCURVE",
"235 409 OFFCURVE",
"232 380 CURVE",
"228 340 OFFCURVE",
"223 300 OFFCURVE",
"221 261 CURVE",
"217 197 OFFCURVE",
"215 132 OFFCURVE",
"215 68 CURVE",
"215 21 OFFCURVE",
"221 -26 OFFCURVE",
"221 -73 CURVE",
"222 -165 OFFCURVE",
"215 -255 OFFCURVE",
"197 -345 CURVE",
"190 -379 OFFCURVE",
"177 -410 OFFCURVE",
"158 -438 CURVE",
"152 -447 OFFCURVE",
"144 -457 OFFCURVE",
"135 -459 CURVE",
"116 -464 OFFCURVE",
"97 -466 OFFCURVE",
"78 -465 CURVE",
"40 -462 OFFCURVE",
"9 -440 OFFCURVE",
"-21 -418 CURVE",
"-42 -401 OFFCURVE",
"-61 -385 OFFCURVE",
"-72 -360 CURVE",
"-86 -326 OFFCURVE",
"-89 -290 OFFCURVE",
"-81 -255 CURVE",
"-78 -240 OFFCURVE",
"-62 -227 OFFCURVE",
"-50 -215 CURVE",
"-46 -212 OFFCURVE",
"-29 -214 OFFCURVE",
"-28 -218 CURVE",
"-23 -228 OFFCURVE",
"-20 -242 OFFCURVE",
"-21 -254 CURVE",
"-23 -270 OFFCURVE",
"-28 -287 OFFCURVE",
"-32 -303 CURVE",
"-32 -306 OFFCURVE",
"-29 -310 OFFCURVE",
"-27 -312 CURVE",
"-4 -330 OFFCURVE",
"16 -351 OFFCURVE",
"44 -359 CURVE",
"96 -374 OFFCURVE",
"116 -361 OFFCURVE",
"140 -318 CURVE",
"161 -279 OFFCURVE",
"167 -234 OFFCURVE",
"172 -190 CURVE",
"181 -115 OFFCURVE",
"180 -41 OFFCURVE",
"174 34 CURVE",
"172 53 OFFCURVE",
"173 71 OFFCURVE",
"173 90 CURVE",
"173 95 OFFCURVE",
"173 100 OFFCURVE",
"172 109 CURVE"
);
},
{
closed = 1;
nodes = (
"189 311 OFFCURVE",
"189 311 OFFCURVE",
"189 312 CURVE",
"189 316 OFFCURVE",
"189 320 OFFCURVE",
"189 324 CURVE",
"185 352 OFFCURVE",
"173 358 OFFCURVE",
"147 345 CURVE",
"144 343 OFFCURVE",
"140 341 OFFCURVE",
"137 339 CURVE",
"102 317 OFFCURVE",
"81 285 OFFCURVE",
"64 248 CURVE",
"54 227 OFFCURVE",
"53 206 OFFCURVE",
"57 184 CURVE",
"63 157 OFFCURVE",
"80 145 OFFCURVE",
"104 156 CURVE",
"129 167 OFFCURVE",
"152 183 OFFCURVE",
"176 196 CURVE",
"178 197 OFFCURVE",
"179 201 OFFCURVE",
"179 203 CURVE",
"183 239 OFFCURVE",
"186 275 OFFCURVE",
"189 311 CURVE"
);
}
);
width = 243;
}
);
unicode = 0067;
},
{
glyphname = h;
lastChange = "2018-11-30 11:43:19 +0000";
layers = (
{
layerId = "05094513-8B3E-496E-80F7-D1F3E9D5BA68";
paths = (
{
closed = 1;
nodes = (
"71 375 OFFCURVE",
"76 379 OFFCURVE",
"81 383 CURVE",
"135 431 OFFCURVE",
"193 381 OFFCURVE",
"212 329 CURVE",
"229 282 OFFCURVE",
"228 234 OFFCURVE",
"226 186 CURVE",
"225 158 OFFCURVE",
"218 130 OFFCURVE",
"220 102 CURVE",
"223 70 OFFCURVE",
"212 42 OFFCURVE",
"205 12 CURVE",
"204 4 OFFCURVE",
"197 -2 OFFCURVE",
"192 -13 CURVE",
"179 21 OFFCURVE",
"177 50 OFFCURVE",
"175 80 CURVE",
"170 127 OFFCURVE",
"185 169 OFFCURVE",
"190 214 CURVE",
"193 239 OFFCURVE",
"185 259 OFFCURVE",
"170 276 CURVE",
"153 293 OFFCURVE",
"127 297 OFFCURVE",
"108 281 CURVE",
"91 266 OFFCURVE",
"73 249 OFFCURVE",
"61 230 CURVE",
"52 216 OFFCURVE",
"51 196 OFFCURVE",
"48 178 CURVE",
"45 152 OFFCURVE",
"46 125 OFFCURVE",
"41 99 CURVE",
"36 75 OFFCURVE",
"37 47 OFFCURVE",
"17 26 CURVE",
"4 51 OFFCURVE",
"3 78 OFFCURVE",
"2 104 CURVE",
"0 153 OFFCURVE",
"-1 203 OFFCURVE",
"-1 253 CURVE",
"-1 265 OFFCURVE",
"3 278 OFFCURVE",
"9 288 CURVE",
"21 307 OFFCURVE",
"26 326 OFFCURVE",
"27 348 CURVE",
"31 407 OFFCURVE",
"38 465 OFFCURVE",
"36 524 CURVE",
"35 560 OFFCURVE",
"37 596 OFFCURVE",
"38 632 CURVE",
"38 637 OFFCURVE",
"42 641 OFFCURVE",
"44 645 CURVE",
"46 641 OFFCURVE",
"51 638 OFFCURVE",
"52 634 CURVE",
"68 547 OFFCURVE",
"69 460 OFFCURVE",
"63 370 CURVE"
);
}
);
width = 232;
}
);
unicode = 0068;
},
{
glyphname = i;
lastChange = "2018-11-30 11:42:48 +0000";
layers = (
{
layerId = "05094513-8B3E-496E-80F7-D1F3E9D5BA68";
paths = (
{
closed = 1;
nodes = (
"40 21 OFFCURVE",
"36 29 OFFCURVE",
"32 36 CURVE",
"11 78 OFFCURVE",
"7 122 OFFCURVE",
"12 170 CURVE",
"18 232 OFFCURVE",
"22 294 OFFCURVE",
"25 356 CURVE",
"26 377 OFFCURVE",
"42 375 OFFCURVE",
"53 382 CURVE",
"79 337 OFFCURVE",
"73 287 OFFCURVE",
"72 239 CURVE",
"70 185 OFFCURVE",
"67 131 OFFCURVE",
"62 77 CURVE",
"59 56 OFFCURVE",
"63 33 OFFCURVE",
"45 11 CURVE"
);
},
{
closed = 1;
nodes = (
"120 590 OFFCURVE",
"118 580 OFFCURVE",
"116 572 CURVE",
"112 556 OFFCURVE",
"107 542 OFFCURVE",
"103 526 CURVE",
"98 502 OFFCURVE",
"79 494 OFFCURVE",
"63 483 CURVE",
"60 481 OFFCURVE",
"53 483 OFFCURVE",
"51 486 CURVE",
"43 496 OFFCURVE",
"36 504 OFFCURVE",
"35 520 CURVE",
"33 551 OFFCURVE",
"51 568 OFFCURVE",
"63 589 CURVE",
"66 596 OFFCURVE",
"72 603 OFFCURVE",
"73 611 CURVE",
"75 631 OFFCURVE",
"89 636 OFFCURVE",
"102 635 CURVE",
"108 635 OFFCURVE",
"114 620 OFFCURVE",
"119 611 CURVE",
"121 608 OFFCURVE",
"120 604 OFFCURVE",
"120 600 CURVE",
"120 600 OFFCURVE",
"121 600 OFFCURVE",
"121 600 CURVE"
);
}
);
width = 91;
}
);
unicode = 0069;
},
{
glyphname = j;
lastChange = "2018-11-09 10:46:59 +0000";
layers = (
{
layerId = "05094513-8B3E-496E-80F7-D1F3E9D5BA68";
paths = (
{
closed = 1;
nodes = (
"152 -73 OFFCURVE",
"151 -146 OFFCURVE",
"130 -215 CURVE",
"122 -244 OFFCURVE",
"107 -272 OFFCURVE",
"92 -297 CURVE",
"76 -322 OFFCURVE",
"49 -325 OFFCURVE",
"23 -320 CURVE",
"-11 -315 OFFCURVE",
"-40 -297 OFFCURVE",
"-65 -274 CURVE",
"-93 -250 OFFCURVE",
"-118 -223 OFFCURVE",
"-131 -188 CURVE",
"-150 -137 OFFCURVE",
"-159 -86 OFFCURVE",
"-133 -35 CURVE",
"-130 -28 OFFCURVE",
"-120 -23 OFFCURVE",
"-113 -22 CURVE",
"-109 -21 OFFCURVE",
"-102 -31 OFFCURVE",
"-99 -37 CURVE",
"-90 -56 OFFCURVE",
"-90 -75 OFFCURVE",
"-98 -95 CURVE",
"-107 -118 OFFCURVE",
"-101 -138 OFFCURVE",
"-87 -156 CURVE",
"-67 -182 OFFCURVE",
"-46 -206 OFFCURVE",
"-18 -221 CURVE",
"-12 -224 OFFCURVE",
"-6 -227 OFFCURVE",
"0 -229 CURVE",
"29 -236 OFFCURVE",
"44 -230 OFFCURVE",
"58 -203 CURVE",
"79 -164 OFFCURVE",
"87 -122 OFFCURVE",
"93 -79 CURVE",
"104 10 OFFCURVE",
"99 99 OFFCURVE",
"89 189 CURVE",
"79 272 OFFCURVE",
"74 355 OFFCURVE",
"67 438 CURVE",
"66 443 OFFCURVE",
"72 449 OFFCURVE",
"75 454 CURVE",
"81 450 OFFCURVE",
"90 448 OFFCURVE",
"93 443 CURVE",
"113 405 OFFCURVE",
"116 361 OFFCURVE",
"122 319 CURVE",
"132 251 OFFCURVE",
"140 183 OFFCURVE",
"147 115 CURVE",
"152 77 OFFCURVE",
"154 38 OFFCURVE",
"156 7 CURVE"
);
},
{
closed = 1;
nodes = (
"66 483 OFFCURVE",
"65 487 OFFCURVE",
"64 487 CURVE",
"49 488 OFFCURVE",
"50 500 OFFCURVE",
"46 510 CURVE",
"31 545 OFFCURVE",
"53 568 OFFCURVE",
"71 591 CURVE",
"81 605 OFFCURVE",
"94 617 OFFCURVE",
"107 629 CURVE",
"116 637 OFFCURVE",
"126 631 OFFCURVE",
"128 624 CURVE",
"134 608 OFFCURVE",
"144 591 OFFCURVE",
"133 573 CURVE",
"129 568 OFFCURVE",
"128 561 OFFCURVE",
"128 555 CURVE",
"130 528 OFFCURVE",
"109 514 OFFCURVE",
"94 498 CURVE",
"87 490 OFFCURVE",
"77 486 OFFCURVE",
"68 480 CURVE"
);
}
);
width = 165;
}
);
unicode = 006A;
},
{
glyphname = k;
lastChange = "2018-11-30 11:45:34 +0000";
layers = (
{
layerId = "05094513-8B3E-496E-80F7-D1F3E9D5BA68";
paths = (
{
closed = 1;
nodes = (
"85 285 OFFCURVE",
"101 297 OFFCURVE",
"114 313 CURVE",
"133 337 OFFCURVE",
"151 361 OFFCURVE",
"168 385 CURVE",
"178 400 OFFCURVE",
"189 411 OFFCURVE",
"207 413 CURVE",
"229 380 OFFCURVE",
"229 336 OFFCURVE",
"206 304 CURVE",
"180 265 OFFCURVE",
"149 231 OFFCURVE",
"109 206 CURVE",
"98 199 OFFCURVE",
"98 192 OFFCURVE",
"107 183 CURVE",
"114 174 OFFCURVE",
"122 165 OFFCURVE",
"130 157 CURVE",
"150 135 OFFCURVE",
"176 130 OFFCURVE",
"202 144 CURVE",
"210 148 OFFCURVE",
"218 153 OFFCURVE",
"226 159 CURVE",
"244 172 OFFCURVE",
"244 173 OFFCURVE",
"265 173 CURVE",
"267 156 OFFCURVE",
"269 140 OFFCURVE",
"271 123 CURVE",
"272 120 OFFCURVE",
"273 117 OFFCURVE",
"272 114 CURVE",
"266 78 OFFCURVE",
"223 38 OFFCURVE",
"185 34 CURVE",
"160 31 OFFCURVE",
"140 40 OFFCURVE",
"123 60 CURVE",
"106 78 OFFCURVE",
"87 95 OFFCURVE",
"69 113 CURVE",
"67 114 OFFCURVE",
"65 114 OFFCURVE",
"62 115 CURVE",
"60 87 OFFCURVE",
"58 36 OFFCURVE",
"56 -14 CURVE",
"54 -15 OFFCURVE",
"52 -15 OFFCURVE",
"50 -15 CURVE",
"31 -2 OFFCURVE",
"24 19 OFFCURVE",
"16 40 CURVE",
"14 48 OFFCURVE",
"10 55 OFFCURVE",
"7 62 CURVE",
"5 66 OFFCURVE",
"3 71 OFFCURVE",
"4 75 CURVE",
"6 127 OFFCURVE",
"8 155 OFFCURVE",
"10 207 CURVE",
"10 215 OFFCURVE",
"6 224 OFFCURVE",
"6 232 CURVE",
"7 249 OFFCURVE",
"11 265 OFFCURVE",
"12 281 CURVE",
"21 386 OFFCURVE",
"29 491 OFFCURVE",
"37 597 CURVE",
"38 613 OFFCURVE",
"36 630 OFFCURVE",
"36 647 CURVE",
"35 651 OFFCURVE",
"34 656 OFFCURVE",
"36 659 CURVE",
"37 663 OFFCURVE",
"41 666 OFFCURVE",
"43 669 CURVE",
"46 666 OFFCURVE",
"51 664 OFFCURVE",
"52 660 CURVE",
"65 629 OFFCURVE",
"73 595 OFFCURVE",
"72 561 CURVE",
"71 517 OFFCURVE",
"69 474 OFFCURVE",
"67 430 CURVE",
"66 380 OFFCURVE",
"64 330 OFFCURVE",
"62 278 CURVE"
);
}
);
width = 273;
}
);
unicode = 006B;
},
{
glyphname = l;
lastChange = "2018-11-30 11:46:38 +0000";
layers = (
{
layerId = "05094513-8B3E-496E-80F7-D1F3E9D5BA68";
paths = (
{
closed = 1;
nodes = (
"107 128 OFFCURVE",
"125 141 OFFCURVE",
"144 152 CURVE",
"147 154 OFFCURVE",
"155 153 OFFCURVE",
"156 151 CURVE",
"161 139 OFFCURVE",
"163 127 OFFCURVE",
"168 115 CURVE",
"174 97 OFFCURVE",
"165 83 OFFCURVE",
"156 70 CURVE",
"143 52 OFFCURVE",
"128 34 OFFCURVE",
"112 18 CURVE",
"94 1 OFFCURVE",
"74 4 OFFCURVE",
"60 25 CURVE",
"32 68 OFFCURVE",
"18 116 OFFCURVE",
"10 166 CURVE",
"-3 242 OFFCURVE",
"4 318 OFFCURVE",
"10 394 CURVE",
"15 458 OFFCURVE",
"21 521 OFFCURVE",
"30 585 CURVE",
"34 617 OFFCURVE",
"44 648 OFFCURVE",
"52 679 CURVE",
"52 682 OFFCURVE",
"59 687 OFFCURVE",
"60 686 CURVE",
"66 682 OFFCURVE",
"74 678 OFFCURVE",
"75 672 CURVE",
"79 658 OFFCURVE",
"83 643 OFFCURVE",
"82 629 CURVE",
"80 595 OFFCURVE",
"76 562 OFFCURVE",
"72 529 CURVE",
"61 425 OFFCURVE",
"54 321 OFFCURVE",
"58 216 CURVE",
"59 192 OFFCURVE",
"64 168 OFFCURVE",
"70 144 CURVE",
"72 133 OFFCURVE",
"80 124 OFFCURVE",
"86 114 CURVE"
);
}
);
width = 155;
}
);
unicode = 006C;
},
{
glyphname = m;
lastChange = "2018-11-30 11:43:46 +0000";
layers = (
{
layerId = "05094513-8B3E-496E-80F7-D1F3E9D5BA68";
paths = (
{
closed = 1;
nodes = (
"19 19 OFFCURVE",
"17 43 OFFCURVE",
"10 66 CURVE",
"-7 113 OFFCURVE",
"7 160 OFFCURVE",
"7 207 CURVE",
"7 253 OFFCURVE",
"9 298 OFFCURVE",
"11 343 CURVE",
"11 353 OFFCURVE",
"9 367 OFFCURVE",
"26 360 CURVE",
"29 359 OFFCURVE",
"34 364 OFFCURVE",
"38 367 CURVE",
"49 377 OFFCURVE",
"60 388 OFFCURVE",
"72 397 CURVE",
"96 414 OFFCURVE",
"120 410 OFFCURVE",
"139 387 CURVE",
"143 381 OFFCURVE",
"148 378 OFFCURVE",
"154 373 CURVE",
"167 387 OFFCURVE",
"179 400 OFFCURVE",
"190 413 CURVE",
"204 429 OFFCURVE",
"222 426 OFFCURVE",
"240 426 CURVE",
"242 426 OFFCURVE",
"244 425 OFFCURVE",
"245 423 CURVE",
"256 410 OFFCURVE",
"266 396 OFFCURVE",
"276 382 CURVE",
"312 337 OFFCURVE",
"333 286 OFFCURVE",
"340 229 CURVE",
"343 193 OFFCURVE",
"342 155 OFFCURVE",
"341 117 CURVE",
"341 88 OFFCURVE",
"338 59 OFFCURVE",
"334 30 CURVE",
"334 23 OFFCURVE",
"328 17 OFFCURVE",
"324 11 CURVE",
"318 16 OFFCURVE",
"309 21 OFFCURVE",
"306 26 CURVE",
"285 76 OFFCURVE",
"281 127 OFFCURVE",
"290 180 CURVE",
"298 224 OFFCURVE",
"290 264 OFFCURVE",
"258 296 CURVE",
"237 316 OFFCURVE",
"226 315 OFFCURVE",
"207 293 CURVE",
"194 280 OFFCURVE",
"188 265 OFFCURVE",
"189 246 CURVE",
"193 183 OFFCURVE",
"186 120 OFFCURVE",
"171 60 CURVE",
"170 55 OFFCURVE",
"163 52 OFFCURVE",
"159 48 CURVE",
"156 52 OFFCURVE",
"151 55 OFFCURVE",
"149 60 CURVE",
"142 81 OFFCURVE",
"135 104 OFFCURVE",
"128 126 CURVE",
"127 131 OFFCURVE",
"128 138 OFFCURVE",
"129 144 CURVE",
"133 171 OFFCURVE",
"139 199 OFFCURVE",
"141 226 CURVE",
"142 244 OFFCURVE",
"139 262 OFFCURVE",
"136 281 CURVE",
"135 291 OFFCURVE",
"119 295 OFFCURVE",
"104 291 CURVE",
"79 284 OFFCURVE",
"52 245 OFFCURVE",
"52 217 CURVE",
"53 154 OFFCURVE",
"57 90 OFFCURVE",
"46 26 CURVE",
"45 19 OFFCURVE",
"42 10 OFFCURVE",
"40 0 CURVE"
);
}
);
width = 352;
}
);
unicode = 006D;
},
{
glyphname = n;
lastChange = "2018-11-30 11:50:06 +0000";
layers = (
{
layerId = "05094513-8B3E-496E-80F7-D1F3E9D5BA68";
paths = (
{
closed = 1;
nodes = (
"21 18 OFFCURVE",
"13 31 OFFCURVE",
"7 44 CURVE SMOOTH",
"-7 72 OFFCURVE",
"-4 101 OFFCURVE",
"4 132 CURVE SMOOTH",
"13 172 OFFCURVE",
"16 214 OFFCURVE",
"21 256 CURVE SMOOTH",
"23 288 OFFCURVE",
"19 318 OFFCURVE",
"19 351 CURVE SMOOTH",
"19 355 OFFCURVE",
"25 359 OFFCURVE",
"28 365 CURVE SMOOTH",
"37 354 OFFCURVE",
"42 352 OFFCURVE",
"49 363 CURVE SMOOTH",
"53 370 OFFCURVE",
"63 373 OFFCURVE",
"68 380 CURVE SMOOTH",
"95 400 OFFCURVE",
"115 402 OFFCURVE",
"146 380 CURVE SMOOTH",
"189 351 OFFCURVE",
"212 313 OFFCURVE",
"222 267 CURVE SMOOTH",
"235 208 OFFCURVE",
"234 149 OFFCURVE",
"223 90 CURVE SMOOTH",
"219 66 OFFCURVE",
"215 41 OFFCURVE",
"211 15 CURVE SMOOTH",
"210 9 OFFCURVE",
"203 5 OFFCURVE",
"199 -2 CURVE SMOOTH",
"193 3 OFFCURVE",
"186 6 OFFCURVE",
"185 11 CURVE SMOOTH",
"176 29 OFFCURVE",
"167 47 OFFCURVE",
"163 66 CURVE SMOOTH",
"161 77 OFFCURVE",
"163 91 OFFCURVE",
"164 103 CURVE SMOOTH",
"169 148 OFFCURVE",
"175 194 OFFCURVE",
"179 236 CURVE SMOOTH",
"181 260 OFFCURVE",
"166 278 OFFCURVE",
"142 288 CURVE SMOOTH",
"123 299 OFFCURVE",
"105 297 OFFCURVE",
"90 280 CURVE SMOOTH",
"80 265 OFFCURVE",
"68 250 OFFCURVE",
"68 229 CURVE SMOOTH",
"71 157 OFFCURVE",
"65 86 OFFCURVE",
"38 15 CURVE SMOOTH",
"37 13 OFFCURVE",
"36 11 OFFCURVE",
"35 9 CURVE SMOOTH",
"33 8 OFFCURVE",
"30 8 OFFCURVE",
"29 7 CURVE SMOOTH"
);
}
);
width = 237;
}
);
unicode = 006E;
},
{
glyphname = o;
lastChange = "2018-11-30 11:39:58 +0000";
layers = (
{
layerId = "05094513-8B3E-496E-80F7-D1F3E9D5BA68";
paths = (
{
closed = 1;
nodes = (
"5 268 OFFCURVE",
"13 325 OFFCURVE",
"47 375 CURVE SMOOTH",
"63 398 OFFCURVE",
"83 413 OFFCURVE",
"111 412 CURVE SMOOTH",
"118 412 OFFCURVE",
"122 412 OFFCURVE",
"127 411 CURVE SMOOTH",
"141 406 OFFCURVE",
"156 401 OFFCURVE",
"173 393 CURVE SMOOTH",
"221 374 OFFCURVE",
"243 331 OFFCURVE",
"256 283 CURVE SMOOTH",
"276 206 OFFCURVE",
"255 134 OFFCURVE",
"218 67 CURVE SMOOTH",
"204 40 OFFCURVE",
"180 28 OFFCURVE",
"153 21 CURVE SMOOTH",
"131 15 OFFCURVE",
"106 10 OFFCURVE",
"85 10 CURVE SMOOTH",
"63 10 OFFCURVE",
"45 27 OFFCURVE",
"38 45 CURVE SMOOTH",
"24 79 OFFCURVE",
"14 116 OFFCURVE",
"5 151 CURVE SMOOTH",
"1 171 OFFCURVE",
"2 189 OFFCURVE",
"0 209 CURVE SMOOTH"
);
},
{
closed = 1;
nodes = (
"98 289 OFFCURVE",
"85 280 OFFCURVE",
"75 268 CURVE SMOOTH",
"57 242 OFFCURVE",
"47 213 OFFCURVE",
"50 179 CURVE SMOOTH",
"53 136 OFFCURVE",
"70 124 OFFCURVE",
"110 123 CURVE SMOOTH",
"156 122 OFFCURVE",
"187 150 OFFCURVE",
"205 200 CURVE SMOOTH",
"215 233 OFFCURVE",
"203 260 OFFCURVE",
"169 273 CURVE SMOOTH",
"161 276 OFFCURVE",
"150 280 OFFCURVE",
"139 280 CURVE SMOOTH",
"127 279 OFFCURVE",
"119 283 OFFCURVE",
"115 303 CURVE SMOOTH"
);
}
);
width = 264;
}
);
unicode = 006F;
},
{
glyphname = odieresis;
lastChange = "2018-11-30 11:36:39 +0000";
layers = (
{
layerId = "05094513-8B3E-496E-80F7-D1F3E9D5BA68";
paths = (
{
closed = 1;
nodes = (
"-3 275 OFFCURVE",
"26 340 OFFCURVE",
"84 392 CURVE",
"92 398 OFFCURVE",
"103 400 OFFCURVE",
"113 404 CURVE",
"123 408 OFFCURVE",
"135 412 OFFCURVE",
"145 414 CURVE",
"148 415 OFFCURVE",
"153 415 OFFCURVE",
"156 414 CURVE",
"175 401 OFFCURVE",
"194 390 OFFCURVE",
"211 375 CURVE",
"243 347 OFFCURVE",
"251 308 OFFCURVE",
"256 266 CURVE",
"260 221 OFFCURVE",
"255 178 OFFCURVE",
"239 137 CURVE",
"218 79 OFFCURVE",
"185 32 OFFCURVE",
"129 4 CURVE",
"103 -7 OFFCURVE",
"52 8 OFFCURVE",
"39 34 CURVE",
"26 59 OFFCURVE",
"16 86 OFFCURVE",
"8 114 CURVE",
"1 140 OFFCURVE",
"-2 168 OFFCURVE",
"-7 195 CURVE"
);
},
{
closed = 1;
nodes = (
"113 104 OFFCURVE",
"121 106 OFFCURVE",
"128 111 CURVE",
"176 140 OFFCURVE",
"199 187 OFFCURVE",
"210 241 CURVE",
"211 249 OFFCURVE",
"207 261 OFFCURVE",
"201 267 CURVE",
"186 280 OFFCURVE",
"169 292 OFFCURVE",
"152 304 CURVE",
"149 306 OFFCURVE",
"143 304 OFFCURVE",
"140 302 CURVE",
"134 300 OFFCURVE",
"129 297 OFFCURVE",
"123 294 CURVE",
"117 290 OFFCURVE",
"108 287 OFFCURVE",
"102 281 CURVE",
"76 257 OFFCURVE",
"60 227 OFFCURVE",
"49 194 CURVE",
"45 180 OFFCURVE",
"41 167 OFFCURVE",
"41 155 CURVE",
"42 128 OFFCURVE",
"74 103 OFFCURVE",
"105 101 CURVE"
);
},
{
closed = 1;
nodes = (
"183 487 OFFCURVE",
"179 494 OFFCURVE",
"178 502 CURVE",
"169 533 OFFCURVE",
"162 564 OFFCURVE",
"170 596 CURVE",
"172 603 OFFCURVE",
"176 611 OFFCURVE",
"181 614 CURVE",
"193 621 OFFCURVE",
"202 614 OFFCURVE",
"207 599 CURVE",
"209 594 OFFCURVE",
"211 589 OFFCURVE",
"212 585 CURVE",
"214 552 OFFCURVE",
"213 520 OFFCURVE",
"200 491 CURVE",
"199 486 OFFCURVE",
"195 483 OFFCURVE",
"188 476 CURVE"
);
},
{
closed = 1;
nodes = (
"116 479 OFFCURVE",
"109 493 OFFCURVE",
"107 509 CURVE",
"104 533 OFFCURVE",
"103 559 OFFCURVE",
"103 585 CURVE",
"103 589 OFFCURVE",
"110 597 OFFCURVE",
"113 597 CURVE",
"120 597 OFFCURVE",
"130 594 OFFCURVE",
"132 589 CURVE",
"138 577 OFFCURVE",
"140 564 OFFCURVE",
"142 550 CURVE",
"149 524 OFFCURVE",
"140 500 OFFCURVE",
"134 475 CURVE",
"133 471 OFFCURVE",
"128 469 OFFCURVE",
"121 463 CURVE"
);
}
);
width = 281;
}
);
unicode = 00F6;
},
{
glyphname = p;
lastChange = "2018-11-30 11:37:41 +0000";
layers = (
{
layerId = "05094513-8B3E-496E-80F7-D1F3E9D5BA68";
paths = (
{
closed = 1;
nodes = (
"61 15 OFFCURVE",
"58 -43 OFFCURVE",
"52 -100 CURVE",
"45 -162 OFFCURVE",
"37 -223 OFFCURVE",
"30 -284 CURVE",
"27 -294 OFFCURVE",
"24 -306 OFFCURVE",
"20 -316 CURVE",
"19 -320 OFFCURVE",
"14 -323 OFFCURVE",
"11 -328 CURVE",
"8 -324 OFFCURVE",
"3 -321 OFFCURVE",
"1 -318 CURVE",
"-10 -297 OFFCURVE",
"-21 -277 OFFCURVE",
"-29 -254 CURVE",
"-31 -249 OFFCURVE",
"-30 -241 OFFCURVE",
"-29 -232 CURVE",
"-19 -152 OFFCURVE",
"-6 -72 OFFCURVE",
"4 9 CURVE",
"13 90 OFFCURVE",
"22 173 OFFCURVE",
"30 254 CURVE",
"32 283 OFFCURVE",
"28 312 OFFCURVE",
"26 341 CURVE",
"25 360 OFFCURVE",
"49 387 OFFCURVE",
"71 390 CURVE",
"106 395 OFFCURVE",
"138 385 OFFCURVE",
"168 370 CURVE",
"271 322 OFFCURVE",
"317 205 OFFCURVE",
"276 97 CURVE",
"264 66 OFFCURVE",
"242 39 OFFCURVE",
"211 31 CURVE",
"187 23 OFFCURVE",
"159 25 OFFCURVE",
"136 32 CURVE",
"112 38 OFFCURVE",
"89 55 OFFCURVE",
"66 69 CURVE"
);
},
{
closed = 1;
nodes = (
"71 174 OFFCURVE",
"71 174 OFFCURVE",
"94 155 CURVE",
"144 118 OFFCURVE",
"198 127 OFFCURVE",
"235 181 CURVE",
"246 201 OFFCURVE",
"246 205 OFFCURVE",
"232 219 CURVE",
"222 229 OFFCURVE",
"213 237 OFFCURVE",
"204 243 CURVE",
"171 267 OFFCURVE",
"134 279 OFFCURVE",
"93 275 CURVE",
"81 274 OFFCURVE",
"73 269 OFFCURVE",
"74 253 CURVE",
"75 242 OFFCURVE",
"74 231 OFFCURVE",
"74 217 CURVE"
);
}
);
width = 301;
}
);
unicode = 0070;
},
{
glyphname = q;
lastChange = "2018-11-09 10:25:45 +0000";
layers = (
{
layerId = "05094513-8B3E-496E-80F7-D1F3E9D5BA68";
paths = (
{
closed = 1;
nodes = (
"213 38 OFFCURVE",
"245 43 OFFCURVE",
"275 48 CURVE",
"281 35 OFFCURVE",
"287 26 OFFCURVE",
"290 15 CURVE",
"297 -9 OFFCURVE",
"284 -40 OFFCURVE",
"264 -51 CURVE",
"255 -55 OFFCURVE",
"247 -60 OFFCURVE",
"238 -65 CURVE",
"233 -69 OFFCURVE",
"229 -73 OFFCURVE",
"224 -78 CURVE",
"217 -70 OFFCURVE",
"211 -71 OFFCURVE",
"204 -82 CURVE",
"201 -87 OFFCURVE",
"194 -89 OFFCURVE",
"189 -91 CURVE",
"176 -96 OFFCURVE",
"169 -102 OFFCURVE",
"168 -121 CURVE",
"166 -173 OFFCURVE",
"161 -224 OFFCURVE",
"156 -276 CURVE",
"155 -285 OFFCURVE",
"150 -294 OFFCURVE",
"145 -307 CURVE",
"103 -246 OFFCURVE",
"111 -181 OFFCURVE",
"119 -115 CURVE",
"100 -115 OFFCURVE",
"83 -115 OFFCURVE",
"66 -115 CURVE",
"47 -115 OFFCURVE",
"43 -96 OFFCURVE",
"38 -82 CURVE",
"33 -67 OFFCURVE",
"33 -50 OFFCURVE",
"31 -34 CURVE",
"28 -20 OFFCURVE",
"34 -14 OFFCURVE",
"45 -11 CURVE",
"69 -4 OFFCURVE",
"92 3 OFFCURVE",
"116 8 CURVE",
"129 12 OFFCURVE",
"134 20 OFFCURVE",
"135 33 CURVE",
"135 47 OFFCURVE",
"136 60 OFFCURVE",
"138 78 CURVE",
"122 66 OFFCURVE",
"103 67 OFFCURVE",
"96 47 CURVE",
"95 44 OFFCURVE",
"93 43 OFFCURVE",
"91 43 CURVE",
"73 36 OFFCURVE",
"46 49 OFFCURVE",
"36 68 CURVE",
"19 97 OFFCURVE",
"16 132 OFFCURVE",
"12 165 CURVE",
"5 235 OFFCURVE",
"17 299 OFFCURVE",
"47 359 CURVE",
"56 377 OFFCURVE",
"68 394 OFFCURVE",
"80 409 CURVE",
"95 427 OFFCURVE",
"110 425 OFFCURVE",
"128 419 CURVE",
"158 409 OFFCURVE",
"160 381 OFFCURVE",
"168 356 CURVE",
"170 349 OFFCURVE",
"173 342 OFFCURVE",
"178 338 CURVE",
"191 323 OFFCURVE",
"191 306 OFFCURVE",
"190 288 CURVE",
"187 208 OFFCURVE",
"183 126 OFFCURVE",
"180 45 CURVE",
"180 41 OFFCURVE",
"180 36 OFFCURVE",
"180 32 CURVE"
);
},
{
closed = 1;
nodes = (
"150 201 OFFCURVE",
"151 220 OFFCURVE",
"152 241 CURVE",
"138 225 OFFCURVE",
"131 222 OFFCURVE",
"128 232 CURVE",
"122 247 OFFCURVE",
"119 263 OFFCURVE",
"116 278 CURVE",
"114 286 OFFCURVE",
"114 294 OFFCURVE",
"113 306 CURVE",
"102 297 OFFCURVE",
"92 292 OFFCURVE",
"85 285 CURVE",
"63 262 OFFCURVE",
"54 230 OFFCURVE",
"50 197 CURVE",
"47 172 OFFCURVE",
"53 164 OFFCURVE",
"75 165 CURVE",
"99 168 OFFCURVE",
"123 173 OFFCURVE",
"148 178 CURVE"
);
}
);
width = 242;
}
);
unicode = 0071;
},
{
glyphname = r;
lastChange = "2018-11-30 11:32:38 +0000";
layers = (
{
layerId = "05094513-8B3E-496E-80F7-D1F3E9D5BA68";
paths = (
{
closed = 1;
nodes = (
"14 26 OFFCURVE",
"1 53 OFFCURVE",
"3 87 CURVE",
"6 127 OFFCURVE",
"11 168 OFFCURVE",
"16 208 CURVE",
"20 234 OFFCURVE",
"23 259 OFFCURVE",
"9 284 CURVE",
"3 292 OFFCURVE",
"-1 308 OFFCURVE",
"3 316 CURVE",
"22 350 OFFCURVE",
"18 387 OFFCURVE",
"21 424 CURVE",
"22 429 OFFCURVE",
"27 434 OFFCURVE",
"31 439 CURVE",
"77 434 OFFCURVE",
"60 392 OFFCURVE",
"72 362 CURVE",
"93 367 OFFCURVE",
"114 372 OFFCURVE",
"134 377 CURVE",
"154 382 OFFCURVE",
"173 392 OFFCURVE",
"193 392 CURVE",
"206 393 OFFCURVE",
"226 386 OFFCURVE",
"232 376 CURVE",
"238 365 OFFCURVE",
"236 342 OFFCURVE",
"229 331 CURVE",
"219 316 OFFCURVE",
"202 304 OFFCURVE",
"186 296 CURVE",
"157 282 OFFCURVE",
"128 272 OFFCURVE",
"98 263 CURVE",
"74 256 OFFCURVE",
"67 242 OFFCURVE",
"66 217 CURVE",
"63 155 OFFCURVE",
"57 94 OFFCURVE",
"52 32 CURVE",
"52 23 OFFCURVE",
"48 15 OFFCURVE",
"44 1 CURVE"
);
}
);
width = 221;
}
);
unicode = 0072;
},
{
glyphname = s;
lastChange = "2018-11-30 11:27:44 +0000";
layers = (
{
layerId = "05094513-8B3E-496E-80F7-D1F3E9D5BA68";
paths = (
{
closed = 1;
nodes = (
"87 298 OFFCURVE",
"68 268 OFFCURVE",
"61 231 CURVE",
"57 210 OFFCURVE",
"65 194 OFFCURVE",
"84 187 CURVE",
"85 186 OFFCURVE",
"88 183 OFFCURVE",
"90 183 CURVE",
"117 177 OFFCURVE",
"134 158 OFFCURVE",
"148 135 CURVE",
"170 101 OFFCURVE",
"166 66 OFFCURVE",
"159 30 CURVE",
"155 14 OFFCURVE",
"140 5 OFFCURVE",
"123 6 CURVE",
"109 7 OFFCURVE",
"99 3 OFFCURVE",
"85 4 CURVE",
"51 5 OFFCURVE",
"24 20 OFFCURVE",
"12 55 CURVE",
"1 81 OFFCURVE",
"-4 110 OFFCURVE",
"-3 139 CURVE",
"-3 148 OFFCURVE",
"3 155 OFFCURVE",
"6 162 CURVE",
"30 141 OFFCURVE",
"33 105 OFFCURVE",
"70 96 CURVE",
"63 106 OFFCURVE",
"58 113 OFFCURVE",
"54 121 CURVE",
"30 171 OFFCURVE",
"22 223 OFFCURVE",
"31 278 CURVE",
"40 327 OFFCURVE",
"66 364 OFFCURVE",
"100 398 CURVE",
"109 406 OFFCURVE",
"117 416 OFFCURVE",
"123 427 CURVE",
"129 438 OFFCURVE",
"144 440 OFFCURVE",
"151 430 CURVE",
"161 414 OFFCURVE",
"174 401 OFFCURVE",
"175 380 CURVE",
"177 339 OFFCURVE",
"176 299 OFFCURVE",
"155 263 CURVE",
"151 254 OFFCURVE",
"143 248 OFFCURVE",
"135 236 CURVE",
"122 266 OFFCURVE",
"117 291 OFFCURVE",
"121 323 CURVE"
);
}
);
width = 196;
}
);
unicode = 0073;
},
{
glyphname = t;
lastChange = "2018-11-30 11:49:14 +0000";
layers = (
{
layerId = "05094513-8B3E-496E-80F7-D1F3E9D5BA68";
paths = (
{
closed = 1;
nodes = (
"30 245 OFFCURVE",
"17 243 OFFCURVE",
"12 259 CURVE",
"3 284 OFFCURVE",
"-2 310 OFFCURVE",
"1 337 CURVE",
"3 349 OFFCURVE",
"14 351 OFFCURVE",
"24 351 CURVE",
"37 351 OFFCURVE",
"54 346 OFFCURVE",
"63 353 CURVE",
"72 360 OFFCURVE",
"72 377 OFFCURVE",
"76 391 CURVE",
"90 436 OFFCURVE",
"103 482 OFFCURVE",
"117 528 CURVE",
"121 539 OFFCURVE",
"129 550 OFFCURVE",
"137 565 CURVE",
"140 556 OFFCURVE",
"144 550 OFFCURVE",
"145 544 CURVE",
"149 524 OFFCURVE",
"139 506 OFFCURVE",
"135 487 CURVE",
"126 445 OFFCURVE",
"117 403 OFFCURVE",
"108 361 CURVE",
"108 359 OFFCURVE",
"108 357 OFFCURVE",
"109 351 CURVE",
"130 351 OFFCURVE",
"151 351 OFFCURVE",
"173 351 CURVE",
"185 352 OFFCURVE",
"192 349 OFFCURVE",
"196 334 CURVE",
"205 293 OFFCURVE",
"191 272 OFFCURVE",
"153 258 CURVE",
"133 250 OFFCURVE",
"113 252 OFFCURVE",
"96 243 CURVE",
"91 241 OFFCURVE",
"85 236 OFFCURVE",
"85 231 CURVE",
"80 201 OFFCURVE",
"78 171 OFFCURVE",
"75 140 CURVE",
"73 114 OFFCURVE",
"99 99 OFFCURVE",
"124 110 CURVE",
"137 117 OFFCURVE",
"150 125 OFFCURVE",
"164 133 CURVE",
"182 144 OFFCURVE",
"184 143 OFFCURVE",
"190 121 CURVE",
"199 88 OFFCURVE",
"186 62 OFFCURVE",
"163 42 CURVE",
"150 31 OFFCURVE",
"137 22 OFFCURVE",
"123 14 CURVE",
"98 1 OFFCURVE",
"70 17 OFFCURVE",
"58 50 CURVE",
"38 106 OFFCURVE",
"29 161 OFFCURVE",
"40 220 CURVE",
"41 226 OFFCURVE",
"42 233 OFFCURVE",
"42 239 CURVE",
"42 240 OFFCURVE",
"42 240 OFFCURVE",
"41 243 CURVE"
);
}
);
width = 210;
}
);
unicode = 0074;
},
{
glyphname = u;
lastChange = "2018-11-09 10:25:52 +0000";
layers = (
{
layerId = "05094513-8B3E-496E-80F7-D1F3E9D5BA68";
paths = (
{
closed = 1;
nodes = (
"227 351 OFFCURVE",
"220 316 OFFCURVE",
"217 282 CURVE",
"215 238 OFFCURVE",
"210 195 OFFCURVE",
"206 152 CURVE",
"206 146 OFFCURVE",
"206 140 OFFCURVE",
"207 134 CURVE",
"209 118 OFFCURVE",
"218 110 OFFCURVE",
"235 111 CURVE",
"247 112 OFFCURVE",
"255 112 OFFCURVE",
"256 94 CURVE",
"257 81 OFFCURVE",
"258 69 OFFCURVE",
"254 57 CURVE",
"247 35 OFFCURVE",
"221 18 OFFCURVE",
"200 26 CURVE",
"190 29 OFFCURVE",
"183 39 OFFCURVE",
"175 46 CURVE",
"167 39 OFFCURVE",
"157 31 OFFCURVE",
"148 22 CURVE",
"109 -16 OFFCURVE",
"49 0 OFFCURVE",
"28 52 CURVE",
"-4 129 OFFCURVE",
"-4 207 OFFCURVE",
"20 285 CURVE",
"30 318 OFFCURVE",
"44 350 OFFCURVE",
"56 383 CURVE",
"60 393 OFFCURVE",
"65 395 OFFCURVE",
"74 387 CURVE",
"85 376 OFFCURVE",
"91 365 OFFCURVE",
"88 349 CURVE",
"87 340 OFFCURVE",
"90 330 OFFCURVE",
"88 321 CURVE",
"80 291 OFFCURVE",
"70 261 OFFCURVE",
"64 230 CURVE",
"58 202 OFFCURVE",
"52 173 OFFCURVE",
"52 144 CURVE",
"53 114 OFFCURVE",
"97 96 OFFCURVE",
"123 111 CURVE",
"150 126 OFFCURVE",
"161 145 OFFCURVE",
"163 178 CURVE",
"165 233 OFFCURVE",
"175 288 OFFCURVE",
"182 343 CURVE",
"184 354 OFFCURVE",
"187 365 OFFCURVE",
"190 375 CURVE",
"191 378 OFFCURVE",
"195 379 OFFCURVE",
"198 382 CURVE"
);
}
);
width = 257;
}
);
unicode = 0075;
},
{
glyphname = v;
lastChange = "2018-11-30 11:40:09 +0000";
layers = (
{
layerId = "05094513-8B3E-496E-80F7-D1F3E9D5BA68";
paths = (
{
closed = 1;
nodes = (
"74 149 OFFCURVE",
"81 161 OFFCURVE",
"87 175 CURVE",
"111 227 OFFCURVE",
"136 281 OFFCURVE",
"160 334 CURVE",
"169 351 OFFCURVE",
"178 369 OFFCURVE",
"197 376 CURVE",
"200 378 OFFCURVE",
"208 376 OFFCURVE",
"208 374 CURVE",
"213 356 OFFCURVE",
"225 342 OFFCURVE",
"221 320 CURVE",
"214 289 OFFCURVE",
"204 261 OFFCURVE",
"188 233 CURVE",
"164 190 OFFCURVE",
"147 143 OFFCURVE",
"126 98 CURVE",
"113 72 OFFCURVE",
"99 49 OFFCURVE",
"85 24 CURVE",
"84 21 OFFCURVE",
"81 18 OFFCURVE",
"81 14 CURVE",
"72 -4 OFFCURVE",
"67 -4 OFFCURVE",
"53 11 CURVE",
"35 33 OFFCURVE",
"28 59 OFFCURVE",
"22 85 CURVE",
"4 161 OFFCURVE",
"-6 239 OFFCURVE",
"4 318 CURVE",
"6 337 OFFCURVE",
"10 355 OFFCURVE",
"14 373 CURVE",
"15 379 OFFCURVE",
"21 383 OFFCURVE",
"26 387 CURVE",
"29 383 OFFCURVE",
"36 378 OFFCURVE",
"37 373 CURVE",
"39 347 OFFCURVE",
"42 320 OFFCURVE",
"42 294 CURVE",
"40 243 OFFCURVE",
"49 193 OFFCURVE",
"60 144 CURVE",
"60 142 OFFCURVE",
"62 139 OFFCURVE",
"66 133 CURVE"
);
}
);
width = 215;
}
);
unicode = 0076;
},
{
glyphname = w;
lastChange = "2018-11-30 11:34:24 +0000";
layers = (
{
layerId = "05094513-8B3E-496E-80F7-D1F3E9D5BA68";
paths = (
{
closed = 1;
nodes = (
"171.681 135.097 OFFCURVE",
"168.026 115.785 OFFCURVE",
"163.988 96.557 CURVE",
"159.604 75.682 OFFCURVE",
"154.877 54.883 OFFCURVE",
"150.271 34.057 CURVE",
"148.634 26.656 OFFCURVE",
"147.43 19.094 OFFCURVE",
"145.039 11.953 CURVE",
"143.558 7.528 OFFCURVE",
"140.851 1.187 OFFCURVE",
"137.552 0.331 CURVE",
"133.238 -0.79 OFFCURVE",
"125.555 1.028 OFFCURVE",
"123.208 4.412 CURVE",
"109.744 23.827 OFFCURVE",
"96.461 43.531 OFFCURVE",
"85.262 64.35 CURVE",
"81.427 71.48 OFFCURVE",
"81.931 82.52 OFFCURVE",
"83.706 91.062 CURVE",
"87.591 109.751 OFFCURVE",
"95.934 127.705 OFFCURVE",
"98.041 146.479 CURVE",
"100.391 167.414 OFFCURVE",
"101.476 189.825 OFFCURVE",
"96.716 210.009 CURVE",
"84.884 260.177 OFFCURVE",
"65.962 307.988 OFFCURVE",
"40.906 353.048 CURVE",
"17.973 394.291 OFFCURVE",
"4.369 438.678 OFFCURVE",
"0.339 485.942 CURVE",
"-0.247 492.81 OFFCURVE",
"2.768 500 OFFCURVE",
"4.356 508.294 CURVE",
"16.422 500.012 OFFCURVE",
"25.094 494.778 OFFCURVE",
"32.887 488.413 CURVE",
"36.938 485.104 OFFCURVE",
"41.77 480.049 OFFCURVE",
"42.254 475.351 CURVE",
"45.244 446.298 OFFCURVE",
"60.579 423.403 OFFCURVE",
"74.402 399.069 CURVE",
"97.135 359.049 OFFCURVE",
"117.14 317.401 OFFCURVE",
"139.208 274.671 CURVE",
"143.157 281.812 OFFCURVE",
"148.024 289.929 OFFCURVE",
"152.218 298.396 CURVE",
"156.036 306.104 OFFCURVE",
"159.886 313.95 OFFCURVE",
"162.369 322.165 CURVE",
"167.062 337.688 OFFCURVE",
"179.702 347.146 OFFCURVE",
"192.205 344.071 CURVE",
"202.337 341.579 OFFCURVE",
"213.433 328.514 OFFCURVE",
"217.355 317.593 CURVE",
"223.419 300.711 OFFCURVE",
"224.258 281.721 OFFCURVE",
"226.329 263.508 CURVE",
"228.454 244.815 OFFCURVE",
"229.398 225.981 OFFCURVE",
"230.859 207.208 CURVE",
"232.284 207.095 OFFCURVE",
"233.709 206.982 OFFCURVE",
"235.134 206.869 CURVE",
"245.555 255.379 OFFCURVE",
"255.761 303.939 OFFCURVE",
"266.47 352.382 CURVE",
"274.008 386.482 OFFCURVE",
"279.498 421.429 OFFCURVE",
"290.964 454.133 CURVE",
"301.074 482.968 OFFCURVE",
"310.067 513.394 OFFCURVE",
"331.966 536.85 CURVE",
"340.604 546.102 OFFCURVE",
"349.56 549.295 OFFCURVE",
"357.794 547.619 CURVE",
"363.904 540.193 OFFCURVE",
"367.627 534.747 OFFCURVE",
"372.232 530.249 CURVE",
"385.097 517.683 OFFCURVE",
"390.235 501.942 OFFCURVE",
"390.721 484.363 CURVE",
"390.957 475.79 OFFCURVE",
"390.087 467.179 OFFCURVE",
"389.629 458.59 CURVE",
"388.967 446.17 OFFCURVE",
"386.867 437.836 OFFCURVE",
"371.118 434.411 CURVE",
"363.175 432.683 OFFCURVE",
"356.051 416.198 OFFCURVE",
"352.694 405.074 CURVE",
"340.932 366.095 OFFCURVE",
"328.685 327.02 OFFCURVE",
"320.806 287.113 CURVE",
"305.28 208.477 OFFCURVE",
"292.539 129.262 OFFCURVE",
"278.712 50.274 CURVE",
"277.837 45.274 OFFCURVE",
"278.31 39.906 OFFCURVE",
"276.778 35.177 CURVE",
"274.725 28.84 OFFCURVE",
"272.69 20.758 OFFCURVE",
"267.997 17.706 CURVE",
"265.165 15.864 OFFCURVE",
"255.317 20.605 OFFCURVE",
"252.051 25.041 CURVE",
"238.281 43.741 OFFCURVE",
"224.623 62.739 OFFCURVE",
"213.206 82.979 CURVE",
"203.333 100.482 OFFCURVE",
"196.579 119.829 OFFCURVE",
"188.362 138.32 CURVE",
"185.932 143.789 OFFCURVE",
"183.218 149.124 OFFCURVE",
"180.634 154.521 CURVE",
"178.924 154.472 OFFCURVE",
"177.214 154.422 OFFCURVE",
"175.504 154.373 CURVE"
);
}
);
width = 351;
}
);
unicode = 0077;
},
{
glyphname = x;
lastChange = "2018-11-02 15:21:15 +0000";
layers = (
{
layerId = "05094513-8B3E-496E-80F7-D1F3E9D5BA68";
paths = (
{
closed = 1;
nodes = (
"135.007 350.673 OFFCURVE",
"160.379 400.79 OFFCURVE",
"170.897 457.08 CURVE",
"173.619 471.648 OFFCURVE",
"181.431 481.223 OFFCURVE",
"195.9 477.8 CURVE",
"202.882 476.148 OFFCURVE",
"208.528 464.553 OFFCURVE",
"212.862 456.392 CURVE",
"216.512 449.52 OFFCURVE",
"220.006 440.747 OFFCURVE",
"219.063 433.426 CURVE",
"213.544 390.596 OFFCURVE",
"210.166 347.417 OFFCURVE",
"190.415 307.568 CURVE",
"174.2 274.852 OFFCURVE",
"159.668 241.007 OFFCURVE",
"147.791 206.435 CURVE",
"144.185 195.939 OFFCURVE",
"149.495 180.134 OFFCURVE",
"154.942 168.913 CURVE",
"165.255 147.663 OFFCURVE",
"176.747 126.408 OFFCURVE",
"191.277 108.095 CURVE",
"204.352 91.617 OFFCURVE",
"200.407 74.276 OFFCURVE",
"200.157 57.138 CURVE",
"199.953 43.122 OFFCURVE",
"196.433 28.971 OFFCURVE",
"192.901 15.281 CURVE",
"191.447 9.646 OFFCURVE",
"186.112 5.062 OFFCURVE",
"182.542 0 CURVE",
"178.024 3.371 OFFCURVE",
"171.847 5.745 OFFCURVE",
"169.256 10.273 CURVE",
"150.861 42.413 OFFCURVE",
"133.196 74.991 OFFCURVE",
"115.309 107.435 CURVE",
"112.384 112.741 OFFCURVE",
"109.506 118.075 OFFCURVE",
"105.164 126.044 CURVE",
"95.691 109.067 OFFCURVE",
"86.932 94.08 OFFCURVE",
"78.852 78.718 CURVE",
"67.501 57.138 OFFCURVE",
"56.972 35.097 OFFCURVE",
"45.321 13.694 CURVE",
"42.995 9.42 OFFCURVE",
"37.42 5.103 OFFCURVE",
"32.949 4.617 CURVE",
"29.902 4.286 OFFCURVE",
"24.485 9.955 OFFCURVE",
"23.022 14.032 CURVE",
"14.546 37.658 OFFCURVE",
"5.062 61.204 OFFCURVE",
"0.029 85.666 CURVE",
"-1.742 94.275 OFFCURVE",
"7.552 105.707 OFFCURVE",
"12.741 115.313 CURVE",
"31.54 150.118 OFFCURVE",
"50.956 184.575 OFFCURVE",
"69.51 219.513 CURVE",
"71.774 223.776 OFFCURVE",
"71.448 230.479 OFFCURVE",
"70.239 235.527 CURVE",
"59.419 280.694 OFFCURVE",
"47.008 325.494 OFFCURVE",
"37.419 370.923 CURVE",
"31.977 396.71 OFFCURVE",
"30.462 423.433 OFFCURVE",
"28.393 449.835 CURVE",
"28.064 454.034 OFFCURVE",
"35.196 463.02 OFFCURVE",
"37.105 462.53 CURVE",
"47.035 459.984 OFFCURVE",
"60.555 465.82 OFFCURVE",
"65.082 448.821 CURVE",
"78.038 400.177 OFFCURVE",
"92.246 351.883 OFFCURVE",
"106.026 303.47 CURVE",
"106.269 302.614 OFFCURVE",
"107.322 302 OFFCURVE",
"109.606 299.54 CURVE"
);
}
);
width = 269;
}
);
unicode = 0078;
},
{
glyphname = y;
lastChange = "2018-11-30 11:38:14 +0000";
layers = (
{
layerId = "05094513-8B3E-496E-80F7-D1F3E9D5BA68";
paths = (
{
closed = 1;
nodes = (
"-30 -81 OFFCURVE",
"-27 -85 OFFCURVE",
"-26 -90 CURVE",
"-21 -106 OFFCURVE",
"-10 -118 OFFCURVE",
"-20 -136 CURVE",
"-29 -152 OFFCURVE",
"-23 -162 OFFCURVE",
"-6 -160 CURVE",
"23 -157 OFFCURVE",
"51 -152 OFFCURVE",
"79 -144 CURVE",
"105 -137 OFFCURVE",
"115 -111 OFFCURVE",
"122 -88 CURVE",
"135 -49 OFFCURVE",
"143 -8 OFFCURVE",
"153 32 CURVE",
"154 34 OFFCURVE",
"153 36 OFFCURVE",
"153 41 CURVE",
"147 37 OFFCURVE",
"142 34 OFFCURVE",
"137 30 CURVE",
"102 7 OFFCURVE",
"80 13 OFFCURVE",
"57 51 CURVE",
"20 112 OFFCURVE",
"14 179 OFFCURVE",
"20 250 CURVE",
"21 268 OFFCURVE",
"21 288 OFFCURVE",
"24 306 CURVE",
"28 336 OFFCURVE",
"34 366 OFFCURVE",
"40 395 CURVE",
"41 406 OFFCURVE",
"54 408 OFFCURVE",
"62 405 CURVE",
"67 404 OFFCURVE",
"71 394 OFFCURVE",
"75 386 CURVE",
"78 380 OFFCURVE",
"82 373 OFFCURVE",
"82 366 CURVE",
"79 335 OFFCURVE",
"74 304 OFFCURVE",
"73 274 CURVE",
"71 236 OFFCURVE",
"71 199 OFFCURVE",
"71 161 CURVE",
"71 150 OFFCURVE",
"75 141 OFFCURVE",
"78 131 CURVE",
"84 115 OFFCURVE",
"104 107 OFFCURVE",
"119 116 CURVE",
"135 125 OFFCURVE",
"150 136 OFFCURVE",
"165 147 CURVE",
"169 150 OFFCURVE",
"169 159 OFFCURVE",
"170 165 CURVE",
"179 217 OFFCURVE",
"186 269 OFFCURVE",
"194 321 CURVE",
"199 347 OFFCURVE",
"205 373 OFFCURVE",
"212 399 CURVE",
"214 405 OFFCURVE",
"220 410 OFFCURVE",
"225 412 CURVE",
"231 413 OFFCURVE",
"234 406 OFFCURVE",
"239 401 CURVE",
"262 372 OFFCURVE",
"248 340 OFFCURVE",
"246 310 CURVE",
"237 219 OFFCURVE",
"224 127 OFFCURVE",
"213 36 CURVE",
"204 -37 OFFCURVE",
"194 -110 OFFCURVE",
"163 -177 CURVE",
"152 -199 OFFCURVE",
"141 -221 OFFCURVE",
"117 -231 CURVE",
"103 -238 OFFCURVE",
"87 -239 OFFCURVE",
"71 -242 CURVE",
"65 -244 OFFCURVE",
"58 -243 OFFCURVE",
"51 -245 CURVE",
"-7 -260 OFFCURVE",
"-49 -237 OFFCURVE",
"-69 -180 CURVE",
"-73 -167 OFFCURVE",
"-77 -156 OFFCURVE",
"-80 -143 CURVE",
"-87 -119 OFFCURVE",
"-80 -98 OFFCURVE",
"-61 -82 CURVE",
"-52 -74 OFFCURVE",
"-42 -68 OFFCURVE",
"-35 -73 CURVE"
);
}
);
width = 257;
}
);
unicode = 0079;
},
{
glyphname = z;
lastChange = "2018-11-30 11:46:25 +0000";
layers = (
{
layerId = "05094513-8B3E-496E-80F7-D1F3E9D5BA68";
paths = (
{
closed = 1;
nodes = (
"147 124 OFFCURVE",
"167 125 OFFCURVE",
"188 129 CURVE",
"197 130 OFFCURVE",
"201 128 OFFCURVE",
"205 118 CURVE",
"214 91 OFFCURVE",
"211 65 OFFCURVE",
"205 39 CURVE",
"202 30 OFFCURVE",
"198 27 OFFCURVE",
"190 26 CURVE",
"161 26 OFFCURVE",
"133 25 OFFCURVE",
"105 23 CURVE",
"82 22 OFFCURVE",
"59 19 OFFCURVE",
"36 19 CURVE",
"10 17 OFFCURVE",
"7 19 OFFCURVE",
"2 44 CURVE",
"-3 64 OFFCURVE",
"-5 84 OFFCURVE",
"-7 104 CURVE",
"-8 108 OFFCURVE",
"-5 115 OFFCURVE",
"-1 116 CURVE",
"36 136 OFFCURVE",
"63 167 OFFCURVE",
"90 199 CURVE",
"114 230 OFFCURVE",
"138 261 OFFCURVE",
"165 296 CURVE",
"145 296 OFFCURVE",
"127 297 OFFCURVE",
"110 297 CURVE",
"77 298 OFFCURVE",
"77 295 OFFCURVE",
"72 331 CURVE",
"69 349 OFFCURVE",
"69 370 OFFCURVE",
"68 389 CURVE",
"68 392 OFFCURVE",
"75 398 OFFCURVE",
"78 398 CURVE",
"90 399 OFFCURVE",
"103 398 OFFCURVE",
"116 396 CURVE",
"153 391 OFFCURVE",
"189 397 OFFCURVE",
"225 409 CURVE",
"232 411 OFFCURVE",
"240 412 OFFCURVE",
"247 414 CURVE",
"256 416 OFFCURVE",
"260 411 OFFCURVE",
"260 402 CURVE",
"260 401 OFFCURVE",
"259 399 OFFCURVE",
"260 399 CURVE",
"279 376 OFFCURVE",
"261 353 OFFCURVE",
"260 330 CURVE",
"260 306 OFFCURVE",
"239 295 OFFCURVE",
"230 276 CURVE",
"222 259 OFFCURVE",
"213 244 OFFCURVE",
"204 228 CURVE",
"200 222 OFFCURVE",
"195 218 OFFCURVE",
"192 213 CURVE",
"170 184 OFFCURVE",
"148 155 OFFCURVE",
"124 123 CURVE"
);
}
);
width = 252;
}
);
unicode = 007A;
},
{
glyphname = zero;
lastChange = "2018-11-09 11:49:59 +0000";
layers = (
{
layerId = "05094513-8B3E-496E-80F7-D1F3E9D5BA68";
paths = (
{
closed = 1;
nodes = (
"23 375 OFFCURVE",
"55 450 OFFCURVE",
"92 523 CURVE",
"115 567 OFFCURVE",
"142 610 OFFCURVE",
"179 644 CURVE",
"218 681 OFFCURVE",
"246 679 OFFCURVE",
"281 638 CURVE",
"286 632 OFFCURVE",
"295 629 OFFCURVE",
"303 625 CURVE",
"343 603 OFFCURVE",
"365 565 OFFCURVE",
"387 528 CURVE",
"419 476 OFFCURVE",
"424 419 OFFCURVE",
"418 358 CURVE",
"408 259 OFFCURVE",
"366 174 OFFCURVE",
"314 93 CURVE",
"298 68 OFFCURVE",
"276 52 OFFCURVE",
"251 37 CURVE",
"216 15 OFFCURVE",
"182 27 OFFCURVE",
"147 32 CURVE",
"113 38 OFFCURVE",
"85 56 OFFCURVE",
"67 85 CURVE",
"39 134 OFFCURVE",
"17 187 OFFCURVE",
"15 244 CURVE",
"14 261 OFFCURVE",
"14 277 OFFCURVE",
"14 285 CURVE"
);
},
{
closed = 1;
nodes = (
"65 181 OFFCURVE",
"78 160 OFFCURVE",
"128 148 CURVE",
"145 144 OFFCURVE",
"162 140 OFFCURVE",
"180 139 CURVE",
"216 136 OFFCURVE",
"247 146 OFFCURVE",
"268 178 CURVE",
"285 205 OFFCURVE",
"302 230 OFFCURVE",
"316 258 CURVE",
"339 302 OFFCURVE",
"360 347 OFFCURVE",
"367 397 CURVE",
"368 409 OFFCURVE",
"367 424 OFFCURVE",
"362 435 CURVE",
"355 451 OFFCURVE",
"343 465 OFFCURVE",
"332 479 CURVE",
"308 507 OFFCURVE",
"283 533 OFFCURVE",
"242 532 CURVE",
"240 532 OFFCURVE",
"235 533 OFFCURVE",
"235 535 CURVE",
"228 554 OFFCURVE",
"218 545 OFFCURVE",
"209 537 CURVE",
"182 513 OFFCURVE",
"160 485 OFFCURVE",
"144 453 CURVE",
"125 416 OFFCURVE",
"106 380 OFFCURVE",
"95 341 CURVE",
"85 306 OFFCURVE",
"75 271 OFFCURVE",
"65 235 CURVE"
);
}
);
width = 435;
}
);
unicode = 0030;
},
{
glyphname = one;
lastChange = "2018-11-09 10:39:49 +0000";
layers = (
{
layerId = "05094513-8B3E-496E-80F7-D1F3E9D5BA68";
paths = (
{
closed = 1;
nodes = (
"170 90 OFFCURVE",
"184 91 OFFCURVE",
"199 94 CURVE",
"210 95 OFFCURVE",
"213 92 OFFCURVE",
"218 80 CURVE",
"232 38 OFFCURVE",
"201 23 OFFCURVE",
"175 5 CURVE",
"145 -15 OFFCURVE",
"109 -17 OFFCURVE",
"74 -19 CURVE",
"57 -20 OFFCURVE",
"39 -17 OFFCURVE",
"22 -13 CURVE",
"16 -12 OFFCURVE",
"6 -2 OFFCURVE",
"6 3 CURVE",
"7 26 OFFCURVE",
"10 48 OFFCURVE",
"14 70 CURVE",
"15 75 OFFCURVE",
"25 80 OFFCURVE",
"31 83 CURVE",
"36 85 OFFCURVE",
"42 84 OFFCURVE",
"48 85 CURVE",
"84 87 OFFCURVE",
"85 87 OFFCURVE",
"92 123 CURVE",
"100 166 OFFCURVE",
"103 210 OFFCURVE",
"111 254 CURVE",
"124 318 OFFCURVE",
"140 422 OFFCURVE",
"154 446 CURVE",
"156 452 OFFCURVE",
"157 459 OFFCURVE",
"158 465 CURVE",
"157 466 OFFCURVE",
"155 468 OFFCURVE",
"153 469 CURVE",
"142 453 OFFCURVE",
"131 436 OFFCURVE",
"118 421 CURVE",
"102 400 OFFCURVE",
"84 379 OFFCURVE",
"67 358 CURVE",
"66 358 OFFCURVE",
"65 357 OFFCURVE",
"64 356 CURVE",
"58 349 OFFCURVE",
"53 335 OFFCURVE",
"42 343 CURVE",
"36 347 OFFCURVE",
"35 363 OFFCURVE",
"37 372 CURVE",
"41 412 OFFCURVE",
"61 445 OFFCURVE",
"83 476 CURVE",
"122 532 OFFCURVE",
"160 589 OFFCURVE",
"199 645 CURVE",
"206 655 OFFCURVE",
"216 666 OFFCURVE",
"227 672 CURVE",
"249 684 OFFCURVE",
"273 669 OFFCURVE",
"273 644 CURVE",
"273 628 OFFCURVE",
"270 611 OFFCURVE",
"266 596 CURVE",
"244 516 OFFCURVE",
"219 438 OFFCURVE",
"198 358 CURVE",
"187 318 OFFCURVE",
"182 276 OFFCURVE",
"176 235 CURVE",
"168 188 OFFCURVE",
"162 140 OFFCURVE",
"154 88 CURVE"
);
}
);
width = 273;
}
);
unicode = 0031;
},
{
glyphname = two;
lastChange = "2018-11-09 09:46:11 +0000";
layers = (
{
layerId = "05094513-8B3E-496E-80F7-D1F3E9D5BA68";
paths = (
{
closed = 1;
nodes = (
"312 242 OFFCURVE",
"318 242 OFFCURVE",
"324 241 CURVE",
"345 213 OFFCURVE",
"334 182 OFFCURVE",
"323 155 CURVE",
"301 106 OFFCURVE",
"276 58 OFFCURVE",
"236 20 CURVE",
"199 -15 OFFCURVE",
"169 -14 OFFCURVE",
"138 26 CURVE",
"126 41 OFFCURVE",
"113 54 OFFCURVE",
"101 68 CURVE",
"91 78 OFFCURVE",
"81 80 OFFCURVE",
"71 68 CURVE",
"65 61 OFFCURVE",
"58 56 OFFCURVE",
"51 51 CURVE",
"31 36 OFFCURVE",
"6 46 OFFCURVE",
"4 70 CURVE",
"-2 130 OFFCURVE",
"16 157 OFFCURVE",
"63 179 CURVE",
"84 189 OFFCURVE",
"99 202 OFFCURVE",
"109 222 CURVE",
"152 306 OFFCURVE",
"196 389 OFFCURVE",
"239 473 CURVE",
"250 493 OFFCURVE",
"253 514 OFFCURVE",
"238 534 CURVE",
"227 548 OFFCURVE",
"215 549 OFFCURVE",
"208 533 CURVE",
"202 520 OFFCURVE",
"198 504 OFFCURVE",
"199 490 CURVE",
"200 461 OFFCURVE",
"183 439 OFFCURVE",
"172 414 CURVE",
"170 410 OFFCURVE",
"160 405 OFFCURVE",
"157 407 CURVE",
"151 410 OFFCURVE",
"144 417 OFFCURVE",
"144 422 CURVE",
"143 449 OFFCURVE",
"140 476 OFFCURVE",
"144 502 CURVE",
"153 558 OFFCURVE",
"180 607 OFFCURVE",
"216 651 CURVE",
"234 673 OFFCURVE",
"253 671 OFFCURVE",
"273 646 CURVE",
"308 603 OFFCURVE",
"316 553 OFFCURVE",
"301 501 CURVE",
"287 455 OFFCURVE",
"269 409 OFFCURVE",
"249 366 CURVE",
"220 306 OFFCURVE",
"187 247 OFFCURVE",
"157 188 CURVE",
"154 183 OFFCURVE",
"153 174 OFFCURVE",
"156 170 CURVE",
"167 153 OFFCURVE",
"179 136 OFFCURVE",
"192 120 CURVE",
"204 105 OFFCURVE",
"214 104 OFFCURVE",
"227 118 CURVE",
"256 148 OFFCURVE",
"281 180 OFFCURVE",
"294 220 CURVE",
"297 228 OFFCURVE",
"301 236 OFFCURVE",
"304 243 CURVE"
);
}
);
width = 356;
}
);
unicode = 0032;
},
{
glyphname = three;
lastChange = "2018-11-09 11:48:41 +0000";
layers = (
{
layerId = "05094513-8B3E-496E-80F7-D1F3E9D5BA68";
paths = (
{
closed = 1;
nodes = (
"196 571 OFFCURVE",
"182 568 OFFCURVE",
"168 565 CURVE",
"145 562 OFFCURVE",
"136 569 OFFCURVE",
"135 592 CURVE",
"135 605 OFFCURVE",
"134 619 OFFCURVE",
"137 632 CURVE",
"143 661 OFFCURVE",
"155 682 OFFCURVE",
"191 682 CURVE",
"227 682 OFFCURVE",
"263 688 OFFCURVE",
"300 689 CURVE",
"314 689 OFFCURVE",
"325 674 OFFCURVE",
"319 660 CURVE",
"305 625 OFFCURVE",
"288 591 OFFCURVE",
"272 556 CURVE",
"265 540 OFFCURVE",
"256 524 OFFCURVE",
"249 510 CURVE",
"270 494 OFFCURVE",
"291 480 OFFCURVE",
"310 464 CURVE",
"367 417 OFFCURVE",
"383 352 OFFCURVE",
"385 283 CURVE",
"388 208 OFFCURVE",
"358 142 OFFCURVE",
"324 79 CURVE",
"304 42 OFFCURVE",
"270 27 OFFCURVE",
"228 22 CURVE",
"179 16 OFFCURVE",
"132 16 OFFCURVE",
"84 22 CURVE",
"49 26 OFFCURVE",
"14 36 OFFCURVE",
"-4 69 CURVE",
"-13 86 OFFCURVE",
"-18 107 OFFCURVE",
"-19 127 CURVE",
"-21 145 OFFCURVE",
"-17 165 OFFCURVE",
"-13 184 CURVE",
"-12 190 OFFCURVE",
"-3 198 OFFCURVE",
"3 201 CURVE",
"9 202 OFFCURVE",
"19 197 OFFCURVE",
"23 192 CURVE",
"31 181 OFFCURVE",
"36 167 OFFCURVE",
"46 157 CURVE",
"63 137 OFFCURVE",
"88 133 OFFCURVE",
"113 129 CURVE",
"160 122 OFFCURVE",
"206 126 OFFCURVE",
"252 141 CURVE",
"313 162 OFFCURVE",
"360 246 OFFCURVE",
"307 321 CURVE",
"297 335 OFFCURVE",
"285 349 OFFCURVE",
"272 361 CURVE",
"248 384 OFFCURVE",
"219 388 OFFCURVE",
"192 372 CURVE",
"176 363 OFFCURVE",
"164 349 OFFCURVE",
"150 338 CURVE",
"146 335 OFFCURVE",
"140 330 OFFCURVE",
"137 331 CURVE",
"133 333 OFFCURVE",
"129 339 OFFCURVE",
"129 344 CURVE",
"126 382 OFFCURVE",
"126 419 OFFCURVE",
"148 453 CURVE",
"169 485 OFFCURVE",
"187 518 OFFCURVE",
"206 551 CURVE",
"209 556 OFFCURVE",
"211 563 OFFCURVE",
"216 574 CURVE"
);
}
);
width = 425;
}
);
unicode = 0033;
},
{
glyphname = four;
lastChange = "2018-11-09 11:48:29 +0000";
layers = (
{
layerId = "05094513-8B3E-496E-80F7-D1F3E9D5BA68";
paths = (
{
closed = 1;
nodes = (
"208 711 OFFCURVE",
"214 690 OFFCURVE",
"213 664 CURVE",
"210 616 OFFCURVE",
"195 570 OFFCURVE",
"174 527 CURVE",
"155 487 OFFCURVE",
"132 450 OFFCURVE",
"111 411 CURVE",
"108 405 OFFCURVE",
"109 392 OFFCURVE",
"113 389 CURVE",
"121 384 OFFCURVE",
"134 380 OFFCURVE",
"141 384 CURVE",
"164 395 OFFCURVE",
"180 415 OFFCURVE",
"189 440 CURVE",
"192 447 OFFCURVE",
"195 454 OFFCURVE",
"196 461 CURVE",
"198 478 OFFCURVE",
"209 484 OFFCURVE",
"223 480 CURVE",
"238 477 OFFCURVE",
"246 465 OFFCURVE",
"244 449 CURVE",
"240 429 OFFCURVE",
"236 409 OFFCURVE",
"232 389 CURVE",
"214 311 OFFCURVE",
"194 232 OFFCURVE",
"177 154 CURVE",
"172 130 OFFCURVE",
"174 106 OFFCURVE",
"170 82 CURVE",
"168 69 OFFCURVE",
"162 58 OFFCURVE",
"157 46 CURVE",
"150 28 OFFCURVE",
"144 10 OFFCURVE",
"137 -7 CURVE",
"135 -12 OFFCURVE",
"131 -15 OFFCURVE",
"128 -19 CURVE",
"125 -19 OFFCURVE",
"123 -19 OFFCURVE",
"121 -19 CURVE",
"117 -1 OFFCURVE",
"112 16 OFFCURVE",
"110 34 CURVE",
"104 93 OFFCURVE",
"118 150 OFFCURVE",
"129 207 CURVE",
"133 225 OFFCURVE",
"137 243 OFFCURVE",
"142 264 CURVE",
"135 263 OFFCURVE",
"131 263 OFFCURVE",
"127 263 CURVE",
"107 260 OFFCURVE",
"88 261 OFFCURVE",
"72 273 CURVE",
"58 283 OFFCURVE",
"43 288 OFFCURVE",
"26 284 CURVE",
"12 280 OFFCURVE",
"3 286 OFFCURVE",
"4 302 CURVE",
"6 331 OFFCURVE",
"4 361 OFFCURVE",
"11 388 CURVE",
"16 406 OFFCURVE",
"33 421 OFFCURVE",
"46 437 CURVE",
"84 483 OFFCURVE",
"120 531 OFFCURVE",
"145 586 CURVE",
"154 607 OFFCURVE",
"158 631 OFFCURVE",
"163 655 CURVE",
"168 677 OFFCURVE",
"172 700 OFFCURVE",
"177 726 CURVE"
);
}
);
width = 264;
}
);
unicode = 0034;
},
{
glyphname = five;
lastChange = "2018-11-09 11:48:14 +0000";
layers = (
{
layerId = "05094513-8B3E-496E-80F7-D1F3E9D5BA68";
paths = (
{
closed = 1;
nodes = (
"220 681 OFFCURVE",
"254 685 OFFCURVE",
"287 690 CURVE",
"302 692 OFFCURVE",
"316 696 OFFCURVE",
"330 700 CURVE",
"352 706 OFFCURVE",
"372 697 OFFCURVE",
"383 681 CURVE",
"390 672 OFFCURVE",
"388 653 OFFCURVE",
"384 640 CURVE",
"379 624 OFFCURVE",
"369 609 OFFCURVE",
"360 595 CURVE",
"358 591 OFFCURVE",
"352 587 OFFCURVE",
"347 586 CURVE",
"309 579 OFFCURVE",
"269 573 OFFCURVE",
"230 566 CURVE",
"222 565 OFFCURVE",
"213 563 OFFCURVE",
"205 561 CURVE",
"201 560 OFFCURVE",
"197 557 OFFCURVE",
"193 555 CURVE",
"195 550 OFFCURVE",
"197 544 OFFCURVE",
"201 541 CURVE",
"240 515 OFFCURVE",
"263 478 OFFCURVE",
"278 435 CURVE",
"293 391 OFFCURVE",
"289 346 OFFCURVE",
"285 300 CURVE",
"279 229 OFFCURVE",
"254 163 OFFCURVE",
"222 99 CURVE",
"208 71 OFFCURVE",
"187 54 OFFCURVE",
"154 52 CURVE",
"108 50 OFFCURVE",
"65 62 OFFCURVE",
"29 90 CURVE",
"9 105 OFFCURVE",
"0 128 OFFCURVE",
"0 152 CURVE",
"1 172 OFFCURVE",
"3 192 OFFCURVE",
"6 211 CURVE",
"8 225 OFFCURVE",
"19 234 OFFCURVE",
"32 233 CURVE",
"39 233 OFFCURVE",
"45 222 OFFCURVE",
"51 215 CURVE",
"52 215 OFFCURVE",
"53 213 OFFCURVE",
"53 212 CURVE",
"57 195 OFFCURVE",
"60 177 OFFCURVE",
"79 170 CURVE",
"109 159 OFFCURVE",
"139 151 OFFCURVE",
"170 162 CURVE",
"175 164 OFFCURVE",
"182 168 OFFCURVE",
"185 173 CURVE",
"219 227 OFFCURVE",
"241 285 OFFCURVE",
"230 350 CURVE",
"225 377 OFFCURVE",
"213 401 OFFCURVE",
"190 418 CURVE",
"165 437 OFFCURVE",
"146 432 OFFCURVE",
"132 404 CURVE",
"130 400 OFFCURVE",
"125 397 OFFCURVE",
"122 394 CURVE",
"119 398 OFFCURVE",
"114 402 OFFCURVE",
"113 407 CURVE",
"109 446 OFFCURVE",
"112 485 OFFCURVE",
"128 523 CURVE",
"143 560 OFFCURVE",
"155 598 OFFCURVE",
"168 635 CURVE",
"173 649 OFFCURVE",
"177 664 OFFCURVE",
"181 676 CURVE"
);
}
);
width = 358;
}
);
unicode = 0035;
},
{
glyphname = six;
lastChange = "2018-11-09 10:40:15 +0000";
layers = (
{
layerId = "05094513-8B3E-496E-80F7-D1F3E9D5BA68";
paths = (
{
closed = 1;
nodes = (
"102 395 OFFCURVE",
"112 403 OFFCURVE",
"122 408 CURVE",
"150 422 OFFCURVE",
"179 415 OFFCURVE",
"205 405 CURVE",
"248 390 OFFCURVE",
"285 365 OFFCURVE",
"314 330 CURVE",
"334 305 OFFCURVE",
"338 274 OFFCURVE",
"332 244 CURVE",
"317 171 OFFCURVE",
"295 100 OFFCURVE",
"228 56 CURVE",
"195 34 OFFCURVE",
"157 18 OFFCURVE",
"121 2 CURVE",
"106 -5 OFFCURVE",
"64 12 OFFCURVE",
"53 24 CURVE",
"-3 82 OFFCURVE",
"-1 155 OFFCURVE",
"0 226 CURVE",
"2 329 OFFCURVE",
"39 422 OFFCURVE",
"92 508 CURVE",
"117 550 OFFCURVE",
"151 587 OFFCURVE",
"182 625 CURVE",
"195 640 OFFCURVE",
"211 653 OFFCURVE",
"228 664 CURVE",
"245 676 OFFCURVE",
"262 672 OFFCURVE",
"267 651 CURVE",
"274 626 OFFCURVE",
"286 600 OFFCURVE",
"266 574 CURVE",
"259 564 OFFCURVE",
"257 551 OFFCURVE",
"252 540 CURVE",
"250 537 OFFCURVE",
"245 532 OFFCURVE",
"243 533 CURVE",
"239 534 OFFCURVE",
"235 539 OFFCURVE",
"234 543 CURVE",
"226 561 OFFCURVE",
"222 563 OFFCURVE",
"206 552 CURVE",
"192 543 OFFCURVE",
"178 532 OFFCURVE",
"169 519 CURVE",
"142 480 OFFCURVE",
"118 440 OFFCURVE",
"93 400 CURVE",
"92 397 OFFCURVE",
"91 394 OFFCURVE",
"89 387 CURVE"
);
},
{
closed = 1;
nodes = (
"122 303 OFFCURVE",
"96 287 OFFCURVE",
"82 260 CURVE",
"76 251 OFFCURVE",
"69 237 OFFCURVE",
"61 234 CURVE",
"47 230 OFFCURVE",
"46 223 OFFCURVE",
"47 213 CURVE",
"47 204 OFFCURVE",
"47 194 OFFCURVE",
"49 185 CURVE",
"57 147 OFFCURVE",
"96 113 OFFCURVE",
"131 118 CURVE",
"188 125 OFFCURVE",
"234 154 OFFCURVE",
"266 202 CURVE",
"270 209 OFFCURVE",
"270 223 OFFCURVE",
"266 229 CURVE",
"237 269 OFFCURVE",
"198 293 OFFCURVE",
"153 300 CURVE"
);
}
);
width = 385;
}
);
unicode = 0036;
},
{
glyphname = seven;
lastChange = "2018-11-09 11:49:07 +0000";
layers = (
{
layerId = "05094513-8B3E-496E-80F7-D1F3E9D5BA68";
paths = (
{
closed = 1;
nodes = (
"155 255 OFFCURVE",
"165 254 OFFCURVE",
"173 256 CURVE",
"194 260 OFFCURVE",
"202 251 OFFCURVE",
"207 230 CURVE",
"215 201 OFFCURVE",
"199 177 OFFCURVE",
"195 150 CURVE",
"194 146 OFFCURVE",
"187 143 OFFCURVE",
"183 141 CURVE",
"162 136 OFFCURVE",
"140 132 OFFCURVE",
"120 125 CURVE",
"115 124 OFFCURVE",
"110 116 OFFCURVE",
"109 111 CURVE",
"102 72 OFFCURVE",
"98 33 OFFCURVE",
"91 -5 CURVE",
"86 -36 OFFCURVE",
"77 -67 OFFCURVE",
"69 -98 CURVE",
"69 -100 OFFCURVE",
"65 -101 OFFCURVE",
"61 -103 CURVE",
"19 -29 OFFCURVE",
"37 45 OFFCURVE",
"58 120 CURVE",
"54 121 OFFCURVE",
"51 122 OFFCURVE",
"49 122 CURVE",
"17 120 OFFCURVE",
"12 116 OFFCURVE",
"7 160 CURVE",
"4 183 OFFCURVE",
"6 205 OFFCURVE",
"7 228 CURVE",
"7 237 OFFCURVE",
"12 245 OFFCURVE",
"24 240 CURVE",
"26 240 OFFCURVE",
"28 240 OFFCURVE",
"30 240 CURVE",
"80 235 OFFCURVE",
"80 237 OFFCURVE",
"98 284 CURVE",
"130 369 OFFCURVE",
"164 453 OFFCURVE",
"198 538 CURVE",
"199 541 OFFCURVE",
"201 545 OFFCURVE",
"201 546 CURVE",
"177 555 OFFCURVE",
"154 563 OFFCURVE",
"131 571 CURVE",
"113 577 OFFCURVE",
"110 571 OFFCURVE",
"107 553 CURVE",
"102 532 OFFCURVE",
"94 511 OFFCURVE",
"83 492 CURVE",
"77 480 OFFCURVE",
"55 487 OFFCURVE",
"53 503 CURVE",
"46 562 OFFCURVE",
"43 621 OFFCURVE",
"87 670 CURVE",
"97 682 OFFCURVE",
"108 692 OFFCURVE",
"126 685 CURVE",
"143 678 OFFCURVE",
"162 677 OFFCURVE",
"179 671 CURVE",
"197 665 OFFCURVE",
"212 664 OFFCURVE",
"227 675 CURVE",
"260 699 OFFCURVE",
"293 722 OFFCURVE",
"328 747 CURVE",
"331 745 OFFCURVE",
"343 738 OFFCURVE",
"343 731 CURVE",
"344 714 OFFCURVE",
"343 694 OFFCURVE",
"335 679 CURVE",
"300 608 OFFCURVE",
"259 540 OFFCURVE",
"226 468 CURVE",
"196 406 OFFCURVE",
"173 340 OFFCURVE",
"148 275 CURVE",
"146 270 OFFCURVE",
"145 264 OFFCURVE",
"143 255 CURVE"
);
}
);
width = 308;
}
);
unicode = 0037;
},
{
glyphname = eight;
lastChange = "2018-11-09 10:40:09 +0000";
layers = (
{
layerId = "05094513-8B3E-496E-80F7-D1F3E9D5BA68";
paths = (
{
closed = 1;
nodes = (
"209 720 OFFCURVE",
"213 715 OFFCURVE",
"218 711 CURVE",
"219 711 OFFCURVE",
"219 712 OFFCURVE",
"220 712 CURVE",
"218 717 OFFCURVE",
"216 722 OFFCURVE",
"213 728 CURVE",
"234 723 OFFCURVE",
"238 707 OFFCURVE",
"240 691 CURVE",
"241 688 OFFCURVE",
"239 684 OFFCURVE",
"239 680 CURVE",
"240 662 OFFCURVE",
"239 646 OFFCURVE",
"253 628 CURVE",
"277 597 OFFCURVE",
"278 559 OFFCURVE",
"260 523 CURVE",
"257 518 OFFCURVE",
"255 513 OFFCURVE",
"253 508 CURVE",
"241 480 OFFCURVE",
"229 453 OFFCURVE",
"216 424 CURVE",
"222 418 OFFCURVE",
"231 409 OFFCURVE",
"242 400 CURVE",
"283 366 OFFCURVE",
"295 320 OFFCURVE",
"291 270 CURVE",
"286 195 OFFCURVE",
"264 124 OFFCURVE",
"224 61 CURVE",
"199 23 OFFCURVE",
"164 -6 OFFCURVE",
"118 -18 CURVE",
"70 -31 OFFCURVE",
"39 -16 OFFCURVE",
"19 30 CURVE",
"-8 91 OFFCURVE",
"-12 155 OFFCURVE",
"-2 221 CURVE",
"9 288 OFFCURVE",
"39 345 OFFCURVE",
"81 397 CURVE",
"84 401 OFFCURVE",
"87 410 OFFCURVE",
"85 413 CURVE",
"63 447 OFFCURVE",
"65 486 OFFCURVE",
"65 523 CURVE",
"66 552 OFFCURVE",
"72 582 OFFCURVE",
"79 611 CURVE",
"90 649 OFFCURVE",
"119 675 OFFCURVE",
"149 698 CURVE",
"164 710 OFFCURVE",
"184 718 OFFCURVE",
"201 728 CURVE"
);
},
{
closed = 1;
nodes = (
"150 349 OFFCURVE",
"149 349 OFFCURVE",
"148 348 CURVE",
"146 348 OFFCURVE",
"144 347 OFFCURVE",
"143 346 CURVE",
"93 306 OFFCURVE",
"56 256 OFFCURVE",
"39 195 CURVE",
"33 176 OFFCURVE",
"37 152 OFFCURVE",
"43 132 CURVE",
"50 106 OFFCURVE",
"75 95 OFFCURVE",
"101 96 CURVE",
"143 98 OFFCURVE",
"175 122 OFFCURVE",
"199 151 CURVE",
"249 210 OFFCURVE",
"255 251 OFFCURVE",
"212 298 CURVE",
"199 312 OFFCURVE",
"178 321 OFFCURVE",
"161 333 CURVE",
"157 336 OFFCURVE",
"154 341 OFFCURVE",
"147 348 CURVE"
);
},
{
closed = 1;
nodes = (
"185 572 OFFCURVE",
"184 587 OFFCURVE",
"185 602 CURVE",
"186 618 OFFCURVE",
"178 621 OFFCURVE",
"165 619 CURVE",
"131 613 OFFCURVE",
"97 565 OFFCURVE",
"107 532 CURVE",
"109 523 OFFCURVE",
"118 512 OFFCURVE",
"127 508 CURVE",
"151 498 OFFCURVE",
"207 523 OFFCURVE",
"221 550 CURVE",
"210 553 OFFCURVE",
"200 556 OFFCURVE",
"185 560 CURVE"
);
}
);
width = 322;
}
);
unicode = 0038;
},
{
glyphname = nine;
lastChange = "2018-11-09 10:40:03 +0000";
layers = (
{
layerId = "05094513-8B3E-496E-80F7-D1F3E9D5BA68";
paths = (
{
closed = 1;
nodes = (
"131 11 OFFCURVE",
"125 35 OFFCURVE",
"123 60 CURVE",
"117 115 OFFCURVE",
"138 168 OFFCURVE",
"145 221 CURVE",
"151 265 OFFCURVE",
"161 308 OFFCURVE",
"170 351 CURVE",
"171 356 OFFCURVE",
"170 361 OFFCURVE",
"171 369 CURVE",
"163 366 OFFCURVE",
"157 362 OFFCURVE",
"150 360 CURVE",
"130 355 OFFCURVE",
"110 347 OFFCURVE",
"89 344 CURVE",
"44 338 OFFCURVE",
"16 360 OFFCURVE",
"8 405 CURVE",
"-1 460 OFFCURVE",
"-1 515 OFFCURVE",
"18 569 CURVE",
"29 598 OFFCURVE",
"43 625 OFFCURVE",
"69 645 CURVE",
"97 666 OFFCURVE",
"127 684 OFFCURVE",
"153 708 CURVE",
"170 723 OFFCURVE",
"185 717 OFFCURVE",
"200 711 CURVE",
"261 687 OFFCURVE",
"286 632 OFFCURVE",
"264 569 CURVE",
"255 543 OFFCURVE",
"251 518 OFFCURVE",
"257 490 CURVE",
"260 480 OFFCURVE",
"256 466 OFFCURVE",
"249 457 CURVE",
"226 426 OFFCURVE",
"226 389 OFFCURVE",
"220 353 CURVE",
"205 258 OFFCURVE",
"191 163 OFFCURVE",
"174 69 CURVE",
"170 44 OFFCURVE",
"161 20 OFFCURVE",
"153 -4 CURVE",
"151 -8 OFFCURVE",
"146 -11 OFFCURVE",
"143 -14 CURVE",
"140 -14 OFFCURVE",
"138 -14 OFFCURVE",
"136 -13 CURVE"
);
},
{
closed = 1;
nodes = (
"48 480 OFFCURVE",
"58 465 OFFCURVE",
"81 461 CURVE",
"93 459 OFFCURVE",
"106 458 OFFCURVE",
"118 462 CURVE",
"140 468 OFFCURVE",
"162 478 OFFCURVE",
"183 488 CURVE",
"199 495 OFFCURVE",
"219 544 OFFCURVE",
"215 560 CURVE",
"207 588 OFFCURVE",
"166 610 OFFCURVE",
"138 600 CURVE",
"102 588 OFFCURVE",
"81 560 OFFCURVE",
"60 531 CURVE",
"54 523 OFFCURVE",
"52 514 OFFCURVE",
"48 505 CURVE"
);
}
);
width = 292;
}
);
unicode = 0039;
},
{
glyphname = period;
lastChange = "2018-11-09 11:02:37 +0000";
layers = (
{
layerId = "05094513-8B3E-496E-80F7-D1F3E9D5BA68";
paths = (
{
closed = 1;
nodes = (
"45 58 OFFCURVE",
"42 83 OFFCURVE",
"60 102 CURVE",
"71 114 OFFCURVE",
"90 120 OFFCURVE",
"105 115 CURVE",
"116 111 OFFCURVE",
"130 87 OFFCURVE",
"127 73 CURVE",
"121 42 OFFCURVE",
"106 16 OFFCURVE",
"83 -3 CURVE",
"63 -19 OFFCURVE",
"41 -5 OFFCURVE",
"40 22 CURVE",
"40 26 OFFCURVE",
"41 30 OFFCURVE",
"41 34 CURVE"
);
}
);
width = 167;
}
);
unicode = 002E;
},
{
glyphname = comma;
lastChange = "2018-11-09 10:02:43 +0000";
layers = (
{
layerId = "05094513-8B3E-496E-80F7-D1F3E9D5BA68";
paths = (
{
closed = 1;
nodes = (
"161 1 OFFCURVE",
"140 -43 OFFCURVE",
"107 -81 CURVE",
"84 -107 OFFCURVE",
"63 -135 OFFCURVE",
"40 -161 CURVE",
"30 -172 OFFCURVE",
"16 -180 OFFCURVE",
"3 -188 CURVE",
"0 -189 OFFCURVE",
"-9 -184 OFFCURVE",
"-12 -180 CURVE",
"-40 -140 OFFCURVE",
"-18 -106 OFFCURVE",
"6 -76 CURVE",
"31 -45 OFFCURVE",
"60 -16 OFFCURVE",
"87 13 CURVE",
"106 34 OFFCURVE",
"121 57 OFFCURVE",
"124 87 CURVE",
"125 94 OFFCURVE",
"132 102 OFFCURVE",
"137 109 CURVE",
"143 101 OFFCURVE",
"152 94 OFFCURVE",
"156 85 CURVE",
"160 75 OFFCURVE",
"160 63 OFFCURVE",
"161 52 CURVE"
);
}
);
width = 211;
}
);
unicode = 002C;
},
{
glyphname = exclam;
lastChange = "2018-11-09 11:32:04 +0000";
layers = (
{
layerId = "05094513-8B3E-496E-80F7-D1F3E9D5BA68";
paths = (
{
closed = 1;
nodes = (
"131 422 OFFCURVE",
"132 395 OFFCURVE",
"137 368 CURVE",
"145 332 OFFCURVE",
"126 308 OFFCURVE",
"103 286 CURVE",
"92 276 OFFCURVE",
"70 284 OFFCURVE",
"66 301 CURVE",
"59 328 OFFCURVE",
"52 356 OFFCURVE",
"52 383 CURVE",
"52 427 OFFCURVE",
"56 471 OFFCURVE",
"60 514 CURVE",
"65 572 OFFCURVE",
"68 629 OFFCURVE",
"78 686 CURVE",
"83 716 OFFCURVE",
"98 744 OFFCURVE",
"111 772 CURVE",
"116 782 OFFCURVE",
"128 788 OFFCURVE",
"141 783 CURVE",
"158 776 OFFCURVE",
"155 762 OFFCURVE",
"154 749 CURVE",
"149 702 OFFCURVE",
"142 655 OFFCURVE",
"138 608 CURVE",
"134 555 OFFCURVE",
"132 502 OFFCURVE",
"129 446 CURVE"
);
},
{
closed = 1;
nodes = (
"41 -96 OFFCURVE",
"49 -77 OFFCURVE",
"62 -62 CURVE",
"78 -43 OFFCURVE",
"97 -28 OFFCURVE",
"115 -10 CURVE",
"130 5 OFFCURVE",
"144 21 OFFCURVE",
"158 38 CURVE",
"166 47 OFFCURVE",
"173 59 OFFCURVE",
"186 53 CURVE",
"200 46 OFFCURVE",
"199 33 OFFCURVE",
"195 18 CURVE",
"184 -23 OFFCURVE",
"154 -50 OFFCURVE",
"126 -79 CURVE",
"107 -98 OFFCURVE",
"85 -115 OFFCURVE",
"63 -132 CURVE",
"58 -135 OFFCURVE",
"47 -138 OFFCURVE",
"43 -136 CURVE",
"37 -132 OFFCURVE",
"35 -123 OFFCURVE",
"30 -114 CURVE"
);
}
);
width = 218;
}
);
unicode = 0021;
},
{
glyphname = asterisk;
lastChange = "2018-11-09 10:02:13 +0000";
layers = (
{
layerId = "05094513-8B3E-496E-80F7-D1F3E9D5BA68";
paths = (
{
closed = 1;
nodes = (
"169 439 OFFCURVE",
"177 454 OFFCURVE",
"187 467 CURVE",
"190 471 OFFCURVE",
"197 473 OFFCURVE",
"203 476 CURVE",
"205 471 OFFCURVE",
"206 465 OFFCURVE",
"209 460 CURVE",
"221 442 OFFCURVE",
"203 424 OFFCURVE",
"209 405 CURVE",
"212 399 OFFCURVE",
"204 390 OFFCURVE",
"199 378 CURVE",
"215 378 OFFCURVE",
"230 378 OFFCURVE",
"244 377 CURVE",
"255 376 OFFCURVE",
"270 386 OFFCURVE",
"276 366 CURVE",
"281 350 OFFCURVE",
"271 340 OFFCURVE",
"265 328 CURVE",
"252 305 OFFCURVE",
"228 299 OFFCURVE",
"206 293 CURVE",
"195 290 OFFCURVE",
"193 286 OFFCURVE",
"195 276 CURVE",
"199 255 OFFCURVE",
"199 235 OFFCURVE",
"186 215 CURVE",
"169 191 OFFCURVE",
"151 191 OFFCURVE",
"137 216 CURVE",
"132 225 OFFCURVE",
"126 234 OFFCURVE",
"120 242 CURVE",
"119 244 OFFCURVE",
"118 245 OFFCURVE",
"116 247 CURVE",
"101 224 OFFCURVE",
"87 202 OFFCURVE",
"71 178 CURVE",
"53 209 OFFCURVE",
"54 239 OFFCURVE",
"57 268 CURVE",
"44 273 OFFCURVE",
"30 275 OFFCURVE",
"19 281 CURVE",
"0 290 OFFCURVE",
"-3 305 OFFCURVE",
"2 334 CURVE",
"5 353 OFFCURVE",
"20 356 OFFCURVE",
"34 359 CURVE",
"47 361 OFFCURVE",
"61 363 OFFCURVE",
"74 363 CURVE",
"89 363 OFFCURVE",
"90 370 OFFCURVE",
"89 381 CURVE",
"87 406 OFFCURVE",
"85 431 OFFCURVE",
"85 456 CURVE",
"85 467 OFFCURVE",
"87 479 OFFCURVE",
"92 488 CURVE",
"100 509 OFFCURVE",
"127 512 OFFCURVE",
"137 492 CURVE",
"146 474 OFFCURVE",
"149 453 OFFCURVE",
"155 434 CURVE",
"155 431 OFFCURVE",
"156 429 OFFCURVE",
"158 422 CURVE"
);
}
);
width = 327;
}
);
unicode = 002A;
},
{
glyphname = slash;
lastChange = "2018-11-09 10:04:57 +0000";
layers = (
{
layerId = "05094513-8B3E-496E-80F7-D1F3E9D5BA68";
paths = (
{
closed = 1;
nodes = (
"-48 -151 OFFCURVE",
"-25 -112 OFFCURVE",
"0 -75 CURVE",
"56 8 OFFCURVE",
"115 89 OFFCURVE",
"174 169 CURVE",
"275 306 OFFCURVE",
"377 442 OFFCURVE",
"466 587 CURVE",
"514 664 OFFCURVE",
"561 741 OFFCURVE",
"594 827 CURVE",
"595 832 OFFCURVE",
"598 836 OFFCURVE",
"601 840 CURVE",
"610 854 OFFCURVE",
"625 859 OFFCURVE",
"638 852 CURVE",
"649 845 OFFCURVE",
"657 833 OFFCURVE",
"652 819 CURVE",
"641 788 OFFCURVE",
"633 756 OFFCURVE",
"617 728 CURVE",
"576 655 OFFCURVE",
"535 582 OFFCURVE",
"488 513 CURVE",
"391 373 OFFCURVE",
"289 236 OFFCURVE",
"189 98 CURVE",
"134 20 OFFCURVE",
"71 -53 OFFCURVE",
"31 -140 CURVE",
"17 -172 OFFCURVE",
"-11 -192 OFFCURVE",
"-27 -222 CURVE",
"-29 -226 OFFCURVE",
"-38 -229 OFFCURVE",
"-43 -227 CURVE",
"-47 -226 OFFCURVE",
"-49 -218 OFFCURVE",
"-50 -212 CURVE",
"-51 -208 OFFCURVE",
"-50 -203 OFFCURVE",
"-50 -198 CURVE"
);
}
);
width = 604;
}
);
unicode = 002F;
},
{
glyphname = parenleft;
lastChange = "2018-11-09 10:03:52 +0000";
layers = (
{
layerId = "05094513-8B3E-496E-80F7-D1F3E9D5BA68";
paths = (
{
closed = 1;
nodes = (
"249 923 OFFCURVE",
"256 912 OFFCURVE",
"261 899 CURVE",
"264 894 OFFCURVE",
"263 886 OFFCURVE",
"261 881 CURVE",
"250 852 OFFCURVE",
"239 825 OFFCURVE",
"214 802 CURVE",
"152 743 OFFCURVE",
"118 666 OFFCURVE",
"93 585 CURVE",
"73 522 OFFCURVE",
"63 456 OFFCURVE",
"66 390 CURVE",
"69 329 OFFCURVE",
"84 271 OFFCURVE",
"108 215 CURVE",
"122 180 OFFCURVE",
"133 144 OFFCURVE",
"151 111 CURVE",
"174 68 OFFCURVE",
"200 26 OFFCURVE",
"228 -14 CURVE",
"270 -73 OFFCURVE",
"319 -126 OFFCURVE",
"379 -168 CURVE",
"390 -176 OFFCURVE",
"393 -185 OFFCURVE",
"382 -195 CURVE",
"381 -196 OFFCURVE",
"379 -198 OFFCURVE",
"379 -199 CURVE",
"374 -206 OFFCURVE",
"370 -218 OFFCURVE",
"366 -218 CURVE",
"351 -219 OFFCURVE",
"336 -219 OFFCURVE",
"322 -214 CURVE",
"243 -185 OFFCURVE",
"196 -120 OFFCURVE",
"152 -55 CURVE",
"91 34 OFFCURVE",
"48 131 OFFCURVE",
"20 234 CURVE",
"0 310 OFFCURVE",
"-5 388 OFFCURVE",
"5 466 CURVE",
"27 622 OFFCURVE",
"87 762 OFFCURVE",
"187 885 CURVE",
"202 904 OFFCURVE",
"220 920 OFFCURVE",
"240 940 CURVE"
);
}
);
width = 389;
}
);
unicode = 0028;
},
{
glyphname = parenright;
lastChange = "2018-11-09 10:04:23 +0000";
layers = (
{
layerId = "05094513-8B3E-496E-80F7-D1F3E9D5BA68";
paths = (
{
closed = 1;
nodes = (
"80 949 OFFCURVE",
"91 942 OFFCURVE",
"102 934 CURVE",
"147 900 OFFCURVE",
"176 853 OFFCURVE",
"207 807 CURVE",
"267 719 OFFCURVE",
"290 619 OFFCURVE",
"301 516 CURVE",
"314 398 OFFCURVE",
"309 282 OFFCURVE",
"272 169 CURVE",
"244 86 OFFCURVE",
"203 10 OFFCURVE",
"154 -61 CURVE",
"119 -112 OFFCURVE",
"81 -160 OFFCURVE",
"44 -209 CURVE",
"36 -218 OFFCURVE",
"24 -230 OFFCURVE",
"13 -231 CURVE",
"-12 -233 OFFCURVE",
"-25 -205 OFFCURVE",
"-10 -182 CURVE",
"4 -159 OFFCURVE",
"20 -138 OFFCURVE",
"36 -116 CURVE",
"89 -49 OFFCURVE",
"135 23 OFFCURVE",
"177 99 CURVE",
"250 230 OFFCURVE",
"262 370 OFFCURVE",
"240 515 CURVE",
"227 598 OFFCURVE",
"196 674 OFFCURVE",
"159 749 CURVE",
"136 795 OFFCURVE",
"107 836 OFFCURVE",
"66 867 CURVE",
"61 871 OFFCURVE",
"58 881 OFFCURVE",
"58 888 CURVE",
"58 906 OFFCURVE",
"61 925 OFFCURVE",
"64 943 CURVE",
"65 951 OFFCURVE",
"69 958 OFFCURVE",
"72 965 CURVE",
"71 963 OFFCURVE",
"70 960 OFFCURVE",
"69 957 CURVE"
);
}
);
width = 357;
}
);
unicode = 0029;
},
{
glyphname = quotedblleft;
lastChange = "2018-11-09 10:01:05 +0000";
layers = (
{
layerId = "05094513-8B3E-496E-80F7-D1F3E9D5BA68";
paths = (
{
closed = 1;
nodes = (
"183 715 OFFCURVE",
"190 697 OFFCURVE",
"195 680 CURVE",
"205 646 OFFCURVE",
"214 613 OFFCURVE",
"223 579 CURVE",
"224 574 OFFCURVE",
"220 568 OFFCURVE",
"219 563 CURVE",
"216 555 OFFCURVE",
"216 545 OFFCURVE",
"211 540 CURVE",
"198 527 OFFCURVE",
"184 516 OFFCURVE",
"172 505 CURVE",
"147 516 OFFCURVE",
"146 534 OFFCURVE",
"143 554 CURVE",
"140 575 OFFCURVE",
"130 596 OFFCURVE",
"125 617 CURVE",
"123 628 OFFCURVE",
"120 642 OFFCURVE",
"124 652 CURVE",
"134 681 OFFCURVE",
"144 712 OFFCURVE",
"177 734 CURVE"
);
},
{
closed = 1;
nodes = (
"46 507 OFFCURVE",
"38 532 OFFCURVE",
"22 550 CURVE",
"1 574 OFFCURVE",
"-3 601 OFFCURVE",
"13 630 CURVE",
"23 649 OFFCURVE",
"33 670 OFFCURVE",
"45 694 CURVE",
"52 684 OFFCURVE",
"56 679 OFFCURVE",
"59 674 CURVE",
"78 645 OFFCURVE",
"97 616 OFFCURVE",
"116 586 CURVE",
"123 574 OFFCURVE",
"116 543 OFFCURVE",
"105 533 CURVE",
"93 522 OFFCURVE",
"83 509 OFFCURVE",
"71 496 CURVE"
);
}
);
width = 228;
}
);
unicode = 201C;
},
{
glyphname = quotedblright;
lastChange = "2018-11-09 10:01:42 +0000";
layers = (
{
layerId = "05094513-8B3E-496E-80F7-D1F3E9D5BA68";
paths = (
{
closed = 1;
nodes = (
"255 701 OFFCURVE",
"257 687 OFFCURVE",
"241 670 CURVE",
"198 624 OFFCURVE",
"153 580 OFFCURVE",
"108 536 CURVE",
"105 533 OFFCURVE",
"96 532 OFFCURVE",
"92 535 CURVE",
"89 537 OFFCURVE",
"86 547 OFFCURVE",
"88 550 CURVE",
"102 575 OFFCURVE",
"114 600 OFFCURVE",
"132 621 CURVE",
"159 654 OFFCURVE",
"191 683 OFFCURVE",
"221 713 CURVE",
"226 717 OFFCURVE",
"232 720 OFFCURVE",
"239 725 CURVE"
);
},
{
closed = 1;
nodes = (
"16 606 OFFCURVE",
"89 659 OFFCURVE",
"139 728 CURVE",
"153 711 OFFCURVE",
"155 697 OFFCURVE",
"145 682 CURVE",
"109 633 OFFCURVE",
"74 584 OFFCURVE",
"37 536 CURVE",
"29 525 OFFCURVE",
"15 519 OFFCURVE",
"4 510 CURVE",
"2 512 OFFCURVE",
"1 513 OFFCURVE",
"0 515 CURVE"
);
}
);
width = 272;
}
);
unicode = 201D;
},
{
glyphname = dollar;
lastChange = "2018-11-09 10:40:53 +0000";
layers = (
{
layerId = "05094513-8B3E-496E-80F7-D1F3E9D5BA68";
paths = (
{
closed = 1;
nodes = (
"302 472 OFFCURVE",
"312 473 OFFCURVE",
"312 471 CURVE",
"312 469 OFFCURVE",
"317 467 OFFCURVE",
"318 468 CURVE",
"381 481 OFFCURVE",
"445 480 OFFCURVE",
"509 482 CURVE",
"500 443 OFFCURVE",
"505 401 OFFCURVE",
"453 399 CURVE",
"457 397 OFFCURVE",
"461 396 OFFCURVE",
"465 395 CURVE",
"465 394 OFFCURVE",
"465 394 OFFCURVE",
"465 392 CURVE",
"440 389 OFFCURVE",
"415 386 OFFCURVE",
"391 381 CURVE",
"338 369 OFFCURVE",
"285 355 OFFCURVE",
"233 343 CURVE",
"217 339 OFFCURVE",
"201 336 OFFCURVE",
"186 333 CURVE",
"174 331 OFFCURVE",
"167 334 OFFCURVE",
"165 348 CURVE",
"161 376 OFFCURVE",
"151 405 OFFCURVE",
"161 434 CURVE",
"163 439 OFFCURVE",
"168 446 OFFCURVE",
"173 447 CURVE",
"220 457 OFFCURVE",
"254 463 OFFCURVE",
"302 472 CURVE"
);
},
{
closed = 1;
nodes = (
"189 233 OFFCURVE",
"195 207 OFFCURVE",
"187 189 CURVE",
"186 186 OFFCURVE",
"184 184 OFFCURVE",
"183 182 CURVE",
"176 127 OFFCURVE",
"131 104 OFFCURVE",
"93 74 CURVE",
"86 69 OFFCURVE",
"79 63 OFFCURVE",
"72 62 CURVE",
"65 60 OFFCURVE",
"53 60 OFFCURVE",
"50 64 CURVE",
"41 80 OFFCURVE",
"34 98 OFFCURVE",
"46 116 CURVE",
"60 136 OFFCURVE",
"74 156 OFFCURVE",
"91 173 CURVE",
"116 199 OFFCURVE",
"144 222 OFFCURVE",
"171 247 CURVE"
);
},
{
closed = 1;
nodes = (
"240 628 OFFCURVE",
"249 619 OFFCURVE",
"246 600 CURVE",
"238 556 OFFCURVE",
"210 527 OFFCURVE",
"178 501 CURVE",
"155 483 OFFCURVE",
"132 465 OFFCURVE",
"106 443 CURVE",
"102 450 OFFCURVE",
"98 458 OFFCURVE",
"96 466 CURVE",
"88 500 OFFCURVE",
"102 526 OFFCURVE",
"128 547 CURVE",
"144 561 OFFCURVE",
"160 574 OFFCURVE",
"175 588 CURVE",
"192 605 OFFCURVE",
"208 622 OFFCURVE",
"225 639 CURVE",
"227 640 OFFCURVE",
"229 640 OFFCURVE",
"232 643 CURVE"
);
}
);
width = 559;
}
);
unicode = 0024;
},
{
glyphname = equal;
lastChange = "2018-11-09 09:54:20 +0000";
layers = (
{
layerId = "05094513-8B3E-496E-80F7-D1F3E9D5BA68";
paths = (
{
closed = 1;
nodes = (
"486 345 OFFCURVE",
"527 343 OFFCURVE",
"568 344 CURVE",
"646 345 OFFCURVE",
"724 349 OFFCURVE",
"801 351 CURVE",
"935 354 OFFCURVE",
"1068 349 OFFCURVE",
"1202 336 CURVE",
"1283 327 OFFCURVE",
"1365 321 OFFCURVE",
"1447 318 CURVE",
"1528 315 OFFCURVE",
"1609 316 OFFCURVE",
"1690 318 CURVE",
"1777 320 OFFCURVE",
"1864 325 OFFCURVE",
"1951 330 CURVE",
"2025 333 OFFCURVE",
"2099 340 OFFCURVE",
"2173 343 CURVE",
"2242 346 OFFCURVE",
"2311 346 OFFCURVE",
"2379 346 CURVE",
"2512 347 OFFCURVE",
"2646 346 OFFCURVE",
"2779 347 CURVE",
"2879 348 OFFCURVE",
"2978 352 OFFCURVE",
"3078 351 CURVE",
"3143 351 OFFCURVE",
"3208 344 OFFCURVE",
"3274 339 CURVE",
"3325 335 OFFCURVE",
"3376 330 OFFCURVE",
"3427 326 CURVE",
"3469 323 OFFCURVE",
"3512 321 OFFCURVE",
"3554 319 CURVE",
"3574 318 OFFCURVE",
"3577 313 OFFCURVE",
"3569 296 CURVE",
"3564 286 OFFCURVE",
"3560 275 OFFCURVE",
"3554 266 CURVE",
"3550 259 OFFCURVE",
"3545 256 OFFCURVE",
"3535 257 CURVE",
"3495 260 OFFCURVE",
"3455 260 OFFCURVE",
"3415 263 CURVE",
"3352 268 OFFCURVE",
"3289 273 OFFCURVE",
"3227 279 CURVE",
"3146 287 OFFCURVE",
"3064 292 OFFCURVE",
"2983 289 CURVE",
"2929 287 OFFCURVE",
"2875 286 OFFCURVE",
"2822 285 CURVE",
"2768 285 OFFCURVE",
"2715 286 OFFCURVE",
"2662 286 CURVE",
"2610 285 OFFCURVE",
"2558 285 OFFCURVE",
"2506 284 CURVE",
"2421 284 OFFCURVE",
"2336 284 OFFCURVE",
"2251 282 CURVE",
"2188 280 OFFCURVE",
"2124 277 OFFCURVE",
"2061 273 CURVE",
"2005 271 OFFCURVE",
"1949 267 OFFCURVE",
"1894 264 CURVE",
"1842 262 OFFCURVE",
"1790 258 OFFCURVE",
"1739 256 CURVE",
"1700 255 OFFCURVE",
"1661 254 OFFCURVE",
"1622 254 CURVE",
"1586 253 OFFCURVE",
"1550 252 OFFCURVE",
"1514 254 CURVE",
"1450 256 OFFCURVE",
"1386 259 OFFCURVE",
"1321 264 CURVE",
"1198 273 OFFCURVE",
"1074 283 OFFCURVE",
"950 292 CURVE",
"919 294 OFFCURVE",
"888 291 OFFCURVE",
"857 290 CURVE",
"801 289 OFFCURVE",
"745 289 OFFCURVE",
"689 287 CURVE",
"639 286 OFFCURVE",
"590 284 OFFCURVE",
"540 283 CURVE",
"505 283 OFFCURVE",
"471 284 OFFCURVE",
"436 284 CURVE",
"422 284 OFFCURVE",
"409 282 OFFCURVE",
"395 282 CURVE",
"390 283 OFFCURVE",
"385 285 OFFCURVE",
"381 287 CURVE",
"374 293 OFFCURVE",
"364 325 OFFCURVE",
"369 333 CURVE",
"371 338 OFFCURVE",
"377 342 OFFCURVE",
"382 343 CURVE",
"399 345 OFFCURVE",
"416 346 OFFCURVE",
"433 347 CURVE",
"437 348 OFFCURVE",
"441 347 OFFCURVE",
"448 346 CURVE"
);
},
{
closed = 1;
nodes = (
"100 319 OFFCURVE",
"106 335 OFFCURVE",
"121 349 CURVE",
"125 353 OFFCURVE",
"126 359 OFFCURVE",
"130 364 CURVE",
"137 375 OFFCURVE",
"143 386 OFFCURVE",
"153 394 CURVE",
"169 408 OFFCURVE",
"191 405 OFFCURVE",
"207 390 CURVE",
"225 373 OFFCURVE",
"231 349 OFFCURVE",
"232 326 CURVE",
"235 279 OFFCURVE",
"219 237 OFFCURVE",
"182 206 CURVE",
"177 202 OFFCURVE",
"171 198 OFFCURVE",
"164 195 CURVE",
"147 189 OFFCURVE",
"133 193 OFFCURVE",
"122 208 CURVE",
"106 232 OFFCURVE",
"101 259 OFFCURVE",
"100 287 CURVE",
"100 291 OFFCURVE",
"101 295 OFFCURVE",
"101 300 CURVE"
);
},
{
closed = 1;
nodes = (
"3752 298 OFFCURVE",
"3740 268 OFFCURVE",
"3716 245 CURVE",
"3704 234 OFFCURVE",
"3686 229 OFFCURVE",
"3671 222 CURVE",
"3658 217 OFFCURVE",
"3645 216 OFFCURVE",
"3632 222 CURVE",
"3614 231 OFFCURVE",
"3606 248 OFFCURVE",
"3609 275 CURVE",
"3612 298 OFFCURVE",
"3616 321 OFFCURVE",
"3629 341 CURVE",
"3647 367 OFFCURVE",
"3666 390 OFFCURVE",
"3700 396 CURVE",
"3722 400 OFFCURVE",
"3744 388 OFFCURVE",
"3749 366 CURVE",
"3752 355 OFFCURVE",
"3753 343 OFFCURVE",
"3755 331 CURVE"
);
}
);
width = 3855;
}
);
unicode = 003D;
},
{
glyphname = at;
lastChange = "2018-11-09 09:57:47 +0000";
layers = (
{
layerId = "05094513-8B3E-496E-80F7-D1F3E9D5BA68";
paths = (
{
closed = 1;
nodes = (
"465 223 OFFCURVE",
"476 199 OFFCURVE",
"472 176 CURVE",
"459 88 OFFCURVE",
"415 18 OFFCURVE",
"342 -31 CURVE",
"307 -54 OFFCURVE",
"264 -64 OFFCURVE",
"221 -69 CURVE",
"151 -77 OFFCURVE",
"102 -46 OFFCURVE",
"63 10 CURVE",
"32 55 OFFCURVE",
"20 107 OFFCURVE",
"8 160 CURVE",
"-2 208 OFFCURVE",
"-2 258 OFFCURVE",
"7 306 CURVE",
"13 339 OFFCURVE",
"24 371 OFFCURVE",
"33 403 CURVE",
"59 488 OFFCURVE",
"108 560 OFFCURVE",
"170 622 CURVE",
"205 656 OFFCURVE",
"244 686 OFFCURVE",
"281 717 CURVE",
"290 724 OFFCURVE",
"300 732 OFFCURVE",
"314 727 CURVE",
"320 726 OFFCURVE",
"330 731 OFFCURVE",
"335 736 CURVE",
"356 763 OFFCURVE",
"386 760 OFFCURVE",
"415 760 CURVE",
"516 761 OFFCURVE",
"613 641 OFFCURVE",
"597 522 CURVE",
"589 469 OFFCURVE",
"577 418 OFFCURVE",
"552 371 CURVE",
"527 322 OFFCURVE",
"492 281 OFFCURVE",
"439 259 CURVE",
"421 251 OFFCURVE",
"403 248 OFFCURVE",
"384 260 CURVE",
"381 263 OFFCURVE",
"372 260 OFFCURVE",
"367 258 CURVE",
"341 243 OFFCURVE",
"318 225 OFFCURVE",
"292 213 CURVE",
"247 192 OFFCURVE",
"222 214 OFFCURVE",
"210 252 CURVE",
"201 278 OFFCURVE",
"196 306 OFFCURVE",
"193 334 CURVE",
"189 372 OFFCURVE",
"197 408 OFFCURVE",
"221 439 CURVE",
"226 445 OFFCURVE",
"228 453 OFFCURVE",
"233 460 CURVE",
"265 501 OFFCURVE",
"298 541 OFFCURVE",
"350 561 CURVE",
"379 571 OFFCURVE",
"405 564 OFFCURVE",
"422 540 CURVE",
"437 518 OFFCURVE",
"445 493 OFFCURVE",
"442 467 CURVE",
"440 443 OFFCURVE",
"436 419 OFFCURVE",
"433 394 CURVE",
"432 390 OFFCURVE",
"431 386 OFFCURVE",
"431 382 CURVE",
"432 377 OFFCURVE",
"432 369 OFFCURVE",
"435 368 CURVE",
"439 367 OFFCURVE",
"446 368 OFFCURVE",
"450 371 CURVE",
"496 398 OFFCURVE",
"516 441 OFFCURVE",
"528 491 CURVE",
"541 543 OFFCURVE",
"527 570 OFFCURVE",
"477 604 CURVE",
"461 616 OFFCURVE",
"443 624 OFFCURVE",
"425 632 CURVE",
"385 649 OFFCURVE",
"345 637 OFFCURVE",
"311 616 CURVE",
"210 554 OFFCURVE",
"133 469 OFFCURVE",
"83 360 CURVE",
"55 299 OFFCURVE",
"48 235 OFFCURVE",
"67 171 CURVE",
"83 116 OFFCURVE",
"115 71 OFFCURVE",
"172 52 CURVE",
"196 44 OFFCURVE",
"224 44 OFFCURVE",
"249 49 CURVE",
"279 54 OFFCURVE",
"310 63 OFFCURVE",
"334 80 CURVE",
"358 97 OFFCURVE",
"377 124 OFFCURVE",
"395 148 CURVE",
"413 173 OFFCURVE",
"426 200 OFFCURVE",
"442 226 CURVE",
"443 228 OFFCURVE",
"445 229 OFFCURVE",
"447 231 CURVE"
);
},
{
closed = 1;
nodes = (
"352 434 OFFCURVE",
"343 432 OFFCURVE",
"336 428 CURVE",
"304 413 OFFCURVE",
"286 384 OFFCURVE",
"267 358 CURVE",
"262 351 OFFCURVE",
"260 334 OFFCURVE",
"263 332 CURVE",
"271 327 OFFCURVE",
"285 322 OFFCURVE",
"294 325 CURVE",
"311 332 OFFCURVE",
"327 344 OFFCURVE",
"343 355 CURVE",
"346 357 OFFCURVE",
"349 363 OFFCURVE",
"350 368 CURVE",
"354 389 OFFCURVE",
"357 411 OFFCURVE",
"362 437 CURVE"
);
}
);
width = 619;
}
);
unicode = 0040;
},
{
glyphname = ampersand;
lastChange = "2018-11-09 09:58:54 +0000";
layers = (
{
layerId = "05094513-8B3E-496E-80F7-D1F3E9D5BA68";
paths = (
{
closed = 1;
nodes = (
"278 127 OFFCURVE",
"258 109 OFFCURVE",
"236 94 CURVE",
"191 60 OFFCURVE",
"146 27 OFFCURVE",
"100 -5 CURVE",
"87 -14 OFFCURVE",
"72 -21 OFFCURVE",
"57 -28 CURVE",
"39 -37 OFFCURVE",
"17 -29 OFFCURVE",
"10 -8 CURVE",
"4 8 OFFCURVE",
"0 27 OFFCURVE",
"0 44 CURVE",
"-1 99 OFFCURVE",
"17 147 OFFCURVE",
"46 193 CURVE",
"95 268 OFFCURVE",
"142 344 OFFCURVE",
"189 421 CURVE",
"194 428 OFFCURVE",
"195 439 OFFCURVE",
"195 449 CURVE",
"192 493 OFFCURVE",
"186 537 OFFCURVE",
"185 581 CURVE",
"184 624 OFFCURVE",
"205 662 OFFCURVE",
"227 698 CURVE",
"239 718 OFFCURVE",
"259 729 OFFCURVE",
"282 732 CURVE",
"323 737 OFFCURVE",
"360 728 OFFCURVE",
"389 698 CURVE",
"417 670 OFFCURVE",
"424 630 OFFCURVE",
"401 597 CURVE",
"370 550 OFFCURVE",
"336 506 OFFCURVE",
"301 462 CURVE",
"286 445 OFFCURVE",
"281 431 OFFCURVE",
"291 408 CURVE",
"307 370 OFFCURVE",
"321 330 OFFCURVE",
"335 290 CURVE",
"340 276 OFFCURVE",
"347 275 OFFCURVE",
"358 283 CURVE",
"369 292 OFFCURVE",
"380 300 OFFCURVE",
"391 308 CURVE",
"408 320 OFFCURVE",
"435 316 OFFCURVE",
"442 299 CURVE",
"444 293 OFFCURVE",
"443 283 OFFCURVE",
"440 277 CURVE",
"424 248 OFFCURVE",
"405 221 OFFCURVE",
"377 202 CURVE",
"367 195 OFFCURVE",
"373 188 OFFCURVE",
"376 181 CURVE",
"392 148 OFFCURVE",
"408 116 OFFCURVE",
"423 83 CURVE",
"435 57 OFFCURVE",
"414 22 OFFCURVE",
"388 24 CURVE",
"368 25 OFFCURVE",
"357 38 OFFCURVE",
"348 55 CURVE",
"333 84 OFFCURVE",
"317 112 OFFCURVE",
"300 144 CURVE"
);
},
{
closed = 1;
nodes = (
"65 81 OFFCURVE",
"67 79 OFFCURVE",
"70 78 CURVE",
"76 81 OFFCURVE",
"84 83 OFFCURVE",
"90 87 CURVE",
"148 129 OFFCURVE",
"206 170 OFFCURVE",
"265 211 CURVE",
"275 218 OFFCURVE",
"275 223 OFFCURVE",
"271 232 CURVE",
"258 262 OFFCURVE",
"247 292 OFFCURVE",
"235 322 CURVE",
"232 331 OFFCURVE",
"228 340 OFFCURVE",
"224 352 CURVE",
"218 344 OFFCURVE",
"214 340 OFFCURVE",
"211 336 CURVE",
"202 321 OFFCURVE",
"193 307 OFFCURVE",
"184 292 CURVE",
"149 236 OFFCURVE",
"114 180 OFFCURVE",
"79 123 CURVE",
"72 111 OFFCURVE",
"69 96 OFFCURVE",
"63 82 CURVE"
);
},
{
closed = 1;
nodes = (
"260 516 OFFCURVE",
"262 515 OFFCURVE",
"264 515 CURVE",
"284 538 OFFCURVE",
"304 561 OFFCURVE",
"323 586 CURVE",
"325 589 OFFCURVE",
"323 598 OFFCURVE",
"320 602 CURVE",
"304 617 OFFCURVE",
"283 622 OFFCURVE",
"262 620 CURVE",
"258 620 OFFCURVE",
"252 613 OFFCURVE",
"252 609 CURVE",
"253 578 OFFCURVE",
"256 547 OFFCURVE",
"258 516 CURVE"
);
}
